<?xml version="1.0" encoding="utf-8"?>
<!-- Generator: Adobe Illustrator 28.2.0, SVG Export Plug-In . SVG Version: 6.00 Build 0)  -->
<svg version="1.1" id="Layer_1" xmlns="http://www.w3.org/2000/svg" xmlns:xlink="http://www.w3.org/1999/xlink" x="0px" y="0px"
	 viewBox="0 0 245.7 72.84" style="enable-background:new 0 0 245.7 72.84;" xml:space="preserve">
<style type="text/css">
	.st0{fill:#C1272D;}
</style>
<g>
	<path class="st0" d="M2.41,0.21c5.73,14.27,10.7,28.84,14.88,43.64c2.42,8.58,4.94,17.83,11.81,23.51
		c8.22,6.81,20.03,6.44,30.68,5.68c36.48-2.59,73.07-5.55,109.58-3.36c8.47,0.51,17.05,1.28,25.36-0.44
		c14.45-3,26.55-13.43,34.4-25.93c7.85-12.49,11.95-26.96,15.1-41.38c-21.4-3.87-43.33-3.33-65.07-2.79
		c-24.84,0.62-49.68,1.25-74.52,1.87C69.99,1.9,35.34,2.77,0.72,1.6"/>
	<g>
		<path d="M0.97,0.61c4.35,10.85,8.28,21.87,11.74,33.04c1.61,5.18,3.02,10.41,4.58,15.6c1.34,4.45,2.92,8.93,5.4,12.9
			c2.42,3.88,5.73,7.15,9.82,9.23c4.21,2.14,8.89,3.07,13.57,3.41c4.9,0.35,9.81,0.03,14.69-0.31c5.95-0.42,11.89-0.85,17.84-1.27
			c24.1-1.68,48.24-3.12,72.41-2.71c5.95,0.1,11.9,0.31,17.85,0.66c5.92,0.35,11.85,0.85,17.79,0.57
			c9.95-0.48,19.25-3.73,27.27-9.65c16.8-12.41,25-32.2,29.91-51.87c0.65-2.61,1.25-5.23,1.83-7.86c0.16-0.74-0.22-1.7-1.05-1.85
			c-15.49-2.77-31.24-3.34-46.94-3.2c-15.78,0.13-31.56,0.69-47.34,1.08c-31.97,0.8-63.94,1.81-95.92,2.18
			C36.51,0.77,18.61,0.7,0.72,0.1c-1.93-0.06-1.93,2.94,0,3c31.81,1.07,63.64,0.43,95.45-0.36c31.72-0.78,63.44-1.79,95.16-2.36
			c17.53-0.31,35.18-0.09,52.49,3.01c-0.35-0.62-0.7-1.23-1.05-1.85c-4.3,19.64-10.56,40.05-25.77,54.11
			c-6.74,6.23-15,10.83-24.1,12.41c-5.54,0.96-11.23,0.82-16.82,0.52c-5.8-0.31-11.58-0.71-17.38-0.91
			c-23.41-0.8-46.83,0.3-70.18,1.84c-11.29,0.74-22.57,1.84-33.87,2.32c-8.98,0.38-19.1-0.14-25.89-6.82
			c-6.69-6.58-8.55-16.61-11.08-25.28C14.51,28.92,10.92,18.2,6.92,7.65C5.92,5.03,4.9,2.42,3.86-0.19
			C3.15-1.96,0.25-1.18,0.97,0.61L0.97,0.61z"/>
	</g>
</g>
</svg>
