<?xml version="1.0" encoding="utf-8"?>
<!-- Generator: Adobe Illustrator 28.2.0, SVG Export Plug-In . SVG Version: 6.00 Build 0)  -->
<svg version="1.1" id="Layer_1" xmlns="http://www.w3.org/2000/svg" xmlns:xlink="http://www.w3.org/1999/xlink" x="0px" y="0px"
	 viewBox="0 0 549.71 290.43" style="enable-background:new 0 0 549.71 290.43;" xml:space="preserve">
<style type="text/css">
	.st0{fill:#8B5E3C;}
	.st1{fill:#C49A6C;}
	.st2{fill:#82C341;}
</style>
<g>
	<path class="st0" d="M472.18,100.5c-2.19,13.19,2.72,27.34-2.11,39.81c-5.36,13.81-20.58,20.64-34.48,25.78
		c-39.54,14.63-79.99,26.81-121.04,36.44c-21.24,4.98-42.85,9.31-64.66,8.93c-33.52-0.58-65.75-12.17-97.25-23.63
		c-10.73-3.9-21.47-7.8-32.2-11.71c-27.91-10.15-56.71-20.84-78.04-41.49c-3.94-3.81-7.82-8.58-7.5-14.05
		c0.26-4.27,3.05-7.94,5.97-11.08c25.76-27.69,66.54-34.46,99.05-53.79c7.41-4.4,14.49-9.53,22.6-12.45
		c7.35-2.65,15.24-3.39,23.03-4.1c33.32-3.05,66.79-6.1,100.2-4.21c43.07,2.44,85.28,13.05,126.45,25.91
		c22.03,6.89,45.5,15.67,57.99,35.08"/>
	<g>
		<path d="M469.77,99.84c-2.31,14.85,4.16,31.87-5.02,45.15c-7.52,10.88-21.52,15.67-33.38,20.01
			c-32.47,11.88-65.54,22.1-99.04,30.62c-33.69,8.57-68.1,16.71-103.02,11.67c-33.77-4.87-65.85-18.18-97.73-29.77
			c-28.49-10.36-58.84-19.99-82.29-40.01c-4.8-4.1-12.71-10.12-11.84-17.3c0.45-3.73,3.17-6.8,5.65-9.43c2.27-2.4,4.68-4.67,7.2-6.8
			c10.43-8.83,22.73-15.19,35.15-20.73c12.64-5.64,25.62-10.48,38.19-16.28c6.22-2.87,12.35-5.97,18.22-9.51
			c6.94-4.17,13.66-9.03,21.33-11.8c8-2.89,16.55-3.48,24.95-4.25c8.91-0.81,17.83-1.62,26.75-2.32
			c17.68-1.39,35.41-2.38,53.15-2.22c34.58,0.31,68.68,5.97,102.13,14.53c16.03,4.11,31.98,8.7,47.7,13.89
			c12.96,4.28,26.03,9.39,36.94,17.77c5.15,3.95,9.68,8.69,13.23,14.13c1.75,2.68,6.08,0.18,4.32-2.52
			c-16.29-24.97-48.2-33.05-75.08-40.97c-33.95-10-68.67-17.99-104.03-20.76c-36.45-2.86-73.01,0.47-109.31,3.85
			c-8.47,0.79-16.96,1.8-24.86,5.14c-7.66,3.24-14.41,8.11-21.56,12.28c-12.35,7.19-25.63,12.55-38.81,17.99
			c-13.13,5.42-26.34,10.92-38.44,18.44c-5.84,3.63-11.41,7.73-16.46,12.4c-5.11,4.73-11.44,10.69-11.42,18.2
			c0.02,7.59,6.21,13.43,11.45,18.12c5.74,5.13,12,9.68,18.54,13.72c13.17,8.13,27.5,14.2,41.92,19.71
			c16.06,6.13,32.29,11.84,48.45,17.72c16.58,6.02,33.2,12.01,50.28,16.46c16.81,4.37,34.12,7.2,51.53,6.99
			c17.95-0.23,35.73-3.4,53.19-7.31c34.98-7.83,69.54-17.7,103.47-29.26c8.48-2.89,16.93-5.88,25.32-9
			c6.28-2.33,12.55-4.87,18.33-8.28c5.65-3.34,10.88-7.59,14.53-13.11c4.26-6.45,5.46-14.08,5.37-21.68
			c-0.09-8.04-1.43-16.16-0.19-24.16C475.08,98.02,470.26,96.67,469.77,99.84L469.77,99.84z"/>
	</g>
</g>
<g>
	<path class="st1" d="M472.21,100.07c6.66,2.89,13.85-2.12,20.88-3.95c4.01-1.05,8.21-1.05,12.36-1.04
		c8.61,0.02,17.45,0.08,25.5,3.15c1.35,0.51,2.75,1.19,3.45,2.45c0.67,1.21,0.53,2.68,0.8,4.04c0.54,2.75,2.7,4.85,4.6,6.91
		c3.53,3.82,6.61,8.34,7.4,13.49c0.79,5.15-1.2,10.97-5.76,13.48c-2.2,1.21-4.75,1.56-7.24,1.9c-10.77,1.44-21.54,2.88-32.31,4.32
		c-11.9,1.59-23.91,3.19-35.89,2.28"/>
	<g>
		<path d="M471.54,102.48c5.41,2.22,11.1,0.1,16.22-1.88c2.72-1.05,5.44-2.09,8.32-2.57c3.08-0.51,6.25-0.46,9.36-0.45
			c5.81,0.01,11.71-0.01,17.45,1.04c2.7,0.49,5.67,1.09,8.12,2.35c0.99,0.51,1.32,0.97,1.46,2.09c0.21,1.57,0.36,2.97,1.02,4.42
			c1.15,2.54,3.25,4.47,5.07,6.52c1.78,2,3.37,4.17,4.56,6.58c1.97,3.96,2.49,8.77,0.19,12.71c-2.82,4.83-9.11,4.7-14.04,5.36
			c-6.53,0.87-13.06,1.75-19.58,2.62c-14.46,1.94-29.08,4.4-43.72,3.33c-1.35-0.1-2.5,1.22-2.5,2.5c0,1.43,1.15,2.4,2.5,2.5
			c13.83,1.01,27.61-1.17,41.27-3c6.85-0.92,13.71-1.83,20.56-2.75c3.36-0.45,6.78-0.75,10.11-1.42c2.88-0.58,5.63-1.79,7.69-3.93
			c3.65-3.81,4.82-9.36,3.91-14.45c-1.05-5.91-4.83-10.79-8.8-15.08c-0.86-0.93-1.72-1.86-2.37-2.96c-0.76-1.28-0.8-2.59-1.01-4.03
			c-0.49-3.32-2.79-5.02-5.74-6.16c-5.97-2.31-12.53-2.94-18.88-3.14c-7.2-0.23-14.95-0.72-21.9,1.5
			c-5.61,1.79-11.97,5.95-17.96,3.49c-1.25-0.51-2.75,0.56-3.08,1.75C469.4,100.84,470.29,101.96,471.54,102.48L471.54,102.48z"/>
	</g>
</g>
<g>
	<g>
		<path d="M543.35,129.72c-8.95,1.5-18.15,0.5-26.64-2.65c-1.27-0.47-2.74,0.52-3.08,1.75c-0.38,1.4,0.48,2.6,1.75,3.08
			c9.36,3.48,19.47,4.31,29.3,2.65c1.33-0.22,2.08-1.87,1.75-3.08C546.03,130.05,544.68,129.49,543.35,129.72L543.35,129.72z"/>
	</g>
</g>
<g>
	<g>
		<path d="M524.86,104.38c-0.21,0.11-0.43,0.21-0.65,0.3c0.2-0.08,0.4-0.17,0.6-0.25c-0.76,0.31-1.54,0.52-2.35,0.63
			c0.22-0.03,0.44-0.06,0.66-0.09c-0.81,0.1-1.62,0.1-2.43-0.01c0.22,0.03,0.44,0.06,0.66,0.09c-0.13-0.02-0.27-0.04-0.4-0.07
			c-0.22,1.64-0.44,3.27-0.66,4.91c0.54-0.04,1.07-0.03,1.6,0.04c-0.22-0.03-0.44-0.06-0.66-0.09c0.67,0.1,1.31,0.27,1.93,0.53
			c-0.2-0.08-0.4-0.17-0.6-0.25c0.34,0.15,0.66,0.32,0.98,0.51c0.42-1.55,0.84-3.11,1.26-4.66c-0.92-0.02-1.83-0.04-2.75-0.06
			c-0.63-0.01-1.32,0.29-1.77,0.73c-0.43,0.43-0.76,1.15-0.73,1.77c0.06,1.38,1.1,2.47,2.5,2.5c0.92,0.02,1.83,0.04,2.75,0.06
			c1.05,0.02,2.17-0.79,2.41-1.84c0.25-1.1-0.17-2.22-1.15-2.82c-1.7-1.04-3.79-1.58-5.78-1.43c-0.64,0.05-1.31,0.24-1.77,0.73
			c-0.38,0.41-0.61,0.88-0.69,1.44c-0.07,0.53,0,1.13,0.3,1.59c0.33,0.52,0.86,1.03,1.49,1.15c0.72,0.13,1.45,0.23,2.18,0.24
			c0.7,0.01,1.39-0.08,2.08-0.18c1.22-0.18,2.39-0.61,3.49-1.16c0.54-0.27,0.99-0.92,1.15-1.49c0.16-0.6,0.09-1.4-0.25-1.93
			c-0.34-0.53-0.86-1-1.49-1.15C526.11,103.98,525.49,104.07,524.86,104.38L524.86,104.38z"/>
	</g>
</g>
<g>
	<path class="st1" d="M462.22,153.95c5.83-2.17,12.61-0.06,17.37,3.94s7.87,9.61,10.48,15.26c6.14,13.28,10.22,27.78,9.73,42.4
		s-5.88,29.41-16.46,39.53c-5.67,5.43-12.58,9.34-19.41,13.21c-5.94,3.36-11.87,6.71-17.81,10.07c-6.78,3.83-13.9,7.76-21.68,8.03
		c9.84-5.94,15.7-16.67,19.99-27.33c9.38-23.31,13.4-48.38,17.35-73.2c0.83-5.24,1.65-10.73-0.05-15.77
		c-1.7-5.03-6.78-9.35-11.98-8.28"/>
	<g>
		<path d="M462.88,156.36c5.01-1.78,10.49-0.19,14.59,3c4.55,3.55,7.48,8.8,9.92,13.92c5.4,11.35,9.26,23.73,9.87,36.34
			c0.55,11.32-1.64,22.84-7.25,32.76c-2.8,4.95-6.4,9.33-10.74,13c-4.7,3.97-10.1,7.06-15.44,10.08c-6.7,3.8-13.41,7.6-20.12,11.37
			c-5.96,3.35-12.28,6.73-19.26,7.03c0.42,1.55,0.84,3.11,1.26,4.66c7.55-4.62,12.98-11.82,16.98-19.59
			c4.46-8.66,7.66-18.02,10.37-27.36c2.9-9.97,5.1-20.13,6.98-30.33c0.94-5.08,1.8-10.17,2.63-15.26
			c0.83-5.11,1.81-10.23,2.34-15.38c0.55-5.29,0.18-11.09-3.08-15.52c-3.03-4.1-7.68-6.66-12.84-5.71
			c-1.33,0.24-2.08,1.86-1.75,3.08c0.38,1.4,1.74,1.99,3.08,1.75c3.25-0.6,6.32,1.87,7.92,4.48c2.28,3.74,2.08,8.42,1.6,12.61
			c-0.54,4.7-1.44,9.39-2.2,14.06c-0.78,4.79-1.6,9.57-2.48,14.34c-1.74,9.44-3.75,18.84-6.32,28.09
			c-2.44,8.77-5.3,17.54-9.17,25.79c-3.79,8.07-8.83,15.9-16.58,20.64c-2.03,1.24-1.3,4.77,1.26,4.66
			c6.84-0.29,13.12-3.01,19.07-6.21c6.42-3.46,12.73-7.16,19.08-10.75c5.89-3.33,11.88-6.57,17.29-10.67
			c4.98-3.78,9.27-8.22,12.7-13.46c6.72-10.29,9.83-22.76,9.77-34.98c-0.07-13.76-3.93-27.2-9.54-39.68
			c-2.85-6.33-6.26-12.81-11.74-17.27c-5.36-4.35-12.78-6.73-19.51-4.33c-1.27,0.45-2.12,1.71-1.75,3.08
			C460.14,155.85,461.6,156.82,462.88,156.36L462.88,156.36z"/>
	</g>
</g>
<g>
	<path class="st1" d="M454.41,74.73c5.22-7.26,6.05-17.44,2.08-25.46c-1.38-2.79-3.27-5.29-5.15-7.77c-2.43-3.21-4.91-6.47-8.1-8.91
		c-6.64-5.09-15.42-6.05-23.58-7.9c-12.08-2.74-24.08-8.13-31.76-17.85c12.92-4.58,27.14-2.61,40.64-0.2
		c15.72,2.8,31.36,6.13,46.86,9.97c1.67,0.41,3.37,0.85,4.79,1.81c2.41,1.63,3.62,4.5,4.6,7.24c4.04,11.26,6.38,23.58,3.56,35.21
		s-11.7,22.33-23.46,24.56"/>
	<g>
		<path d="M456.57,75.99c4.23-5.99,5.69-13.58,4.47-20.76c-0.64-3.77-2.19-7.3-4.28-10.48c-2.19-3.33-4.67-6.58-7.27-9.59
			c-2.53-2.93-5.49-5.45-8.95-7.2c-3.37-1.7-7-2.8-10.66-3.65c-7.21-1.68-14.42-2.88-21.32-5.66c-7.28-2.94-13.96-7.41-18.88-13.57
			c-0.37,1.39-0.74,2.79-1.1,4.18c10.92-3.8,22.65-2.92,33.88-1.13c12.11,1.93,24.15,4.41,36.11,7.08c5.94,1.33,12,2.52,17.85,4.25
			c2.4,0.71,3.8,2.05,4.91,4.27c1.16,2.33,1.91,4.93,2.66,7.42c3.18,10.51,4.65,22.12,0.87,32.68c-3.29,9.22-10.8,17.25-20.63,19.19
			c-1.33,0.26-2.08,1.84-1.75,3.08c0.38,1.38,1.75,2.01,3.08,1.75c9.86-1.95,17.9-9.4,22.25-18.25c5.25-10.71,5.1-23,2.44-34.41
			c-0.72-3.08-1.62-6.12-2.66-9.11c-0.9-2.58-1.84-5.2-3.54-7.38c-1.93-2.47-4.59-3.64-7.56-4.4c-3.14-0.8-6.29-1.54-9.45-2.28
			c-12.68-2.97-25.45-5.6-38.28-7.87c-13.65-2.42-28.1-4.39-41.52,0.28c-1.9,0.66-2.3,2.68-1.1,4.18
			c8.91,11.16,22.72,16.44,36.3,19.23c6.74,1.39,14.23,2.55,19.72,7.06c2.85,2.34,5.1,5.3,7.31,8.23c2.18,2.89,4.46,5.88,5.69,9.32
			c2.51,7.04,1.41,14.93-2.89,21.03c-0.78,1.1-0.2,2.78,0.9,3.42C454.4,77.62,455.79,77.1,456.57,75.99L456.57,75.99z"/>
	</g>
</g>
<g>
	<path class="st1" d="M64.58,89.91c1.59-1.94,1.03-4.98-0.56-6.91c-1.6-1.93-3.97-3.01-6.26-4.04c-8.24-3.67-16.48-7.35-24.71-11.02
		c-4.04-1.8-8.52-4.1-9.72-8.36c-1.81-6.48,5.02-11.9,7.23-18.25c1.09-3.13,1.03-6.55,1.94-9.73c0.92-3.18,3.35-6.38,6.66-6.44
		c4.66-0.09,6.98,5.48,10.51,8.52c6.69,5.76,18.67,2.56,24.18,9.46c2.02,2.53,2.62,5.87,3.16,9.05c1.48,8.78,2.97,17.56,4.45,26.33"
		/>
	<g>
		<path d="M66.74,91.18c1.85-2.47,1.54-5.98,0.05-8.55c-1.48-2.54-4.1-4.13-6.69-5.33c-6.16-2.85-12.41-5.54-18.61-8.31
			c-3.04-1.36-6.13-2.64-9.12-4.1c-2.06-1.01-4.33-2.19-5.72-4.09c-2.86-3.91,0.44-8.4,2.61-11.77c1.51-2.36,3.01-4.76,3.85-7.45
			c0.95-3.03,0.9-6.26,1.8-9.3c0.53-1.81,1.81-4.22,3.88-4.57c0.8-0.13,1.41,0.05,1.96,0.34c0.89,0.47,1.59,1.18,2.32,1.98
			c1.6,1.75,2.93,3.76,4.71,5.33c1.89,1.66,4.11,2.77,6.51,3.52c4.37,1.37,9.05,1.43,13.37,2.97c2.14,0.76,3.99,2.11,5.12,4.24
			c1.53,2.9,1.78,6.52,2.31,9.71c1.32,7.8,2.64,15.6,3.96,23.41c0.23,1.33,1.87,2.08,3.08,1.75c1.41-0.39,1.97-1.74,1.75-3.08
			c-1.24-7.31-2.47-14.63-3.71-21.94c-1.02-6.02-1.53-12.71-6.81-16.67c-3.9-2.92-8.96-3.36-13.59-4.22
			c-2.21-0.41-4.52-0.89-6.48-1.93c-2.07-1.09-3.49-2.8-4.96-4.6c-1.55-1.89-3.18-3.9-5.44-4.98c-2.65-1.27-5.74-1.11-8.17,0.6
			c-2.43,1.71-4.01,4.41-4.75,7.25c-0.83,3.17-0.76,6.55-1.94,9.63c-1.89,4.9-6.17,8.68-7.23,13.95c-0.56,2.76-0.18,5.65,1.34,8.06
			c1.47,2.33,3.73,4.04,6.11,5.37c3.14,1.75,6.54,3.07,9.82,4.53c3.74,1.67,7.49,3.34,11.23,5.01c3.46,1.54,7.13,2.88,10.41,4.78
			c2,1.16,4.49,3.57,2.71,5.95c-0.81,1.08-0.18,2.79,0.9,3.42C64.6,92.82,65.93,92.26,66.74,91.18L66.74,91.18z"/>
	</g>
</g>
<g>
	<path class="st1" d="M60.99,150.13c-4.99,2.94-7.65,8.63-12.02,12.42c-10.05,8.73-26.58,5.7-36.88,14.13
		c-7.28,5.96-9.48,15.98-11.23,25.22c-0.94,4.95-1.74,10.53,1.21,14.61c2.82,3.88,8.04,4.97,12.77,5.77
		c12.75,2.15,27.69,3.65,36.84-5.48c6.98-6.96,7.99-17.71,11.6-26.88c4.07-10.34,11.62-18.87,19.09-27.09"/>
	<g>
		<path d="M59.72,147.97c-6.16,3.74-8.95,10.98-15.13,14.66c-5.74,3.42-12.66,4.17-19.06,5.64c-6.83,1.57-13.64,4.09-18.22,9.66
			c-4.72,5.74-6.78,13-8.25,20.15c-1.46,7.14-3.57,16.4,2.79,21.89c2.77,2.39,6.27,3.56,9.81,4.27c3.55,0.72,7.16,1.24,10.76,1.65
			c6.97,0.8,14.38,0.98,21.11-1.3c7.03-2.38,12.35-7.41,15.43-14.14c3.14-6.84,4.25-14.39,7.31-21.25
			c3.34-7.48,8.43-13.96,13.81-20.07c1.34-1.52,2.7-3.02,4.06-4.53c2.16-2.38-1.37-5.92-3.54-3.54
			c-5.33,5.87-10.67,11.85-14.89,18.59c-2.11,3.37-3.89,6.94-5.26,10.68c-1.21,3.29-2.12,6.68-3.13,10.04
			c-1.87,6.21-4.24,12.81-9.79,16.67c-5.29,3.68-11.84,4.49-18.13,4.34c-3.37-0.08-6.73-0.42-10.05-0.91
			c-3.32-0.49-6.72-0.94-9.92-1.98c-2.75-0.89-5.4-2.53-6.35-5.41c-1.07-3.26-0.5-6.84,0.12-10.13c1.24-6.66,2.56-13.66,6.22-19.47
			c3.49-5.54,9.03-8.25,15.18-9.85c6.38-1.66,13-2.4,19.11-5c3.02-1.28,5.79-3.03,8.12-5.35c2.47-2.46,4.4-5.39,6.77-7.94
			c1.1-1.18,2.26-2.23,3.64-3.06C64.99,150.62,62.48,146.3,59.72,147.97L59.72,147.97z"/>
	</g>
</g>
<g>
	<path class="st2" d="M480.04,253.34c-5.94,1.81-12.71-2.39-18.39,0.11c-2.99,1.31-4.95,4.23-6.37,7.17
		c-1.64,3.4-2.78,7.05-3.36,10.78"/>
	<g>
		<path d="M479.38,250.93c-3.13,0.89-6.39,0-9.53-0.44c-3.51-0.5-7.11-0.6-10.29,1.23c-2.95,1.69-4.98,4.64-6.43,7.64
			c-1.74,3.61-2.97,7.42-3.61,11.37c-0.22,1.33,0.35,2.69,1.75,3.08c1.19,0.33,2.86-0.41,3.08-1.75c0.57-3.51,1.56-6.97,3.11-10.18
			c1.14-2.37,2.66-5.02,5.18-6.14c2.57-1.14,5.6-0.5,8.25-0.07c3.28,0.53,6.57,1,9.83,0.07
			C483.8,254.87,482.48,250.05,479.38,250.93L479.38,250.93z"/>
	</g>
</g>
<g>
	<path class="st2" d="M476.16,217.08c-3.22-0.77-6.57-0.96-9.85-0.56c1.17,4.17,3.72,8.18,7.65,10.02
		c3.92,1.84,9.27,0.88,11.54-2.81c2.27-3.69-0.14-9.59-4.46-9.86"/>
	<g>
		<path d="M476.82,214.67c-3.45-0.8-7-1.05-10.52-0.65c-1.57,0.18-2.9,1.46-2.41,3.16c1.88,6.53,6.96,12.78,14.29,12.76
			c3.13-0.01,6.43-1.21,8.49-3.63c2.04-2.4,2.69-5.61,1.78-8.63c-1.04-3.45-3.78-6.01-7.42-6.32c-1.35-0.11-2.5,1.23-2.5,2.5
			c0,1.45,1.15,2.39,2.5,2.5c0.47,0.04-0.23-0.11,0.2,0.04c0.09,0.03,0.74,0.27,0.51,0.16c-0.24-0.12,0.27,0.17,0.35,0.22
			c0.09,0.05,0.18,0.12,0.26,0.18c-0.4-0.29-0.01,0,0.07,0.08c0.15,0.15,0.3,0.31,0.44,0.47c0.19,0.21-0.03-0.05-0.05-0.08
			c0.09,0.12,0.17,0.24,0.25,0.36c0.12,0.19,0.21,0.39,0.33,0.57c0.02,0.03,0.18,0.36,0.06,0.1c-0.11-0.25,0.06,0.17,0.08,0.22
			c0.08,0.25,0.16,0.5,0.22,0.75c0.04,0.17,0.12,0.66,0.07,0.22c0.06,0.51,0.07,1.04,0.01,1.56c0.05-0.44-0.02,0.03-0.06,0.21
			c-0.02,0.1-0.24,0.75-0.15,0.54c0.09-0.21-0.16,0.31-0.22,0.4c-0.06,0.11-0.13,0.21-0.19,0.31c-0.39,0.63,0.13-0.12-0.14,0.19
			c-0.65,0.75-1.29,1.21-2.11,1.55c-0.2,0.08-0.95,0.31-1.39,0.4c-0.11,0.02-0.72,0.11-0.34,0.07c-0.34,0.04-0.68,0.05-1.03,0.06
			c-0.26,0-0.51-0.01-0.77-0.03c-0.17-0.01-0.34-0.02-0.51-0.05c0.06,0.01,0.32,0.05,0.03-0.01c-0.59-0.12-1.17-0.26-1.72-0.49
			c-0.27-0.11-0.04-0.02,0.01,0c-0.13-0.06-0.26-0.13-0.39-0.19c-0.25-0.13-0.5-0.27-0.75-0.42c-0.61-0.38-0.83-0.54-1.31-0.99
			c-2.05-1.87-3.29-4.27-4.05-6.92c-0.8,1.05-1.61,2.11-2.41,3.16c3.09-0.35,6.16-0.23,9.19,0.47c1.31,0.3,2.71-0.41,3.08-1.75
			C478.91,216.48,478.14,214.97,476.82,214.67L476.82,214.67z"/>
	</g>
</g>
<g>
	<g>
		<path d="M480.06,210.93c-1.67,0-3.33,0-5,0c-0.64,0-1.31,0.28-1.77,0.73c-0.43,0.43-0.76,1.15-0.73,1.77
			c0.03,0.65,0.24,1.32,0.73,1.77c0.49,0.45,1.09,0.73,1.77,0.73c1.67,0,3.33,0,5,0c0.64,0,1.31-0.28,1.77-0.73
			c0.43-0.43,0.76-1.15,0.73-1.77c-0.03-0.65-0.24-1.32-0.73-1.77C481.34,211.21,480.74,210.93,480.06,210.93L480.06,210.93z"/>
	</g>
</g>
<g>
	<path class="st2" d="M488.95,54.5c-3.59-3.1-2.49-9.64-6.3-12.47c-1.48-1.1-3.41-1.37-5.09-2.11c-3.65-1.6-6.05-5.67-5.7-9.64
		c0.35-3.97,3.44-7.55,7.32-8.48"/>
	<g>
		<path d="M490.71,52.73c-2.1-1.91-2.25-5.28-3.27-7.95c-0.62-1.62-1.45-3.17-2.79-4.32c-1.6-1.37-3.57-1.89-5.52-2.58
			c-2.95-1.04-5.01-4.09-4.81-7.23c0.2-3.08,2.58-5.66,5.5-6.43c3.11-0.81,1.79-5.64-1.33-4.82c-6.77,1.77-11.02,9.34-8.36,15.97
			c1.39,3.45,3.99,5.98,7.48,7.27c1.33,0.49,2.92,0.72,3.94,1.77c0.71,0.73,1.14,1.84,1.46,2.89c0.99,3.18,1.57,6.62,4.15,8.98
			C489.55,58.43,493.1,54.9,490.71,52.73L490.71,52.73z"/>
	</g>
</g>
<g>
	<path class="st2" d="M427.05,22.48c5.84-0.2,11.68-0.15,17.52,0.16c1.14,0.06,2.35,0.16,3.25,0.85c1.41,1.07,1.54,3.26,0.76,4.85
		s-2.22,2.74-3.63,3.83"/>
	<g>
		<path d="M427.05,24.98c5.48-0.18,10.97-0.15,16.45,0.11c0.84,0.04,2.04-0.07,2.78,0.37c0.15,0.09,0.17,0.21,0.21,0.29
			c-0.1-0.2,0.08,0.44,0.05,0.11c0.03,0.23,0.03,0.47,0.01,0.71c-0.04,0.41,0.14-0.38-0.07,0.32c-0.01,0.03-0.14,0.41-0.05,0.2
			c-0.17,0.41-0.44,0.78-0.73,1.12c-0.72,0.84-1.64,1.53-2.51,2.2c-1.07,0.83-0.87,2.66,0,3.54c1.05,1.05,2.47,0.83,3.54,0
			c2.31-1.8,4.44-3.89,4.78-6.95c0.34-3-1.4-5.79-4.39-6.53c-1.51-0.37-3.13-0.35-4.68-0.42c-1.71-0.07-3.42-0.12-5.13-0.15
			c-3.42-0.06-6.84-0.02-10.26,0.09C423.84,20.08,423.83,25.08,427.05,24.98L427.05,24.98z"/>
	</g>
</g>
<g>
	<g>
		<path d="M102.22,75.31c7.5,8.93,15,17.85,22.5,26.78c3.76,4.47,7.51,8.94,11.27,13.41c1.43,1.71,3.07,3.45,3.89,5.56
			c0.95,2.42,0.46,5.14,0.19,7.65c-0.69,6.53-1.38,13.07-2.07,19.6c0.83-0.83,1.67-1.67,2.5-2.5c-11.82,0.84-18.69,11.27-27.96,17.1
			c-2.57,1.61-5.09,2.69-8.13,3.13c-1.34,0.19-2.07,1.89-1.75,3.08c0.4,1.44,1.73,1.94,3.08,1.75c11.26-1.6,17.92-12.04,27.11-17.45
			c2.37-1.39,5-2.41,7.65-2.6c1.46-0.1,2.35-1.07,2.5-2.5c0.63-5.96,1.26-11.92,1.89-17.89c0.31-2.93,0.8-5.9,0.3-8.84
			c-0.45-2.63-1.86-4.89-3.48-6.96c-3.58-4.59-7.48-8.97-11.23-13.43c-3.87-4.61-7.74-9.22-11.62-13.83
			c-4.37-5.2-8.74-10.4-13.1-15.6c-0.87-1.03-2.64-0.9-3.54,0C101.19,72.8,101.35,74.27,102.22,75.31L102.22,75.31z"/>
	</g>
</g>
<g>
	<g>
		<path d="M148.34,117.56c5.39-5.71,11.16-11.78,19.19-13.35c4.38-0.85,8.92-0.65,13.24-1.86c4.24-1.19,7.93-3.74,12.11-5.07
			c8.13-2.58,16.8,0.47,23.86,4.59c7.7,4.49,14.55,10.24,22.4,14.5c0.7,0.38,1.5,0.76,2.03,1.38c0.62,0.72,0.76,1.74,0.89,2.65
			c0.3,1.98,0.5,3.98,0.7,5.97c0.41,4.09,0.65,8.21,0.38,12.32c-0.26,3.84-1.03,7.77-2.72,11.25c-1.73,3.57-4.29,6.51-7.34,9.03
			c-2.99,2.47-6.37,4.45-9.74,6.34c-3.29,1.85-7.16,4.61-11.15,4.11c-3.08-0.39-5.59-2.59-7.7-4.71c-2.57-2.58-4.82-5.47-7.56-7.89
			c-6-5.32-13.54-8.39-21.2-10.44c-8.48-2.27-17.22-3.67-25.84-5.34c-2.42-0.47-4.84-0.94-7.26-1.41c-1.32-0.26-2.7,0.37-3.08,1.75
			c-0.34,1.23,0.41,2.82,1.75,3.08c9.54,1.85,19.15,3.5,28.63,5.65c7.8,1.77,15.92,4.16,22.27,9.25c5.8,4.65,9.74,12.28,17.22,14.57
			c4.5,1.38,8.85-0.17,12.83-2.29c3.76-2.01,7.51-4.09,11-6.55c3.56-2.51,6.79-5.39,9.33-8.95c2.46-3.46,4.04-7.56,4.84-11.71
			c0.85-4.42,0.97-8.95,0.72-13.43c-0.12-2.17-0.33-4.33-0.57-6.49c-0.25-2.2-0.36-4.53-0.92-6.67c-1.24-4.79-6.32-6.34-10.1-8.72
			c-3.97-2.5-7.74-5.31-11.62-7.95c-7.63-5.19-16.28-9.82-25.76-9.83c-4.76-0.01-9,1.46-13.24,3.49c-2.04,0.98-4.07,2.01-6.25,2.65
			c-2.19,0.64-4.45,0.88-6.71,1.09c-4.74,0.43-9.25,1.04-13.54,3.22c-3.82,1.94-7.17,4.77-10.22,7.74c-1.5,1.46-2.94,2.98-4.38,4.5
			C142.59,116.36,146.12,119.9,148.34,117.56L148.34,117.56z"/>
	</g>
</g>
<g>
	<g>
		<path d="M248.42,118.7c14.01-11.6,30.27-20.44,47.59-25.96c3.05-0.97,1.75-5.8-1.33-4.82c-14.09,4.49-27.52,11.06-39.65,19.52
			c-3.49,2.43-6.87,5.02-10.15,7.73c-1.04,0.86-0.89,2.64,0,3.54C245.92,119.73,247.38,119.57,248.42,118.7L248.42,118.7z"/>
	</g>
</g>
<g>
	<g>
		<path d="M294.01,89c3.59,10.21,10.74,18.41,18.44,25.8c1.9,1.83,3.84,3.61,5.78,5.4c1.78,1.64,3.96,3.24,5.35,5.24
			c1.58,2.27,0.77,5.66,0.63,8.23c-0.17,3.21-0.35,6.42-0.52,9.63c-0.15,2.87,0.01,5.99-0.71,8.78c-0.63,2.41-2.56,3.74-4.65,4.86
			c-5.38,2.88-11.05,5.34-16.62,7.82c-2.85,1.27-5.71,2.52-8.59,3.73c-0.72,0.3-2.14,1.15-2.96,0.89c-0.85-0.28-1.42-1.74-1.84-2.42
			c-2.63-4.3-5.98-8.18-9.85-11.39c-8.78-7.3-19.97-11.54-31.43-11.4c-3.22,0.04-3.22,5.04,0,5c10.02-0.12,20.02,3.44,27.75,9.82
			c3.84,3.17,7,6.89,9.59,11.14c1.65,2.71,3.86,4.75,7.26,4.15c1.44-0.25,2.8-0.95,4.15-1.52c1.63-0.69,3.27-1.39,4.89-2.1
			c5.99-2.61,11.93-5.35,17.81-8.21c2.42-1.18,4.98-2.41,6.81-4.44c2.1-2.33,2.79-5.16,3.02-8.22c0.51-6.65,0.79-13.34,1.09-20
			c0.14-3.18-0.54-5.84-2.62-8.29c-1.75-2.06-3.94-3.81-5.93-5.64c-8.73-8.06-17.99-16.66-22.03-28.17
			c-0.45-1.27-1.71-2.12-3.08-1.75C294.52,86.27,293.56,87.72,294.01,89L294.01,89z"/>
	</g>
</g>
<g>
	<g>
		<path d="M329.06,127.18c3.78-0.18,6.6-2.47,8.82-5.37c2.35-3.07,4.23-6.52,6.26-9.81c4.61-7.47,9.22-14.94,13.84-22.4
			c-1.31,0.17-2.62,0.34-3.93,0.51c2.25,2.54,3.71,5.65,5.64,8.42c1.88,2.7,4.13,5.1,6.67,7.18c5.08,4.17,10.91,7.18,16.77,10.09
			c2.87,1.43,5.41-2.88,2.52-4.32c-5.55-2.77-11.28-5.56-16.07-9.57c-2.31-1.93-4.4-4.12-6.07-6.63c-1.95-2.94-3.59-6.06-5.94-8.72
			c-1.1-1.24-3.13-0.79-3.93,0.51c-4.26,6.9-8.53,13.81-12.79,20.71c-1.99,3.23-3.91,6.52-6,9.68c-1.32,1.99-3.17,4.58-5.79,4.71
			C325.85,122.33,325.83,127.33,329.06,127.18L329.06,127.18z"/>
	</g>
</g>
<g>
	<g>
		<path d="M383.24,118.44c0.37,7.1,0.73,14.19,1.1,21.29c0.09,1.65,0.18,3.3,0.26,4.95c0.07,1.4,0.14,2.62-0.77,3.77
			c-0.93,1.17-2.15,2.15-3.23,3.18c-1.33,1.26-2.65,2.53-3.98,3.79c-2.43,2.31-4.81,4.7-7.31,6.92c-1.98,1.76-4.33,3.45-7.1,3.38
			c-0.96-0.02-1.98-0.28-2.73-0.9c-0.88-0.73-1.35-1.95-2-2.86c-1.98-2.79-4.81-3.55-7.97-4.35c-7.65-1.91-15.31-3.82-22.96-5.74
			c-3.12-0.78-4.45,4.04-1.33,4.82c7.25,1.81,14.51,3.63,21.76,5.44c1.52,0.38,3.14,0.64,4.6,1.22c1.32,0.53,1.85,1.55,2.58,2.69
			c1.78,2.81,4.34,4.45,7.69,4.66c6.9,0.43,11.98-5.74,16.5-10.03c2.63-2.51,5.29-4.99,7.89-7.52c1.18-1.15,2.26-2.39,2.87-3.95
			c0.68-1.77,0.54-3.66,0.45-5.51c-0.43-8.42-0.87-16.83-1.3-25.25C388.07,115.24,383.07,115.22,383.24,118.44L383.24,118.44z"/>
	</g>
</g>
<g>
	<g>
		<path d="M389.2,114.57c12.43-12.17,25.74-23.43,39.85-33.61c4.02-2.9,8.1-5.71,12.23-8.44c2.67-1.76,0.17-6.1-2.52-4.32
			c-14.81,9.77-28.9,20.64-42.1,32.5c-3.74,3.36-7.41,6.81-11,10.33C383.36,113.29,386.9,116.83,389.2,114.57L389.2,114.57z"/>
	</g>
</g>
<g>
	<g>
		<path d="M389.37,150.96c16.23,3.79,32.16,8.93,47.51,15.45c1.24,0.53,2.68,0.37,3.42-0.9c0.61-1.05,0.35-2.89-0.9-3.42
			c-15.76-6.69-32.03-12.05-48.7-15.95C387.57,145.41,386.23,150.23,389.37,150.96L389.37,150.96z"/>
	</g>
</g>
<g>
	<g>
		<path d="M196.31,35.94c-4.64,17.73-6.24,36.22-4.65,54.48c0.12,1.35,1.07,2.5,2.5,2.5c1.26,0,2.62-1.15,2.5-2.5
			c-1.56-17.84-0.07-35.83,4.47-53.15C201.95,34.15,197.13,32.82,196.31,35.94L196.31,35.94z"/>
	</g>
</g>
<g>
	<g>
		<path d="M296.65,89.93c5.92-4.65,6.12-13.03,5.95-19.9c-0.24-9.54-0.48-19.09-0.72-28.63c-0.08-3.21-5.08-3.22-5,0
			c0.23,9.05,0.46,18.1,0.68,27.15c0.15,5.97,0.81,13.72-4.45,17.84c-1.06,0.83-0.87,2.66,0,3.54
			C294.16,90.98,295.58,90.76,296.65,89.93L296.65,89.93z"/>
	</g>
</g>
<g>
	<g>
		<path d="M359.83,90.15c7.55-10.09,12.96-21.75,15.81-34.02c0.73-3.13-4.09-4.47-4.82-1.33c-2.77,11.9-7.98,23.05-15.31,32.83
			c-0.81,1.08-0.17,2.79,0.9,3.42C357.69,91.79,359.02,91.23,359.83,90.15L359.83,90.15z"/>
	</g>
</g>
<g>
	<g>
		<path d="M361.56,170.43c0,6.33,0,12.67,0,19c0,3.22,5,3.22,5,0c0-6.33,0-12.67,0-19C366.56,167.21,361.56,167.2,361.56,170.43
			L361.56,170.43z"/>
	</g>
</g>
<g>
	<g>
		<path d="M284.98,174.77c-0.87,5.97-1.75,12.02-3.86,17.7c-1.83,4.92-6.65,10.91-3.04,16.15c0.76,1.11,2.19,1.61,3.42,0.9
			c1.1-0.64,1.67-2.3,0.9-3.42c-1.23-1.79-0.23-4.01,0.61-5.79c1.21-2.57,2.47-5.07,3.38-7.77c1.79-5.32,2.61-10.9,3.41-16.44
			c0.19-1.33-0.33-2.69-1.75-3.08C286.88,172.7,285.18,173.42,284.98,174.77L284.98,174.77z"/>
	</g>
</g>
<g>
	<g>
		<path d="M208.04,172.43c-7.13,7.85-14.26,15.7-21.39,23.55c-2.16,2.38,1.37,5.92,3.54,3.54c7.13-7.85,14.26-15.7,21.39-23.55
			C213.73,173.59,210.21,170.04,208.04,172.43L208.04,172.43z"/>
	</g>
</g>
</svg>
