<?xml version="1.0" encoding="utf-8"?>
<!-- Generator: Adobe Illustrator 28.2.0, SVG Export Plug-In . SVG Version: 6.00 Build 0)  -->
<svg version="1.1" id="Layer_1" xmlns="http://www.w3.org/2000/svg" xmlns:xlink="http://www.w3.org/1999/xlink" x="0px" y="0px"
	 viewBox="0 0 360 236.5" style="enable-background:new 0 0 360 236.5;" xml:space="preserve">
<style type="text/css">
	.st0{fill:#D44700;}
</style>
<g>
	<path class="st0" d="M218.96,43.3c-29.69-9.29-63.22-15.38-90.9-1.18c-25.03,12.83-39.64,39.46-50.24,65.51
		c-8.69,21.34-15.39,46.8-3.31,66.43c6.11,9.93,16.2,16.7,26.5,22.17c26.8,14.24,57.19,21.66,87.53,21.38
		c6.55-0.06,13.19-0.49,19.4-2.57c11.25-3.78,20.02-12.59,27.71-21.63c12.19-14.33,22.95-30.28,28.6-48.23s5.78-38.16-2.55-55.03
		c-10.32-20.9-31.56-33.76-51.71-45.48"/>
	<g>
		<path d="M219.36,41.86c-19.79-6.18-40.75-11-61.61-9.34c-10.08,0.8-20,3.21-29.12,7.64c-8.28,4.02-15.68,9.7-22.05,16.33
			c-13.05,13.58-21.84,30.67-29.04,47.9c-7.42,17.74-14.28,38.12-9.66,57.48c2.28,9.54,7.67,17.8,15.05,24.19
			c7.73,6.7,16.95,11.59,26.19,15.87c19.82,9.17,41.21,14.8,62.98,16.58c5.46,0.45,10.95,0.65,16.43,0.6
			c5.58-0.05,11.22-0.37,16.66-1.72c9.89-2.45,18.16-8.7,25.16-15.89c7.19-7.38,13.69-15.61,19.47-24.12
			c5.84-8.59,10.84-17.77,14.41-27.53c7.06-19.33,8.03-41.68-1.24-60.46c-8.47-17.16-24.33-29.02-40.22-38.86
			c-3.97-2.45-7.99-4.82-12.02-7.16c-1.67-0.97-3.18,1.62-1.51,2.59c15.78,9.18,32.13,18.8,43.71,33.26
			c6.04,7.54,10.26,16.32,12.29,25.76c2.11,9.77,1.95,20.02,0.08,29.82c-3.82,20.03-14.71,37.94-27.42,53.57
			c-6.14,7.55-12.71,15.17-20.92,20.54c-4.14,2.71-8.65,4.71-13.49,5.8c-5.41,1.22-11,1.4-16.53,1.4
			c-21.21,0.01-42.37-3.77-62.3-11.01c-9.75-3.54-19.3-7.88-28.24-13.17c-8.19-4.84-15.99-10.88-20.92-19.17
			c-10.05-16.87-5.88-37.82,0.2-55.3c3.06-8.78,6.74-17.39,10.84-25.73c4.01-8.16,8.57-16.09,13.99-23.41
			c5.28-7.12,11.47-13.7,18.64-18.94c7.68-5.62,16.37-9.6,25.62-11.83c19.67-4.74,40.42-1.81,59.74,3.15
			c4.73,1.22,9.41,2.58,14.07,4.03C220.41,45.33,221.2,42.43,219.36,41.86L219.36,41.86z"/>
	</g>
</g>
<g>
	<g>
		<path d="M268.13,130.66c5.59-5.12,7.54-12.77,8.72-19.98c1.47-8.96,2.05-18.05,1.67-27.12c-0.21-5.2-0.75-10.39-1.55-15.53
			c-0.3-1.9-3.19-1.09-2.89,0.8c1.35,8.62,1.82,17.37,1.43,26.09c-0.35,7.89-1.1,16.17-3.53,23.72c-1.2,3.74-3.04,7.23-5.96,9.9
			C264.59,129.84,266.71,131.96,268.13,130.66L268.13,130.66z"/>
	</g>
</g>
<g>
	<path class="st0" d="M272,66.51c3.74-0.07,7.49,0.84,10.77,2.63c-0.77,1.07-2.2,1.62-3.49,1.35c1.59,0.39,3.03,1.38,3.97,2.72
		c2.2-4.35,0.11-10.32-4.32-12.35c5.24-1.52,11.08,1.59,13.81,6.32s2.75,10.63,1.32,15.89s-4.18,10.06-6.85,14.82
		c-0.81,1.45-1.62,2.91-2.02,4.52c-0.49,1.93-0.37,3.96-0.58,5.94c-0.48,4.51-2.65,8.64-4.79,12.65
		c-3.88,7.29-7.99,14.84-14.7,19.66"/>
	<g>
		<path d="M272,68.01c3.51-0.03,6.91,0.78,10.01,2.42c-0.1-0.79-0.2-1.57-0.3-2.36c-0.51,0.63-1.18,1.09-2.04,0.96
			c-1.86-0.28-2.71,2.37-0.8,2.89c1.23,0.34,2.31,1,3.08,2.03c0.61,0.81,2.05,1.12,2.59,0c2.47-5.15,0.38-11.87-4.86-14.4
			c-0.12,0.91-0.24,1.83-0.36,2.74c5.23-1.42,10.51,2.07,12.69,6.75c2.72,5.84,1.35,12.71-1.08,18.39c-1.31,3.07-2.95,5.99-4.58,8.9
			c-0.8,1.43-1.62,2.85-2.21,4.39c-0.59,1.56-0.78,3.21-0.87,4.87c-0.19,3.38-0.79,6.42-2.18,9.53c-1.27,2.86-2.81,5.61-4.32,8.36
			c-3.23,5.9-6.89,11.86-12.42,15.89c-1.54,1.13-0.05,3.73,1.51,2.59c5.41-3.94,9.23-9.41,12.5-15.17
			c3.31-5.83,7.18-12.07,7.77-18.89c0.16-1.85,0.07-3.72,0.6-5.52c0.52-1.75,1.53-3.33,2.42-4.92c1.77-3.16,3.5-6.34,4.86-9.7
			c2.55-6.25,3.59-13.5,0.75-19.85c-2.72-6.07-9.59-10.31-16.25-8.5c-1.18,0.32-1.55,2.16-0.36,2.74c3.67,1.78,5.59,6.53,3.78,10.3
			c0.86,0,1.73,0,2.59,0c-1.25-1.68-2.84-2.85-4.87-3.41c-0.27,0.96-0.53,1.93-0.8,2.89c1.89,0.29,3.71-0.21,4.95-1.74
			c0.58-0.71,0.62-1.86-0.3-2.36c-3.57-1.89-7.48-2.87-11.53-2.83C270.07,65.03,270.07,68.03,272,68.01L272,68.01z"/>
	</g>
</g>
<g>
	<path class="st0" d="M265.99,147.49c15.96,0.51,32.81,1.29,46.21,9.98c6.82,4.42,12.26,10.61,17.62,16.71
		c10.11,11.54,20.22,23.07,30.34,34.61c-6.28,1.11-12.95-0.18-18.38-3.54c-1.15-0.71-2.28-1.55-2.96-2.73
		c-0.83-1.43-0.89-3.15-1.28-4.75c-0.8-3.26-2.98-6.01-5.44-8.29c-6.07-5.62-13.91-8.86-21.67-11.73
		c-17.69-6.53-35.9-11.68-54.39-15.38"/>
	<g>
		<path d="M265.99,148.99c14.03,0.45,28.94,0.94,41.67,7.57c6.52,3.39,11.84,8.41,16.75,13.79c5.42,5.93,10.63,12.06,15.93,18.1
			c6.25,7.13,12.5,14.26,18.76,21.4c0.22-0.84,0.44-1.67,0.66-2.51c-3.66,0.61-7.42,0.38-10.99-0.63c-1.79-0.51-3.51-1.21-5.13-2.11
			c-1.55-0.86-3.25-1.84-3.87-3.59c-0.6-1.68-0.62-3.49-1.27-5.16c-0.63-1.63-1.52-3.09-2.59-4.46c-2.18-2.77-4.98-5.05-7.91-7
			c-6.28-4.18-13.49-6.78-20.55-9.31c-7.83-2.8-15.75-5.33-23.75-7.59c-9-2.54-18.1-4.72-27.26-6.57c-1.89-0.38-2.69,2.51-0.8,2.89
			c16.53,3.32,32.83,7.78,48.75,13.36c7.25,2.54,14.68,5.09,21.2,9.23c3.03,1.92,6.03,4.24,8.2,7.13c1.09,1.45,1.93,3.07,2.34,4.85
			c0.4,1.73,0.52,3.54,1.5,5.08c2.09,3.3,6.75,5.12,10.34,6.15c4.1,1.17,8.38,1.34,12.58,0.63c1.2-0.2,1.33-1.74,0.66-2.51
			c-11.12-12.68-22.12-25.47-33.37-38.04c-4.99-5.57-10.34-10.95-16.85-14.72c-6.25-3.61-13.25-5.74-20.33-6.96
			c-8.15-1.41-16.42-1.75-24.67-2.01C264.05,145.93,264.06,148.93,265.99,148.99L265.99,148.99z"/>
	</g>
</g>
<g>
	<path class="st0" d="M249.05,180.4c6.02-2.72,12.99,0.13,18.89,3.09c20.07,10.08,39.22,21.99,57.14,35.53
		c-5.67-0.54-11.44-1.1-16.74-3.18c-4.2-1.65-7.97-4.19-11.86-6.48c-17.34-10.23-37.06-15.55-56.51-20.76"/>
	<g>
		<path d="M249.81,181.7c5.04-2.16,10.77-0.05,15.42,2.14c5.04,2.37,9.95,5.04,14.82,7.74c9.83,5.43,19.41,11.31,28.71,17.61
			c5.29,3.58,10.48,7.3,15.57,11.15c0.25-0.93,0.5-1.86,0.76-2.8c-5.98-0.57-12.11-1.17-17.64-3.68c-5.33-2.42-10.13-5.9-15.31-8.62
			c-10.35-5.43-21.42-9.38-32.6-12.73c-6.35-1.9-12.75-3.62-19.15-5.34c-1.87-0.5-2.66,2.39-0.8,2.89
			c11.48,3.08,22.99,6.17,34.14,10.31c5.49,2.04,10.89,4.35,16.1,7.04c5.27,2.72,10.14,6.2,15.5,8.75
			c6.22,2.96,12.99,3.73,19.77,4.38c1.66,0.16,1.79-2.01,0.76-2.8c-9.4-7.09-19.12-13.74-29.14-19.91
			c-5.04-3.11-10.16-6.09-15.35-8.95c-5.06-2.79-10.16-5.61-15.42-7.99c-5.58-2.53-11.74-4.3-17.64-1.77
			C246.52,179.87,248.05,182.45,249.81,181.7L249.81,181.7z"/>
	</g>
</g>
<g>
	<path class="st0" d="M232.95,199.62c8.82,4.75,17.64,9.51,26.45,14.26c10.49,5.66,21.56,11.87,27.21,22.37
		c-10.58-0.27-19.64-7.14-28.59-12.8c-11.23-7.1-23.42-12.68-36.14-16.54"/>
	<g>
		<path d="M232.19,200.92c8.53,4.6,17.06,9.19,25.59,13.79c6.75,3.64,13.66,7.3,19.45,12.4c3.23,2.85,6.02,6.11,8.09,9.9
			c0.43-0.75,0.86-1.5,1.3-2.26c-9.01-0.31-16.8-5.45-24.11-10.2c-7.97-5.17-16.2-9.8-24.96-13.53c-4.98-2.12-10.07-3.98-15.25-5.56
			c-1.85-0.57-2.64,2.33-0.8,2.89c9.34,2.85,18.38,6.61,26.98,11.25c4.17,2.25,8.19,4.73,12.16,7.31c3.78,2.45,7.57,4.93,11.62,6.92
			c4.51,2.21,9.3,3.75,14.36,3.92c1.17,0.04,1.82-1.29,1.3-2.26c-3.77-6.91-9.82-12.1-16.35-16.33
			c-7.39-4.79-15.37-8.72-23.11-12.89c-4.91-2.65-9.83-5.3-14.74-7.95C232,197.41,230.49,200,232.19,200.92L232.19,200.92z"/>
	</g>
</g>
<g>
	<path class="st0" d="M95.85,76.01c-6.99-2.28-14.77-1.01-22.01,0.54c-13.28,2.86-26.31,6.61-38.94,11.22
		C21.66,92.6,8.27,98.81,0.34,109.3c4.56,2.88,10.56-0.66,15.27-3.32c10.21-5.78,22.57-7.68,34.56-9.45
		c9.52-1.41,19.23-2.82,28.78-1.59"/>
	<g>
		<path d="M96.22,74.66c-6.91-2.18-14.24-1.21-21.19,0.21c-7.39,1.51-14.72,3.37-21.96,5.48c-7.03,2.04-14,4.34-20.85,6.92
			c-5.99,2.26-11.92,4.8-17.47,8.03c-5.97,3.47-11.41,7.78-15.62,13.29c-0.46,0.61-0.09,1.57,0.5,1.92
			c4.25,2.52,9.12,0.7,13.14-1.37c2.22-1.14,4.34-2.46,6.6-3.54c2.36-1.13,4.82-2.06,7.31-2.85c5.06-1.62,10.27-2.69,15.5-3.57
			c5.56-0.94,11.15-1.78,16.74-2.46c6.65-0.8,13.36-1.2,20.02-0.37c1.79,0.22,1.77-2.59,0-2.81c-11.26-1.4-22.65,0.61-33.77,2.33
			c-10.11,1.57-20.44,3.55-29.52,8.48c-4.05,2.2-9.9,6.53-14.61,3.74c0.17,0.64,0.34,1.28,0.5,1.92
			c7.43-9.71,19.12-15.29,30.25-19.58c13.16-5.07,26.77-9.05,40.54-12.11c7.54-1.67,15.56-3.34,23.13-0.95
			C97.2,77.91,97.94,75.2,96.22,74.66L96.22,74.66z"/>
	</g>
</g>
<g>
	<path class="st0" d="M76.79,106.17c-11.81-3.77-24.71,1.17-34.99,8.11s-19.18,15.91-30.14,21.71c9.72,3.22,20-2.19,28.71-7.57
		s18.63-11.16,28.56-8.67"/>
	<g>
		<path d="M77.19,104.72c-9.41-2.92-19.35-0.67-28,3.54c-8.89,4.32-16.38,10.88-24.12,16.91c-4.49,3.5-9.13,6.83-14.16,9.52
			c-1.19,0.63-0.82,2.37,0.36,2.74c16.44,5.23,29.73-10.02,43.96-15.08c4.29-1.53,8.83-2.22,13.31-1.15
			c1.88,0.45,2.68-2.44,0.8-2.89c-16.78-4-29.37,11.41-44.18,15.94c-4.31,1.32-8.77,1.67-13.1,0.29c0.12,0.91,0.24,1.83,0.36,2.74
			c16.81-8.97,29.3-25.77,48.54-30.08c5.12-1.15,10.4-1.14,15.43,0.42C78.24,108.19,79.03,105.29,77.19,104.72L77.19,104.72z"/>
	</g>
</g>
<g>
	<path class="st0" d="M68.97,136.63c-5.22-1.48-10.6,1.4-15.19,4.31c-10.71,6.79-20.92,14.36-30.54,22.62
		c7.6,0.38,13.33-6.54,20.22-9.76c6.9-3.23,14.89-2.65,22.47-2.01"/>
	<g>
		<path d="M69.37,135.18c-4.49-1.17-8.91,0.28-12.87,2.4c-4.1,2.2-7.97,4.92-11.79,7.55c-7.81,5.38-15.33,11.18-22.53,17.35
			c-1.04,0.89-0.15,2.52,1.06,2.56c7.35,0.26,12.77-5.28,18.68-8.75c7.33-4.3,15.86-3.71,24.01-3.02c1.92,0.16,1.91-2.84,0-3
			c-8.15-0.69-16.74-1.21-24.22,2.71c-5.92,3.1-11.3,9.32-18.47,9.06c0.35,0.85,0.71,1.71,1.06,2.56
			c6.77-5.81,13.83-11.27,21.16-16.36c3.59-2.49,7.22-4.98,10.98-7.19c3.63-2.14,7.84-4.1,12.13-2.99
			C70.44,138.56,71.24,135.67,69.37,135.18L69.37,135.18z"/>
	</g>
</g>
<g>
	<path class="st0" d="M110.92,52.36c-1.53-14.61-3.05-29.47-0.23-43.88c0.38-1.94,0.91-3.98,2.36-5.31s4.13-1.48,5.19,0.18
		c0.58,0.92,0.52,2.1,0.84,3.14c0.58,1.91,2.6,3.28,4.6,3.11c1.99-0.17,3.75-1.86,4-3.84c2.15,5.13-2.66,10.22-5.71,14.87
		c-5.09,7.75-5.69,17.61-4.87,26.85"/>
	<g>
		<path d="M112.42,52.36c-1.09-10.43-2.19-20.93-1.68-31.43c0.13-2.67,0.35-5.35,0.72-8c0.31-2.23,0.57-4.64,1.39-6.76
			c0.5-1.29,2.13-3.38,3.78-2.34c0.75,0.47,0.7,1.69,0.86,2.47c0.22,1.04,0.67,1.99,1.38,2.78c3.25,3.65,9.42,1.92,10.26-2.92
			c-0.96,0-1.93,0-2.89,0c1.33,3.41-0.67,6.62-2.55,9.39c-2.13,3.13-4.3,6.06-5.72,9.61c-2.82,7.03-3.01,14.88-2.37,22.33
			c0.16,1.91,3.17,1.93,3,0c-0.65-7.57-0.52-15.67,2.76-22.68c2.78-5.94,10.58-12.19,7.77-19.44c-0.47-1.22-2.61-1.62-2.89,0
			c-0.32,1.89-2.12,3.34-4.03,2.51c-2.26-0.98-1.58-3.49-2.67-5.28c-0.99-1.62-2.97-2.18-4.76-1.86c-1.94,0.35-3.43,1.7-4.3,3.43
			c-1.01,2.01-1.34,4.33-1.69,6.53c-0.41,2.59-0.71,5.2-0.9,7.82c-0.38,5.31-0.32,10.64-0.03,15.94c0.33,5.98,0.95,11.94,1.57,17.9
			C109.61,54.26,112.62,54.28,112.42,52.36L112.42,52.36z"/>
	</g>
</g>
<g>
	<g>
		<path d="M159,57c0.26,0.02,0.51,0.04,0.76,0.07c0.12,0.01,0.07,0.01-0.15-0.02c0.07,0.01,0.13,0.02,0.2,0.03
			c0.13,0.02,0.27,0.05,0.4,0.07c0.47,0.09,0.93,0.21,1.39,0.35c0.23,0.07,0.45,0.15,0.68,0.23c0.13,0.05,0.25,0.1,0.38,0.15
			c0.28,0.11-0.28-0.13,0.02,0.01c0.46,0.22,0.92,0.44,1.36,0.7c0.25-0.93,0.5-1.86,0.76-2.8c-1.53,0.06-3.06,0.12-4.59,0.18
			c-1.18,0.05-1.81,1.23-1.3,2.26c0.46,0.92,1.61,1.26,2.56,0.98c1.05-0.3,1.79-1.28,1.64-2.38c-0.15-1.1-1.12-1.82-2.2-1.86
			c-1.05-0.04-1.97,0.6-2.28,1.6c-0.24,0.75,0.28,1.67,1.05,1.85c0.82,0.19,1.59-0.25,1.85-1.05c0.05-0.14,0.02-0.07-0.09,0.21
			c-0.19,0.23-0.24,0.29-0.14,0.18c0.17-0.16-0.33,0.23-0.13,0.11c-0.34,0.21-0.29,0.13-0.13,0.07c0.1-0.04-0.46,0.03-0.15,0.03
			c0.24,0-0.4-0.08-0.18-0.02c0.14,0.04,0.07,0.01-0.21-0.1c0.03,0.01,0.06,0.03,0.09,0.05c-0.07-0.06-0.15-0.11-0.22-0.17
			c0.1,0.1,0.06,0.04-0.13-0.19c0.08,0.13,0.05,0.05-0.08-0.22c0.03,0.1,0.03,0.07,0-0.09c-0.01-0.16-0.02-0.19-0.02-0.09
			c0.06-0.31,0.06-0.39,0.03-0.25c0.13-0.27,0.16-0.35,0.1-0.24c-0.06,0.1-0.01,0.04,0.16-0.2c-0.21,0.24,0.29-0.18,0.09-0.07
			c-0.19,0.11,0.39-0.13,0.16-0.06c-0.26,0.07,0.12,0,0.18-0.01c-0.32,0.04,0.33,0.1,0.14,0.03c-0.22-0.07,0.37,0.18,0.17,0.07
			c0.23,0.19,0.29,0.24,0.19,0.13c0.17,0.24,0.22,0.3,0.15,0.17c-0.43,0.75-0.86,1.5-1.3,2.26c1.53-0.06,3.06-0.12,4.59-0.18
			c0.64-0.02,1.3-0.45,1.45-1.1c0.15-0.65-0.1-1.35-0.69-1.69c-2-1.18-4.25-1.84-6.56-2.01c-0.78-0.05-1.53,0.73-1.5,1.5
			C157.54,56.36,158.16,56.94,159,57L159,57z"/>
	</g>
</g>
<g>
	<g>
		<path d="M228.99,80.02c-0.02,0-0.04-0.01-0.06-0.01c0.13,0.02,0.27,0.04,0.4,0.05c-0.3-0.04-0.58-0.12-0.86-0.23
			c0.12,0.05,0.24,0.1,0.36,0.15c-0.3-0.13-0.57-0.29-0.83-0.48c0.1,0.08,0.2,0.16,0.3,0.23c-0.25-0.2-0.48-0.42-0.67-0.68
			c0.08,0.1,0.16,0.2,0.23,0.3c-0.17-0.22-0.31-0.46-0.42-0.71c0.05,0.12,0.1,0.24,0.15,0.36c-0.02-0.06-0.05-0.12-0.07-0.18
			c-0.48,0.63-0.96,1.27-1.45,1.9c0.63-0.05,1.22-0.26,1.65-0.75c0.43-0.5,0.64-1.06,0.69-1.71c0.1-1.15-0.63-2.28-1.75-2.59
			c0.12,0.91,0.24,1.83,0.36,2.74c0.07-0.05,0.14-0.09,0.22-0.12c-0.12,0.05-0.24,0.1-0.36,0.15c0.11-0.05,0.22-0.08,0.33-0.1
			c-0.13,0.02-0.27,0.04-0.4,0.05c0.15-0.02,0.3-0.02,0.45,0c-0.13-0.02-0.27-0.04-0.4-0.05c0.15,0.02,0.3,0.06,0.44,0.12
			c-0.12-0.05-0.24-0.1-0.36-0.15c0.16,0.07,0.3,0.15,0.44,0.26c-0.1-0.08-0.2-0.16-0.3-0.23c0.12,0.1,0.23,0.2,0.32,0.32
			c-0.08-0.1-0.16-0.2-0.23-0.3c0.07,0.1,0.13,0.19,0.18,0.3c-0.05-0.12-0.1-0.24-0.15-0.36c0.05,0.12,0.09,0.25,0.11,0.38
			c-0.02-0.13-0.04-0.27-0.05-0.4c0.01,0.07,0.01,0.14,0.01,0.2c-0.02,0.78,0.7,1.54,1.5,1.5c0.83-0.04,1.48-0.66,1.5-1.5
			c0.03-1.1-0.65-2.15-1.61-2.68c-0.95-0.52-2.21-0.62-3.14,0.01c-0.51,0.34-0.8,0.87-0.72,1.49c0.08,0.58,0.5,1.09,1.07,1.25
			c0.04,0.01,0.08,0.02,0.12,0.04c-0.12-0.05-0.24-0.1-0.36-0.15c0.06,0.03,0.12,0.06,0.17,0.1c-0.1-0.08-0.2-0.16-0.3-0.23
			c0.06,0.05,0.11,0.1,0.16,0.16c-0.08-0.1-0.16-0.2-0.23-0.3c0.05,0.06,0.08,0.13,0.11,0.2c-0.05-0.12-0.1-0.24-0.15-0.36
			c0.04,0.1,0.07,0.2,0.08,0.31c-0.02-0.13-0.04-0.27-0.05-0.4c0.01,0.12,0.01,0.25,0,0.37c0.02-0.13,0.04-0.27,0.05-0.4
			c-0.02,0.12-0.05,0.24-0.1,0.35c0.05-0.12,0.1-0.24,0.15-0.36c-0.04,0.09-0.08,0.16-0.14,0.24c0.08-0.1,0.16-0.2,0.23-0.3
			c-0.05,0.06-0.1,0.11-0.16,0.16c0.1-0.08,0.2-0.16,0.3-0.23c-0.05,0.04-0.11,0.07-0.16,0.1c0.12-0.05,0.24-0.1,0.36-0.15
			c-0.08,0.03-0.15,0.05-0.23,0.06c0.13-0.02,0.27-0.04,0.4-0.05c-0.01,0-0.03,0-0.04,0c-0.49,0.04-0.87,0.2-1.18,0.59
			c-0.27,0.35-0.43,0.87-0.27,1.31c0.32,0.86,0.82,1.66,1.55,2.23c0.36,0.28,0.71,0.53,1.13,0.71c0.57,0.24,1.07,0.37,1.68,0.44
			c0.35,0.04,0.82-0.2,1.06-0.44c0.26-0.26,0.46-0.69,0.44-1.06c-0.02-0.39-0.14-0.79-0.44-1.06c-0.1-0.08-0.2-0.16-0.3-0.23
			C229.51,80.09,229.26,80.02,228.99,80.02L228.99,80.02z"/>
	</g>
</g>
<g>
	<g>
		<path d="M186.42,42.07c6.27-1.05,12.54,0.84,17.6,4.55c4.75,3.49,8.4,8.3,11.93,12.95c1.15,1.52,3.76,0.02,2.59-1.51
			c-3.95-5.19-7.97-10.44-13.33-14.26c-5.69-4.06-12.68-5.78-19.59-4.62C183.72,39.5,184.53,42.39,186.42,42.07L186.42,42.07z"/>
	</g>
</g>
</svg>
