<?xml version="1.0" encoding="utf-8"?>
<!-- Generator: Adobe Illustrator 28.2.0, SVG Export Plug-In . SVG Version: 6.00 Build 0)  -->
<svg version="1.1" id="Layer_1" xmlns="http://www.w3.org/2000/svg" xmlns:xlink="http://www.w3.org/1999/xlink" x="0px" y="0px"
	 viewBox="0 0 116.55 83.39" style="enable-background:new 0 0 116.55 83.39;" xml:space="preserve">
<style type="text/css">
	.st0{fill:#006837;}
</style>
<g>
	<path class="st0" d="M46.31,80.11c1.17,2.09,4.61,1.58,6-0.37c1.39-1.95,1.3-4.55,1.08-6.93c-0.86-9.33-2.84-18.56-5.88-27.43
		c-3.54-10.32-8.99-20.67-18.34-26.29c-8.53-5.13-18.96-5.57-28.9-6c6.73,0.77,12.06,5.81,16.86,10.59
		c6.58,6.54,13.24,13.19,17.82,21.26c6.03,10.62,8.05,22.97,9.97,35.03"/>
	<g>
		<path d="M45.02,80.87c1.55,2.45,4.85,2.62,7.13,1.07c2.95-2,3.03-5.93,2.75-9.13c-0.75-8.36-2.4-16.65-4.9-24.66
			c-4.15-13.31-10.99-26.98-24.58-32.59c-7.92-3.27-16.7-3.6-25.15-3.97c-1.98-0.09-1.86,2.76,0,3c5,0.64,9.18,3.88,12.76,7.2
			c3.95,3.66,7.75,7.53,11.37,11.51c3.67,4.04,7.06,8.35,9.68,13.15c2.68,4.91,4.51,10.22,5.89,15.63
			c1.54,6.01,2.52,12.14,3.5,18.27c0.3,1.9,3.19,1.09,2.89-0.8c-1.82-11.41-3.73-23.06-9.08-33.45
			C32.1,36.03,23.65,27.64,15.44,19.96c-4.32-4.05-9.16-7.59-15.18-8.36c0,1,0,2,0,3c6.69,0.29,13.48,0.55,19.97,2.36
			c6.2,1.73,11.54,5.06,15.74,9.93c3.96,4.59,6.78,10.14,8.95,15.77c2.56,6.66,4.42,13.62,5.68,20.64
			c0.69,3.89,1.44,7.98,1.41,11.94c-0.01,1.44-0.22,3.29-1.51,4.2c-0.8,0.56-2.29,0.89-2.9-0.08
			C46.58,77.72,43.98,79.23,45.02,80.87L45.02,80.87z"/>
	</g>
</g>
<g>
	<path class="st0" d="M53.56,68.27c0.75-12.98,2.5-26.28,8.81-37.65s18.06-20.5,31.06-20.37c-5.23,0.19-9.05,4.87-11.86,9.28
		C72.38,34,66.13,50.24,62.28,66.96c-0.58,2.51-1.12,5.08-2.42,7.3c-1.3,2.22-3.53,4.08-6.1,4.21"/>
	<g>
		<path d="M55.06,68.27C56.21,48.7,60.36,26.12,79,15.64c4.42-2.49,9.35-3.91,14.43-3.89c0-1,0-2,0-3
			c-4.93,0.28-8.55,3.64-11.36,7.41c-3.28,4.4-5.93,9.38-8.39,14.28c-5.12,10.18-9.02,20.96-11.84,31.99
			c-0.77,3.02-1.26,6.18-2.35,9.11c-0.93,2.5-2.83,5.2-5.73,5.43c-1.91,0.16-1.93,3.16,0,3c5.51-0.45,8.21-5.49,9.42-10.31
			c1.4-5.55,2.7-11.09,4.46-16.55c3.51-10.87,8.18-21.38,14.16-31.12c2.6-4.24,6.07-9.93,11.63-10.25c1.91-0.11,1.95-3,0-3
			c-9.86-0.03-19.01,4.91-25.67,11.98c-7.35,7.8-11.38,17.98-13.46,28.36c-1.26,6.32-1.87,12.76-2.24,19.18
			C51.95,70.19,54.95,70.19,55.06,68.27L55.06,68.27z"/>
	</g>
</g>
<g>
	<path class="st0" d="M61.98,67.19c11.66-21.33,30.04-39.72,53.05-47.57c-13.08,12.52-24.48,26.79-33.82,42.31
		c-2.23,3.7-4.38,7.53-7.53,10.49c-3.15,2.96-7.53,4.96-11.77,4.11c-1.04-0.21-2.25-1.45-1.4-2.09"/>
	<g>
		<path d="M63.28,67.94c8.95-16.32,21.7-30.89,37.88-40.32c4.54-2.65,9.31-4.85,14.27-6.56c-0.49-0.84-0.97-1.67-1.46-2.51
			c-7.7,7.39-14.81,15.36-21.29,23.84c-3.2,4.19-6.24,8.5-9.11,12.92c-2.85,4.39-5.24,9.19-8.48,13.31c-1.74,2.22-3.8,4.15-6.34,5.4
			c-1.2,0.59-2.52,1.01-3.85,1.14c-0.66,0.07-1.33,0.07-1.99,0c-0.23-0.03-0.48-0.04-0.7-0.12c-0.14-0.03-0.27-0.09-0.38-0.19
			c-0.29-0.38-0.38-0.17-0.25,0.63c1.34-1.39-0.78-3.52-2.12-2.12c-1.99,2.07,0.54,4.38,2.66,4.7c2.69,0.4,5.34-0.15,7.79-1.27
			c5.28-2.43,8.6-7.44,11.49-12.26c6.13-10.2,12.9-19.92,20.64-28.98c4.43-5.19,9.13-10.16,14.06-14.88c1.05-1-0.02-3-1.46-2.51
			c-18.37,6.32-33.74,19.07-45.2,34.56c-3.23,4.36-6.14,8.95-8.74,13.7C59.76,68.12,62.35,69.64,63.28,67.94L63.28,67.94z"/>
	</g>
</g>
<g>
	<path class="st0" d="M48.06,45.84c0.4-11.03-1.61-22.14-5.84-32.33c-1.66-3.99-3.7-7.91-6.7-11.02c2.96-0.75,6.41,0.11,8.25,2.55
		c0.89,1.17,1.35,2.59,1.8,3.99c3.74,11.68,7.13,23.47,10.16,35.36"/>
	<g>
		<path d="M49.56,45.84c0.27-8.02-0.68-16.09-2.82-23.82C44.72,14.73,41.85,7,36.58,1.43c-0.22,0.84-0.44,1.67-0.66,2.51
			c3.37-0.78,6.44,0.72,7.69,3.96c1.48,3.83,2.53,7.89,3.72,11.83c2.5,8.3,4.81,16.65,6.96,25.05c0.48,1.87,3.37,1.08,2.89-0.8
			c-2.39-9.35-4.99-18.64-7.81-27.87c-0.72-2.35-1.45-4.69-2.2-7.02c-0.57-1.79-1.15-3.62-2.34-5.12c-2.3-2.88-6.24-3.73-9.71-2.93
			c-1.14,0.26-1.41,1.72-0.66,2.51c5.01,5.3,7.63,12.79,9.51,19.71c2,7.36,2.85,14.96,2.59,22.58
			C46.49,47.77,49.49,47.76,49.56,45.84L49.56,45.84z"/>
	</g>
</g>
<g>
	<path class="st0" d="M68.98,45.61c6.16-9.33,13.62-17.81,22.08-25.13c-2.47,5.92-4.94,11.85-7.41,17.77"/>
	<g>
		<path d="M70.28,46.36c6.12-9.23,13.48-17.57,21.84-24.83c-0.84-0.49-1.67-0.97-2.51-1.46C87.14,26,84.67,31.93,82.2,37.85
			c-0.31,0.75,0.34,1.64,1.05,1.85c0.86,0.25,1.53-0.3,1.85-1.05c2.47-5.92,4.94-11.85,7.41-17.77c0.63-1.51-1.51-2.33-2.51-1.46
			c-8.55,7.42-16.05,15.99-22.31,25.43C66.62,46.46,69.21,47.97,70.28,46.36L70.28,46.36z"/>
	</g>
</g>
<g>
	<path class="st0" d="M48.29,41.84c0.35,5.01,2.11,9.9,5.03,13.99c3.06-4.54,4.95-9.87,5.43-15.32"/>
	<g>
		<path d="M46.79,41.84c0.4,5.29,2.17,10.41,5.24,14.74c0.67,0.94,1.93,0.98,2.59,0c3.21-4.8,5.1-10.34,5.64-16.08
			c0.07-0.81-0.74-1.5-1.5-1.5c-0.87,0-1.42,0.69-1.5,1.5c-0.48,5.21-2.32,10.22-5.23,14.57c0.86,0,1.73,0,2.59,0
			c-2.76-3.9-4.47-8.46-4.83-13.23c-0.06-0.81-0.65-1.5-1.5-1.5C47.52,40.34,46.73,41.03,46.79,41.84L46.79,41.84z"/>
	</g>
</g>
<g>
	<path d="M74.29,43.22c-1.5,2.19-3.01,4.39-4.51,6.58c-0.35,0.5-0.7,1.14-0.44,1.69c0.27,0.55,1.4,0.27,1.13-0.28"/>
	<g>
		<path class="st0" d="M73,42.46c-1.54,2.25-3.16,4.46-4.63,6.75c-0.39,0.6-0.67,1.31-0.61,2.04c0.07,0.9,0.6,1.68,1.49,1.95
			c0.6,0.18,1.31,0.1,1.84-0.24c0.69-0.43,1.14-1.34,0.82-2.14c-0.28-0.73-1.02-1.32-1.85-1.05c-0.71,0.23-1.35,1.06-1.05,1.85
			c0.1,0.26,0.14-0.82,0.15-0.84c0.11-0.22,0.27-0.29,0.46-0.41c0.22-0.15-0.1,0.01,0.16-0.05c0.15-0.02,0.16-0.02,0.04-0.02
			c0.08,0.01,0.16,0.02,0.25,0.03c0.4,0.11,0.56,0.46,0.67,0.81c0-0.15,0-0.17,0-0.05c-0.01,0.1-0.01,0.1,0.01,0.01
			c0.04-0.19-0.11,0.16,0-0.01c0.5-0.79,1.03-1.56,1.56-2.33c1.09-1.59,2.18-3.18,3.27-4.77c0.45-0.65,0.14-1.69-0.54-2.05
			C74.29,41.52,73.47,41.77,73,42.46L73,42.46z"/>
	</g>
</g>
<g>
	<g>
		<path class="st0" d="M79.32,39.11c-5.28,2.8-9.7,7.14-12.61,12.36c-0.94,1.69,1.65,3.2,2.59,1.51c2.68-4.8,6.68-8.71,11.53-11.28
			c0.72-0.38,0.94-1.37,0.54-2.05C80.95,38.93,80.03,38.73,79.32,39.11L79.32,39.11z"/>
	</g>
</g>
</svg>
