<?xml version="1.0" encoding="utf-8"?>
<!-- Generator: Adobe Illustrator 28.2.0, SVG Export Plug-In . SVG Version: 6.00 Build 0)  -->
<svg version="1.1" id="Layer_1" xmlns="http://www.w3.org/2000/svg" xmlns:xlink="http://www.w3.org/1999/xlink" x="0px" y="0px"
	 viewBox="0 0 102.12 101.42" style="enable-background:new 0 0 102.12 101.42;" xml:space="preserve">
<g>
	<g>
		<path d="M88.54,10.52C71.8,6.52,55.03,2.55,37.96,0.29c-4.24-0.56-8.49-1.01-12.76-1.32c-2.17-0.16-4.35-0.28-6.53-0.37
			c-1.98-0.08-4-0.23-5.97-0.01C9.1-1,6.74,1.06,5.38,4.35c-1.3,3.14-2.17,6.63-2.61,9.99c-0.45,3.42-0.25,7.07,1.62,10.07
			c1.85,2.98,4.94,4.72,8.08,6.07c7.12,3.05,14.64,5,22.31,6.04c15.67,2.12,31.59,0.54,47.05-2.41c6.26-1.19,15.23-1.98,18.43-8.48
			c3.01-6.13-0.2-13.54-6.88-15.26c-1.62-0.42-3.25-0.42-4.88-0.12c-1.89,0.36-1.09,3.25,0.8,2.89c6.26-1.18,11.17,5.48,8.3,11.13
			c-1.4,2.74-4.29,4.07-7.11,4.89c-3.23,0.93-6.59,1.51-9.89,2.14c-13.98,2.64-28.35,4.09-42.56,2.61
			c-6.99-0.73-13.92-2.24-20.52-4.64c-2.99-1.09-6.31-2.23-8.75-4.35c-2.44-2.1-3.28-5.08-3.19-8.21c0.1-3.17,0.98-6.31,1.91-9.32
			c0.42-1.35,0.88-2.77,1.76-3.91c1-1.31,2.47-1.83,4.07-1.94c3.76-0.26,7.66,0.13,11.42,0.39c3.86,0.27,7.72,0.66,11.56,1.14
			c17.38,2.17,34.45,6.27,51.46,10.33C89.62,13.86,90.42,10.97,88.54,10.52L88.54,10.52z"/>
	</g>
</g>
<g>
	<g>
		<path d="M98.55,22.08C100.2,35.87,99.3,50.09,95,63.34c-4.19,12.9-12.15,25.79-23.91,33.07c-3.52,2.18-7.33,3.46-11.49,3.5
			c-4.45,0.05-8.93-0.74-13.33-1.3c-8.44-1.07-17.04-1.97-25.33-3.93c-6.5-1.54-13.73-4.2-17.61-10.02
			c-2.05-3.08-2.68-6.76,0.25-9.47c1.29-1.2,2.82-2.11,4.19-3.2c1.36-1.07,2.51-2.35,3.49-3.77c1.94-2.84,3-6.29,3.07-9.72
			c0.08-3.86-1.49-7.14-2.76-10.69c-0.59-1.64-1.18-3.48-0.84-5.24c0.35-1.79,1.84-3.06,2.28-4.82c1-3.97-2.57-6.38-4.58-9.18
			c-0.77-1.08-1.85-2.99-0.76-4.19c1.3-1.42-0.82-3.55-2.12-2.12c-2.68,2.93-0.73,6.91,1.58,9.4c1.15,1.24,2.9,2.77,3.04,4.59
			c0.07,0.9-0.44,1.64-0.9,2.37C8.71,39.5,8.2,40.39,7.92,41.4c-1.08,3.94,1.06,7.79,2.36,11.39c1.28,3.53,1.38,7.15,0.07,10.7
			c-0.6,1.64-1.53,3.2-2.69,4.51c-1.26,1.41-2.8,2.43-4.31,3.55c-3.03,2.25-5.25,5.09-4.76,9.06c0.93,7.54,8.51,12.51,15.01,15
			c7.73,2.97,16.27,3.83,24.42,4.94c4.7,0.64,9.41,1.23,14.12,1.81c4.47,0.55,9.04,0.98,13.45-0.21c7.4-2,13.71-7.63,18.63-13.29
			c4.73-5.44,8.47-11.65,11.27-18.29c5.7-13.51,7.6-28.52,6.57-43.09c-0.13-1.8-0.3-3.59-0.52-5.38
			C101.32,20.19,98.31,20.16,98.55,22.08L98.55,22.08z"/>
	</g>
</g>
</svg>
