<?xml version="1.0" encoding="utf-8"?>
<!-- Generator: Adobe Illustrator 28.2.0, SVG Export Plug-In . SVG Version: 6.00 Build 0)  -->
<svg version="1.1" id="Layer_1" xmlns="http://www.w3.org/2000/svg" xmlns:xlink="http://www.w3.org/1999/xlink" x="0px" y="0px"
	 viewBox="0 0 186.34 47.32" style="enable-background:new 0 0 186.34 47.32;" xml:space="preserve">
<style type="text/css">
	.st0{fill:#94C1FF;}
</style>
<g>
	<path class="st0" d="M181.13,10.33c-26.99-6.05-55.06-4.06-82.65-2.03c-12.86,0.94-25.76,1.89-38.39,4.48
		c-6.18,1.26-12.45,2.92-18.7,2.08C29.21,13.23,19.12,2.36,6.85,3.04c-0.27,5.43,5.81,8.64,9.01,13.04c5.57,7.65,0,20.46-9.4,21.59
		c8.43,2.93,18.18,1.75,25.67-3.1c1.97-1.28,3.82-2.8,6.01-3.67c2.25-0.89,4.74-1.02,7.16-0.88c12.62,0.73,23.69,8.22,35.61,12.44
		c15.84,5.6,33.1,5.36,49.85,4.16c11.85-0.85,23.98-2.23,34.56-7.64s19.42-15.67,19.96-27.54c-0.99-1.29-2.69-1.98-4.29-1.75"/>
	<g>
		<path d="M181.53,8.89c-23.96-5.33-48.66-4.48-72.98-2.81c-12.27,0.84-24.59,1.6-36.79,3.24c-6.15,0.83-12.18,2.12-18.27,3.3
			c-5.66,1.09-11.21,1.42-16.75-0.39C26.68,8.94,17.95,1.03,6.85,1.54c-0.83,0.04-1.48,0.66-1.5,1.5C5.17,9.69,12,12.58,15.06,17.57
			c2.69,4.39,1.6,10.26-1.44,14.19c-1.74,2.26-4.29,4.02-7.16,4.41c-1.62,0.22-2.1,2.37-0.4,2.95c6.27,2.13,13.21,2.17,19.53,0.17
			c3.12-0.99,5.99-2.49,8.68-4.35c1.36-0.94,2.73-1.95,4.27-2.58c1.85-0.76,3.87-0.91,5.85-0.86c6.83,0.18,13.41,2.63,19.6,5.34
			c6.47,2.84,12.81,6.03,19.59,8.09c14.34,4.36,29.59,4.35,44.41,3.39c14.04-0.9,29.12-2.19,41.33-9.88
			c5.66-3.57,10.65-8.46,13.85-14.37c1.57-2.89,2.73-6.04,3.26-9.29c0.28-1.73,0.82-3.62-0.58-4.94c-1.29-1.22-3.09-1.81-4.85-1.64
			c-1.9,0.19-1.92,3.19,0,3c1.33-0.13,2.37,0.28,3.23,1.31c-0.15-0.35-0.29-0.71-0.44-1.06c-0.61,11.45-9.11,20.96-18.89,26.07
			c-12.09,6.32-26.32,7.23-39.68,7.96c-13.97,0.77-28.27,0.55-41.72-3.73c-12.33-3.92-23.4-11.71-36.5-13.09
			c-3.66-0.39-7.4-0.25-10.73,1.46c-3.19,1.63-5.84,4.04-9.18,5.44c-6.4,2.67-13.65,2.89-20.21,0.66c-0.13,0.98-0.27,1.96-0.4,2.95
			c6.03-0.81,10.6-5.39,12.37-11.1c0.85-2.73,1.01-5.72,0.3-8.49c-0.8-3.13-2.82-5.53-5.07-7.75c-2.44-2.41-5.82-5.02-5.72-8.79
			c-0.5,0.5-1,1-1.5,1.5c9.62-0.44,17.78,6.05,26.29,9.54c4.98,2.04,10.1,2.87,15.47,2.31c6.11-0.64,12.08-2.32,18.14-3.31
			c12.24-2.01,24.65-2.77,37-3.66c12.07-0.87,24.17-1.63,36.28-1.63c13.66,0,27.34,1.02,40.7,3.99
			C182.61,12.2,183.42,9.31,181.53,8.89L181.53,8.89z"/>
	</g>
</g>
<g>
	<g>
		<path d="M168.16,14.57c-1.04-0.05-2.09-0.1-3.13-0.15c0.48,0.63,0.96,1.27,1.45,1.9c0.03-0.13,0.07-0.26,0.12-0.38
			c-0.05,0.12-0.1,0.24-0.15,0.36c0.08-0.19,0.19-0.37,0.31-0.53c-0.08,0.1-0.16,0.2-0.23,0.3c0.13-0.16,0.28-0.31,0.44-0.44
			c-0.1,0.08-0.2,0.16-0.3,0.23c0.19-0.15,0.4-0.27,0.62-0.36c-0.12,0.05-0.24,0.1-0.36,0.15c0.24-0.1,0.48-0.17,0.73-0.2
			c-0.13,0.02-0.27,0.04-0.4,0.05c0.22-0.03,0.44-0.03,0.66,0c-0.13-0.02-0.27-0.04-0.4-0.05c0.19,0.03,0.37,0.08,0.55,0.15
			c-0.12-0.05-0.24-0.1-0.36-0.15c0.08,0.04,0.16,0.08,0.24,0.12c0.34,0.2,0.78,0.25,1.16,0.15c0.35-0.1,0.73-0.36,0.9-0.69
			c0.38-0.72,0.19-1.63-0.54-2.05c-0.56-0.33-1.21-0.5-1.86-0.51c-0.66-0.01-1.27,0.17-1.87,0.43c-1.04,0.47-1.92,1.47-2.16,2.6
			c-0.1,0.48-0.03,0.92,0.27,1.31c0.3,0.38,0.7,0.57,1.18,0.59c1.04,0.05,2.09,0.1,3.13,0.15c0.78,0.04,1.54-0.72,1.5-1.5
			C169.62,15.23,169,14.61,168.16,14.57L168.16,14.57z"/>
	</g>
</g>
<g>
	<g>
		<path d="M177.12,29.77c-4.42,0.25-8.96,0.55-13.32-0.41c-4.12-0.91-7.72-3-10.5-6.18c-1.28-1.45-3.39,0.68-2.12,2.12
			c3,3.41,6.99,5.8,11.4,6.85c4.76,1.14,9.7,0.9,14.55,0.62C179.04,32.66,179.05,29.66,177.12,29.77L177.12,29.77z"/>
	</g>
</g>
</svg>
