<?xml version="1.0" encoding="utf-8"?>
<!-- Generator: Adobe Illustrator 28.2.0, SVG Export Plug-In . SVG Version: 6.00 Build 0)  -->
<svg version="1.1" id="Layer_1" xmlns="http://www.w3.org/2000/svg" xmlns:xlink="http://www.w3.org/1999/xlink" x="0px" y="0px"
	 viewBox="0 0 189.79 77.92" style="enable-background:new 0 0 189.79 77.92;" xml:space="preserve">
<style type="text/css">
	.st0{fill:none;stroke:#000000;stroke-miterlimit:10;}
</style>
<g>
	<g>
		<path d="M132.05,24.15c11.36-0.14,22.73-0.29,34.09-0.43c-0.25-0.93-0.5-1.86-0.76-2.8c-21.43,9.87-45.56,10.52-68.73,10.49
			c-12.74-0.02-25.49-0.12-38.23-0.18c-6.33-0.03-12.7-0.28-19.03-0.01c-3.01,0.13-6.03,0.5-8.9,1.43c-2.51,0.82-4.9,1.96-7.27,3.12
			c-2.67,1.31-5.33,2.68-8.18,3.57c-1.3,0.4-2.71,0.81-4.07,0.82c-0.61,0-2.22-0.1-2.42-0.89c-0.23-0.88,2.17-2.35,2.67-2.76
			c1.4-1.14,2.8-2.27,4.2-3.41c2.86-2.32,5.73-4.65,8.59-6.97c0.88-0.71,0.36-2.26-0.66-2.51c-6.87-1.63-13.54-3.95-19.93-6.96
			c-0.12,0.91-0.24,1.83-0.36,2.74c7.79-3.17,16.28-2.62,24.41-1.26c8.67,1.45,17.26,3.35,25.94,4.75
			c17.46,2.81,35.19,4.53,52.88,3.55c9.94-0.55,19.84-1.97,29.48-4.45c1.87-0.48,1.08-3.37-0.8-2.89
			c-17.22,4.43-35.1,5.29-52.79,4.15c-8.9-0.58-17.76-1.65-26.57-3.03c-8.64-1.36-17.19-3.17-25.81-4.7
			c-9.11-1.62-18.78-2.59-27.56,0.99c-1.05,0.43-1.66,2.13-0.36,2.74c6.62,3.13,13.52,5.57,20.64,7.26
			c-0.22-0.84-0.44-1.67-0.66-2.51c-2.67,2.17-5.34,4.34-8.02,6.5c-1.27,1.03-2.55,2.06-3.82,3.1c-1.21,0.98-2.61,1.89-3.58,3.12
			c-1.52,1.92-1.05,4.43,1.09,5.63c2.12,1.19,4.68,0.8,6.92,0.25c5.56-1.37,10.33-4.7,15.66-6.67c6.04-2.23,12.55-1.79,18.88-1.76
			c13.69,0.07,27.38,0.14,41.07,0.2c12.4,0.06,24.83,0.12,37.19-1.04c13.63-1.27,27.13-4.08,39.62-9.83
			c1.39-0.64,0.65-2.81-0.76-2.8c-11.36,0.14-22.73,0.29-34.09,0.43C130.12,21.17,130.12,24.17,132.05,24.15L132.05,24.15z"/>
	</g>
</g>
<g>
	<g>
		<path d="M131.41,26.58c1.93,0,1.93-3,0-3C129.48,23.58,129.48,26.58,131.41,26.58L131.41,26.58z"/>
	</g>
</g>
<path class="st0" d="M153.97,22.74c10.77-5.71,20.87-12.68,30.04-20.71"/>
<path class="st0" d="M189.79,16.18c-7.87,4.69-17.18,6.92-26.33,6.31C173.47,21.47,181.82,22.33,189.79,16.18z"/>
<path class="st0" d="M159.34,22.38c3.46-7.46,6.91-14.92,10.37-22.38"/>
<path class="st0" d="M164.29,23.41c6.28-4.75,12.88-9.09,19.74-12.97"/>
<path class="st0" d="M126.33,33.52c2.4-1.14,4.66,1.61,6.86,3.11c2.68,1.83,6.26,1.92,8.93,3.77c3.42,2.38,4.4,6.92,5.12,11.02
	c1.22,7.04,2.45,14.09,3.67,21.13"/>
<path class="st0" d="M105.84,35.52c1.95-0.94,4.37-0.36,6.08,0.97c1.71,1.32,2.82,3.27,3.71,5.23c4,8.83,4.39,18.91,7.97,27.92
	c1.25,3.14,2.96,6.23,5.64,8.29"/>
<path class="st0" d="M70.8,34.49c5.37,4.11,9.28,10.09,10.89,16.66c2.05,8.39,0.39,17.22,1.06,25.84"/>
<path class="st0" d="M47.74,31.95c6.25,12.97,9.2,27.52,8.5,41.9"/>
<path class="st0" d="M33.28,33.35c-6.29,6.52-10.13,15.35-10.6,24.39"/>
<path class="st0" d="M65.18,34.88c-2.44,5.67-4.21,11.62-5.27,17.7"/>
<path class="st0" d="M89.44,35.29c0.97,7.29,0.01,14.83-2.75,21.64"/>
<path class="st0" d="M106.44,59.22c1.19-4.89,4.05-9.19,6.85-13.37c2.29-3.42,4.58-6.83,6.88-10.25c0.43-0.64,0.44-0.97,0.84-1.63"
	/>
</svg>
