<?xml version="1.0" encoding="utf-8"?>
<!-- Generator: Adobe Illustrator 28.2.0, SVG Export Plug-In . SVG Version: 6.00 Build 0)  -->
<svg version="1.1" id="Layer_1" xmlns="http://www.w3.org/2000/svg" xmlns:xlink="http://www.w3.org/1999/xlink" x="0px" y="0px"
	 viewBox="0 0 100.83 83.33" style="enable-background:new 0 0 100.83 83.33;" xml:space="preserve">
<style type="text/css">
	.st0{fill:#A67C52;}
</style>
<g>
	<path class="st0" d="M6.36,18.89c6.92-0.19,12.72-4.97,18.92-8.05c9.44-4.69,20.27-5.55,30.8-5.99c7.2-0.3,14.87-0.33,21.03,3.4
		c6.81,4.13,10.32,11.93,13.43,19.27c4.07,9.59,8.21,19.54,7.95,29.95c-1.9,1.78-3.8-1.99-5.17-4.19c-2.74-4.39-9.29-3.24-14.28-1.9
		c-12.72,3.4-26.07,4.45-39.16,3.05c16.72,1.31,33.44,2.63,50.15,3.94C87.06,68.88,74.84,73.3,64.2,75.8
		C42.76,80.82,18.71,83.95,0,72.35"/>
	<g>
		<path d="M6.36,20.39c8.29-0.34,14.59-6.2,21.92-9.29c7.99-3.37,16.77-4.22,25.35-4.64c7.91-0.39,16.82-1.02,23.68,3.7
			c6.09,4.19,9.16,11.56,11.94,18.12c3.94,9.28,7.94,18.93,7.74,29.2c0.15-0.35,0.29-0.71,0.44-1.06c0,0,0.1,0.15-0.03-0.02
			c-0.15-0.2-0.46-0.38-0.64-0.58c-0.58-0.66-1.03-1.44-1.49-2.18c-0.85-1.4-1.7-2.67-3.11-3.56c-2.81-1.77-6.44-1.54-9.58-1.02
			c-4.14,0.69-8.17,2.01-12.31,2.77c-4.71,0.86-9.47,1.4-14.25,1.61c-5.39,0.24-10.79,0.07-16.16-0.49c0,1,0,2,0,3
			c16.72,1.31,33.44,2.63,50.15,3.94c-0.48-0.63-0.96-1.27-1.45-1.9C85.32,69.12,71.73,72.56,61.8,74.81
			c-13.11,2.97-26.82,5.16-40.27,3.39c-7.34-0.97-14.45-3.27-20.77-7.15c-1.65-1.01-3.16,1.58-1.51,2.59
			c12.12,7.44,26.6,8.97,40.52,7.8c7.14-0.6,14.22-1.84,21.22-3.38c6.03-1.33,12.08-2.83,17.65-5.56
			c5.84-2.86,10.96-7.32,12.84-13.74c0.29-1-0.5-1.82-1.45-1.9c-16.72-1.31-33.44-2.63-50.15-3.94c-1.94-0.15-1.89,2.8,0,3
			c7.42,0.77,14.91,0.8,22.33,0.04c3.6-0.37,7.19-0.91,10.75-1.62c3.17-0.64,6.26-1.59,9.42-2.22c2.34-0.47,5.02-0.83,7.31,0.04
			c2.35,0.89,3.11,3.44,4.56,5.27c0.66,0.83,1.47,1.64,2.54,1.91c1.15,0.29,2.76-0.27,3.15-1.48c0.25-0.78,0.07-1.88,0.04-2.69
			c-0.03-0.76-0.07-1.52-0.14-2.27c-0.16-1.8-0.43-3.59-0.78-5.35c-1.38-6.92-4.12-13.48-6.85-19.95
			c-2.34-5.54-4.74-11.17-8.68-15.79c-4.06-4.76-9.57-7.35-15.72-8.18c-6.49-0.87-13.25-0.36-19.76,0.18
			c-7.65,0.63-15.3,1.94-22.32,5.15c-6.32,2.9-12.13,8.13-19.37,8.42C4.43,17.47,4.42,20.47,6.36,20.39L6.36,20.39z"/>
	</g>
</g>
<g>
	<g>
		<path d="M60.62,14.72c-0.01,0.23,0.03,0.47,0.08,0.7c0.01,0.05,0.03,0.11,0.05,0.16c0.06,0.16,0.13,0.33,0.21,0.48
			c0.03,0.05,0.05,0.09,0.09,0.13c0.1,0.14,0.2,0.28,0.32,0.41c0.15,0.17,0.35,0.3,0.52,0.43c0.09,0.06,0.18,0.11,0.28,0.15
			c0.2,0.09,0.42,0.2,0.64,0.23c0.21,0.04,0.46,0.09,0.69,0.07c0.23-0.02,0.48-0.04,0.7-0.13c-0.49-0.84-0.97-1.67-1.46-2.51
			c-0.01,0.01-0.02,0.02-0.03,0.03c0.1-0.08,0.2-0.16,0.3-0.23c-0.02,0.02-0.04,0.03-0.06,0.04c0.12-0.05,0.24-0.1,0.36-0.15
			c-0.03,0.01-0.06,0.02-0.09,0.02c0.13-0.02,0.27-0.04,0.4-0.05c-0.03,0-0.06,0-0.09,0c0.13,0.02,0.27,0.04,0.4,0.05
			c-0.04-0.01-0.07-0.02-0.11-0.03c0.12,0.05,0.24,0.1,0.36,0.15c-0.04-0.02-0.08-0.04-0.12-0.07c0.1,0.08,0.2,0.16,0.3,0.23
			c-0.03-0.02-0.06-0.05-0.08-0.08c0.08,0.1,0.16,0.2,0.23,0.3c-0.02-0.03-0.03-0.05-0.05-0.08c0.05,0.12,0.1,0.24,0.15,0.36
			c-0.01-0.03-0.02-0.06-0.02-0.09c0.02,0.13,0.04,0.27,0.05,0.4c0-0.03,0-0.05,0-0.08c-0.02,0.13-0.04,0.27-0.05,0.4
			c0-0.02,0.01-0.05,0.02-0.07c-0.05,0.12-0.1,0.24-0.15,0.36c0.01-0.03,0.03-0.05,0.04-0.07c-0.08,0.1-0.16,0.2-0.23,0.3
			c0.01-0.02,0.03-0.03,0.05-0.05c-0.1,0.08-0.2,0.16-0.3,0.23c0.03-0.02,0.06-0.04,0.09-0.05c-0.12,0.05-0.24,0.1-0.36,0.15
			c0.04-0.01,0.08-0.02,0.12-0.03c-0.13,0.02-0.27,0.04-0.4,0.05c0.04,0,0.08,0,0.12,0c-0.13-0.02-0.27-0.04-0.4-0.05
			c0.05,0.01,0.09,0.02,0.13,0.04c-0.12-0.05-0.24-0.1-0.36-0.15c0.03,0.01,0.05,0.03,0.07,0.04c-0.1-0.08-0.2-0.16-0.3-0.23
			c0.02,0.02,0.04,0.04,0.06,0.06c-0.08-0.1-0.16-0.2-0.23-0.3c0.02,0.02,0.03,0.05,0.04,0.07c-0.05-0.12-0.1-0.24-0.15-0.36
			c0.01,0.02,0.01,0.03,0.02,0.05c0.05,0.2,0.14,0.37,0.27,0.51c0.11,0.16,0.25,0.29,0.42,0.39c0.17,0.11,0.36,0.17,0.56,0.18
			c0.2,0.04,0.4,0.04,0.6-0.03c0.36-0.12,0.71-0.34,0.9-0.69c0.19-0.36,0.25-0.75,0.15-1.16c-0.11-0.45-0.42-0.83-0.81-1.07
			c-0.29-0.19-0.63-0.27-0.98-0.28c-0.67-0.03-1.38,0.35-1.69,0.94c-0.22,0.42-0.31,0.94-0.15,1.39c0.13,0.34,0.2,0.48,0.45,0.76
			c0.11,0.13,0.26,0.23,0.41,0.32c0.28,0.18,0.68,0.29,1.01,0.28c0.49-0.01,0.93-0.19,1.28-0.53c0.08-0.1,0.16-0.2,0.23-0.3
			c0.11-0.17,0.17-0.36,0.18-0.56c0.04-0.13,0.04-0.27,0-0.4c-0.01-0.2-0.07-0.39-0.18-0.56c-0.08-0.1-0.16-0.2-0.23-0.3
			c-0.1-0.08-0.2-0.16-0.3-0.23c-0.17-0.11-0.36-0.17-0.56-0.18c-0.2-0.04-0.4-0.04-0.6,0.03c-0.08,0.03-0.17,0.06-0.26,0.07
			c0.13-0.02,0.27-0.04,0.4-0.05c-0.1,0.01-0.19,0.01-0.29,0c0.13,0.02,0.27,0.04,0.4,0.05c-0.11-0.02-0.22-0.05-0.32-0.09
			c0.12,0.05,0.24,0.1,0.36,0.15c-0.11-0.05-0.22-0.11-0.31-0.18c0.1,0.08,0.2,0.16,0.3,0.23c-0.1-0.07-0.18-0.16-0.26-0.26
			c0.08,0.1,0.16,0.2,0.23,0.3c-0.06-0.08-0.12-0.17-0.16-0.27c0.05,0.12,0.1,0.24,0.15,0.36c-0.04-0.09-0.06-0.18-0.08-0.28
			c0.02,0.13,0.04,0.27,0.05,0.4c-0.01-0.06-0.01-0.12-0.01-0.18c0.01-0.21-0.04-0.4-0.13-0.58c-0.06-0.19-0.16-0.35-0.31-0.48
			c-0.14-0.15-0.3-0.25-0.48-0.31c-0.18-0.09-0.37-0.14-0.58-0.13c-0.39,0.02-0.79,0.14-1.06,0.44c-0.08,0.1-0.16,0.2-0.23,0.3
			C60.69,14.2,60.62,14.45,60.62,14.72L60.62,14.72z"/>
	</g>
</g>
</svg>
