<?xml version="1.0" encoding="utf-8"?>
<!-- Generator: Adobe Illustrator 28.2.0, SVG Export Plug-In . SVG Version: 6.00 Build 0)  -->
<svg version="1.1" xmlns="http://www.w3.org/2000/svg" xmlns:xlink="http://www.w3.org/1999/xlink" x="0px" y="0px"
	 viewBox="0 0 1366 768" style="enable-background:new 0 0 1366 768;" xml:space="preserve">
<style type="text/css">
	.st0{fill:#E5FF5C;}
	.st1{fill:#73F1FF;}
	.st2{fill:#8BFFF0;}
	.st3{fill:#2E2B00;}
	.st4{fill:#5C4600;}
	.st5{fill:#725522;}
	.st6{fill:#2E1A00;}
	.st7{fill:#5C4E00;}
	.st8{fill:#134500;}
	.st9{fill:#2E2500;}
	.st10{fill:#73FDFF;}
	.st11{fill:#5CFFEF;}
</style>
<g id="Background">
	<g>
		<rect x="307.5" y="0.5" class="st0" width="1058" height="767"/>
		<path d="M1365,1v766H308V1H1365 M1366,0H307v768h1059V0L1366,0z"/>
	</g>
	<g>
		<rect x="0.5" y="0.5" class="st1" width="306" height="767"/>
		<path class="st2" d="M306,1v766H1V1H306 M307,0H0v768h307V0L307,0z"/>
	</g>
	<g>
		<g>
			<path d="M78.68,229.32c9.59,3.3,19.65,5.9,29.87,5.16c9.58-0.7,18.75-3.78,28.21-5.2c5.25-0.79,10.63-0.93,15.83,0.29
				c1.88,0.44,2.68-2.45,0.8-2.89c-9.39-2.21-18.89-0.24-28.11,1.83c-4.66,1.05-9.34,2.16-14.09,2.71
				c-5.01,0.59-10.05,0.47-15.02-0.34c-5.7-0.93-11.25-2.59-16.7-4.46C77.65,225.8,76.86,228.69,78.68,229.32L78.68,229.32z"/>
		</g>
	</g>
	<g>
		<g>
			<path d="M69.27,294.25c11.81,8.29,26.34,12.57,40.76,12.15c4.12-0.12,8.22-0.63,12.25-1.5c1.89-0.41,1.09-3.3-0.8-2.89
				c-13.51,2.92-27.97,1.3-40.53-4.48c-3.56-1.64-6.96-3.6-10.16-5.86C69.21,290.55,67.7,293.15,69.27,294.25L69.27,294.25z"/>
		</g>
	</g>
	<g>
		<g>
			<path d="M54.07,398.3c20.02,8.34,41.59,13.03,63.28,13.61c6.39,0.17,12.78-0.12,19.09-1.21c1.9-0.33,1.09-3.22-0.8-2.89
				c-10.76,1.86-21.94,1.3-32.75,0.09c-10.49-1.17-20.87-3.33-30.97-6.38c-5.78-1.75-11.47-3.79-17.05-6.12
				C53.08,394.67,52.31,397.57,54.07,398.3L54.07,398.3z"/>
		</g>
	</g>
	<g>
		<g>
			<path d="M69.54,587.65c10.98,2.58,21.99-0.6,32.71-2.9c5.69-1.22,11.43-2.1,17.23-2.57c2.75-0.22,5.59-0.5,8.35-0.3
				c2.61,0.2,4.85,1.49,7.28,2.33c5.7,1.98,11.87,1.69,17.79,1.37c1.92-0.1,1.93-3.1,0-3c-5.23,0.28-10.62,0.59-15.71-0.86
				c-2.43-0.69-4.66-2.01-7.14-2.54c-2.66-0.56-5.42-0.35-8.11-0.18c-5.68,0.35-11.35,1.06-16.94,2.13
				c-5.4,1.03-10.73,2.44-16.14,3.43c-6.11,1.12-12.4,1.63-18.51,0.2C68.46,584.32,67.66,587.21,69.54,587.65L69.54,587.65z"/>
		</g>
	</g>
	<g>
		<g>
			<path d="M75.4,655.21c15.37,4.01,30.73,8.02,46.1,12.03c14.96,3.91,29.96,8.35,45.39,10.01c8.51,0.92,17.09,0.82,25.51-0.82
				c1.89-0.37,1.09-3.26-0.8-2.89c-15.04,2.93-30.42,0.47-45.15-3c-15-3.54-29.88-7.68-44.79-11.58
				c-8.48-2.21-16.97-4.43-25.45-6.64C74.33,651.83,73.53,654.72,75.4,655.21L75.4,655.21z"/>
		</g>
	</g>
	<g>
		<g>
			<path d="M70,90.38c16.1,0.39,32.2,0.72,48.3,0.99c7.79,0.13,15.69,0.59,23.47-0.15c3.78-0.36,7.44-1.15,11.1-2.14
				c3.57-0.97,7.2-1.97,10.93-1.74c7.57,0.45,13.93,5.73,19.5,10.36c1.47,1.23,3.61-0.89,2.12-2.12
				c-5.24-4.36-10.84-8.94-17.6-10.62c-7.51-1.87-14.41,1.32-21.69,2.66c-7.83,1.45-15.94,0.95-23.85,0.82
				c-8.13-0.13-16.27-0.28-24.4-0.44c-9.3-0.19-18.59-0.39-27.89-0.61C68.07,87.33,68.07,90.34,70,90.38L70,90.38z"/>
		</g>
	</g>
	<g>
		<path class="st3" d="M624.12,167.02c-0.53,4.61-0.3,9.3,0.68,13.83c1.82-3.74,3.64-7.47,5.46-11.21"/>
		<g>
			<path d="M622.62,167.02c-0.53,4.75-0.26,9.55,0.73,14.23c0.26,1.22,2.18,1.5,2.74,0.36c1.82-3.74,3.64-7.47,5.46-11.21
				c0.35-0.73,0.2-1.62-0.54-2.05c-0.66-0.39-1.7-0.19-2.05,0.54c-1.82,3.74-3.64,7.47-5.46,11.21c0.91,0.12,1.83,0.24,2.74,0.36
				c-0.94-4.42-1.12-8.95-0.62-13.43c0.09-0.81-0.75-1.5-1.5-1.5C623.23,165.52,622.71,166.21,622.62,167.02L622.62,167.02z"/>
		</g>
	</g>
	<g>
		<g>
			<path d="M642.45,160.6c1.27-0.45,2.55-0.91,3.82-1.36c-0.39-0.05-0.77-0.1-1.16-0.15c0.02,0.01,0.04,0.03,0.05,0.04
				c-0.1-0.08-0.2-0.16-0.3-0.23c0.18,0.14,0.34,0.3,0.48,0.47c-0.08-0.1-0.16-0.2-0.23-0.3c0.15,0.2,0.28,0.41,0.38,0.64
				c-0.05-0.12-0.1-0.24-0.15-0.36c0.11,0.25,0.18,0.51,0.22,0.78c-0.02-0.13-0.04-0.27-0.05-0.4c0.03,0.25,0.03,0.49,0,0.74
				c0.02-0.13,0.04-0.27,0.05-0.4c-0.03,0.18-0.07,0.35-0.13,0.52c-0.25,0.74,0.29,1.67,1.05,1.85c0.83,0.19,1.57-0.25,1.85-1.05
				c0.52-1.51,0.04-3.36-1.13-4.44c-0.17-0.16-0.37-0.33-0.57-0.45c-0.51-0.29-1-0.21-1.51-0.02c-0.39,0.14-0.77,0.27-1.16,0.41
				c-0.77,0.27-1.54,0.55-2.31,0.82c-0.37,0.13-0.69,0.34-0.9,0.69c-0.19,0.32-0.27,0.8-0.15,1.16
				C640.84,160.28,641.66,160.88,642.45,160.6L642.45,160.6z"/>
		</g>
	</g>
	<g>
		<g>
			<path d="M641.75,170.34c0.72,2.96,4.23,4.93,7.12,3.88c0.58-0.21,1.16-0.76,1.1-1.45c-0.16-1.93-0.31-3.85-0.47-5.78
				c-0.06-0.78-0.64-1.54-1.5-1.5c-0.76,0.03-1.57,0.66-1.5,1.5c0.16,1.93,0.31,3.85,0.47,5.78c0.37-0.48,0.73-0.96,1.1-1.45
				c-0.13,0.05-0.26,0.09-0.39,0.12c-0.06,0.01-0.12,0.03-0.18,0.04c-0.24,0.06,0.33-0.03,0.14-0.02c-0.26,0.02-0.51,0.02-0.78,0.01
				c-0.25-0.01,0.32,0.06,0.14,0.02c-0.06-0.01-0.12-0.02-0.18-0.03c-0.13-0.03-0.27-0.06-0.4-0.1c-0.06-0.02-0.12-0.04-0.18-0.06
				c-0.06-0.02-0.28-0.11-0.03-0.01c0.25,0.11,0.03,0.01-0.03-0.01c-0.07-0.03-0.13-0.07-0.2-0.1c-0.11-0.06-0.22-0.12-0.32-0.19
				c-0.05-0.03-0.1-0.07-0.15-0.11c-0.21-0.14,0.03,0.05,0.09,0.08c-0.21-0.09-0.41-0.38-0.56-0.55c-0.17-0.18,0.02,0.05,0.07,0.1
				c-0.05-0.04-0.1-0.13-0.13-0.18c-0.07-0.1-0.13-0.21-0.19-0.32c-0.02-0.05-0.09-0.15-0.1-0.2c0,0.02,0.13,0.35,0.07,0.15
				c-0.05-0.14-0.09-0.28-0.13-0.43c-0.19-0.76-1.09-1.29-1.85-1.05C642,168.75,641.55,169.53,641.75,170.34L641.75,170.34z"/>
		</g>
	</g>
	<g>
		<path class="st4" d="M686.2,381.4c-2.74-1.36-6.33-2.63-8.57-0.55c-2.41,2.25-0.66,6.74,2.43,7.91c3.08,1.17,6.55,0,9.45-1.58"/>
		<g>
			<path d="M686.96,380.11c-2.01-1-4.29-1.96-6.58-1.85c-2.3,0.11-4.4,1.42-5.13,3.67c-0.6,1.84-0.07,4.02,1.02,5.58
				c1.37,1.96,3.35,2.98,5.72,3.2c2.89,0.27,5.78-0.88,8.28-2.22c1.7-0.91,0.19-3.5-1.51-2.59c-1.66,0.89-3.5,1.7-5.39,1.83
				c-0.99,0.07-1.88-0.03-2.81-0.37c-0.21-0.08-0.04-0.01,0,0.01c-0.09-0.04-0.17-0.08-0.26-0.13c-0.15-0.08-0.29-0.17-0.43-0.26
				c-0.03-0.02-0.27-0.19-0.14-0.09c0.12,0.09-0.07-0.06-0.07-0.06c-0.16-0.15-0.32-0.29-0.47-0.45c-0.04-0.05-0.34-0.39-0.19-0.2
				c-0.1-0.13-0.2-0.28-0.29-0.42c-0.09-0.14-0.18-0.29-0.25-0.44c-0.04-0.09-0.09-0.17-0.13-0.26c0.09,0.19-0.01-0.02-0.04-0.11
				c-0.29-0.81-0.31-0.97-0.26-1.78c0.02-0.23-0.05,0.23,0,0c0.02-0.06,0.03-0.13,0.04-0.19c0.02-0.07,0.19-0.54,0.07-0.27
				c0.06-0.14,0.14-0.28,0.22-0.41c0.03-0.06,0.07-0.11,0.11-0.17c-0.16,0.21,0.03-0.03,0.07-0.07c0.28-0.26,0.41-0.38,0.8-0.57
				c-0.14,0.07,0.25-0.09,0.32-0.11c0.1-0.03,0.21-0.06,0.31-0.08c0.04-0.01,0.37-0.05,0.16-0.03c1.82-0.18,3.66,0.6,5.32,1.42
				c0.73,0.36,1.62,0.19,2.05-0.54C687.88,381.5,687.69,380.47,686.96,380.11L686.96,380.11z"/>
		</g>
	</g>
	<g>
		<path class="st5" d="M711.7,381.66c-3.86-1.6-7.83-3.22-12.01-3.33c-4.18-0.11-8.67,1.61-10.68,5.28
			c4.16,3.05,8.55,6.21,13.65,6.94s11.09-1.86,12.32-6.87"/>
		<g>
			<path d="M712.1,380.22c-4.52-1.87-9.39-3.85-14.39-3.3c-4.03,0.44-7.91,2.33-10,5.94c-0.44,0.76-0.12,1.57,0.54,2.05
				c4.81,3.53,10.31,7.46,16.57,7.26c5.03-0.16,10.24-2.97,11.62-8.09c0.5-1.87-2.39-2.66-2.89-0.8c-1.12,4.16-5.73,6.07-9.72,5.88
				c-5.29-0.25-9.95-3.84-14.05-6.84c0.18,0.68,0.36,1.37,0.54,2.05c1.72-2.98,5.15-4.41,8.49-4.53c4.37-0.16,8.55,1.63,12.51,3.27
				C713.08,383.84,713.86,380.94,712.1,380.22L712.1,380.22z"/>
		</g>
	</g>
	<g>
		<path class="st3" d="M690.09,387.63c-0.56,5.26-0.32,10.62,0.72,15.8c1.93-4.27,3.87-8.53,5.8-12.8"/>
		<g>
			<path d="M688.44,387.63c-0.56,5.42-0.27,10.89,0.78,16.24c0.26,1.33,2.44,1.68,3.02,0.39c1.93-4.27,3.87-8.53,5.8-12.8
				c0.37-0.81,0.23-1.78-0.59-2.26c-0.71-0.41-1.89-0.22-2.26,0.59c-1.93,4.27-3.87,8.53-5.8,12.8c1.01,0.13,2.01,0.26,3.02,0.39
				c-1-5.06-1.19-10.24-0.66-15.36c0.09-0.89-0.83-1.65-1.65-1.65C689.12,385.97,688.53,386.73,688.44,387.63L688.44,387.63z"/>
		</g>
	</g>
	<g>
		<path class="st6" d="M690.22,382.02c-1.04-5.88,0.76-12.65,4.2-15.79c1.13,2.84,1.83,6.09,2.01,9.4"/>
		<g>
			<path d="M692.12,381.5c-0.43-2.54-0.25-5.35,0.42-7.88c0.34-1.27,0.72-2.3,1.3-3.38c0.29-0.53,0.6-1.05,0.96-1.53
				c-0.12,0.16,0.03-0.03,0.07-0.09c0.08-0.1,0.17-0.2,0.26-0.3c0.22-0.24,0.45-0.47,0.68-0.69c-1.09-0.29-2.19-0.58-3.28-0.87
				c1.12,2.84,1.76,5.83,1.94,8.88c0.06,1.06,0.86,1.96,1.96,1.96c1.01,0,2.03-0.9,1.96-1.96c-0.2-3.39-0.84-6.76-2.08-9.92
				c-0.54-1.37-2.12-1.95-3.28-0.87c-2.18,2.03-3.53,4.89-4.29,7.73c-0.87,3.26-0.98,6.65-0.42,9.96c0.18,1.05,1.47,1.63,2.41,1.37
				C691.85,383.61,692.3,382.55,692.12,381.5L692.12,381.5z"/>
		</g>
	</g>
	<g>
		<g>
			<path d="M680.23,387.65c0.25,0.1,0.54,0.12,0.81,0.15c0.44,0.05,0.87,0.08,1.31,0.1c1.09,0.06,2.19,0.07,3.28,0.03
				c0.41-0.01,0.59-0.48,0.32-0.78c-0.16-0.18-0.31-0.36-0.47-0.54c-0.39-0.45-1.04,0.21-0.65,0.65c0.16,0.18,0.31,0.36,0.47,0.54
				c0.11-0.26,0.22-0.52,0.32-0.78c-1.07,0.04-2.14,0.03-3.2-0.03c-0.43-0.02-0.85-0.05-1.28-0.09c-0.22-0.02-0.43-0.04-0.68-0.13
				c-0.23-0.09-0.5,0.1-0.56,0.32C679.84,387.35,680,387.56,680.23,387.65L680.23,387.65z"/>
		</g>
	</g>
	<g>
		<g>
			<path d="M713.32,379.28c0.64-0.53,1.27-1.05,1.91-1.58c-0.6-0.08-1.19-0.15-1.79-0.23c0.07,0.12,0.13,0.23,0.18,0.36
				c-0.04-0.09-0.08-0.18-0.11-0.27c0.17,0.42,0.27,0.86,0.33,1.3c-0.01-0.1-0.03-0.2-0.04-0.3c0.08,0.64,0.09,1.28,0.01,1.92
				c0.01-0.1,0.03-0.2,0.04-0.3c-0.01,0.04-0.01,0.08-0.02,0.12c-0.05,0.32-0.05,0.59,0.11,0.88c0.14,0.24,0.41,0.46,0.68,0.52
				c0.29,0.07,0.62,0.05,0.88-0.11c0.23-0.15,0.48-0.4,0.52-0.68c0.13-0.84,0.14-1.65,0.03-2.49c-0.1-0.72-0.27-1.45-0.64-2.08
				c-0.18-0.31-0.48-0.5-0.83-0.54c-0.38-0.05-0.67,0.07-0.96,0.31c-0.64,0.53-1.27,1.05-1.91,1.58c-0.21,0.18-0.33,0.54-0.33,0.81
				c0,0.28,0.12,0.61,0.33,0.81c0.22,0.2,0.5,0.35,0.81,0.33C712.83,379.6,713.07,379.48,713.32,379.28L713.32,379.28z"/>
		</g>
	</g>
	<g>
		<path class="st7" d="M708.01,390.99c2.23,3.02,4.95,5.67,8.04,7.82c0.76-4.3-0.13-8.86-2.43-12.56"/>
		<g>
			<path d="M706.72,391.75c2.41,3.24,5.27,6.04,8.58,8.35c0.74,0.52,2.05,0.02,2.2-0.9c0.8-4.73-0.06-9.61-2.58-13.72
				c-1.01-1.64-3.6-0.14-2.59,1.51c2.07,3.38,2.95,7.48,2.28,11.41c0.73-0.3,1.47-0.6,2.2-0.9c-2.86-2-5.42-4.47-7.5-7.28
				c-0.48-0.65-1.3-0.98-2.05-0.54C706.62,390.07,706.23,391.09,706.72,391.75L706.72,391.75z"/>
		</g>
	</g>
	<g>
		<path class="st8" d="M705.72,464.65c-7.27-3.36-17.35-6.25-29.2-8.37c12.98,2.01,25.97,4.01,38.95,6.02
			c1.35-3.25,2.69-6.51,4.04-9.76c4,2.57,6.88,5.27,8.53,8.03c6.77-3.7,13.55-7.41,20.32-11.11c-0.43,3.09-0.85,6.18-1.28,9.26
			c-0.13,0.97-0.21,2.02,1.68,2.84c11.34-3.18,21.71-6.63,30.96-10.29c2.83,1.59,1.18,3.51-1.26,5.14s-5.67,3.25-5.9,5.03
			c15.22-3.16,30.45-6.31,45.67-9.47c-7.96,3.41-16.07,6.92-19.19,10.88c13.66-2.27,27.66-4.39,41.96-6.33
			c-7.68,1.63-14.03,3.73-18.46,6.11c-0.75,0.41-1.52,0.84-2.9,1.09c-2.04,0.37-4.72,0.21-7.07,0.04
			c-14.05-1.02-28.11-2.04-42.16-3.06c-3.1-0.23-6.31-0.45-9.48-0.31c-4.78,0.21-8.52,1.21-12.51,1.97
			c-12.34,2.35-28.25,2.55-43.22,2.66"/>
		<g>
			<path d="M705.99,464.2c-9.26-4.25-19.34-6.63-29.33-8.43c-0.09,0.34-0.19,0.68-0.28,1.02c12.98,2.01,25.97,4.01,38.95,6.02
				c0.31,0.05,0.53-0.08,0.65-0.37c1.35-3.25,2.69-6.51,4.04-9.76c-0.26,0.1-0.52,0.21-0.77,0.31c3.21,2.08,6.31,4.54,8.34,7.84
				c0.15,0.25,0.47,0.33,0.72,0.19c6.77-3.7,13.55-7.41,20.32-11.11c-0.26-0.2-0.52-0.4-0.77-0.59c-0.33,2.36-0.65,4.71-0.98,7.07
				c-0.17,1.23-0.75,2.99-0.12,4.19c0.29,0.55,0.8,0.95,1.33,1.25c0.89,0.49,1.77-0.02,2.69-0.29c2.23-0.64,4.45-1.29,6.67-1.97
				c4.22-1.29,8.42-2.66,12.59-4.12c1.98-0.69,3.95-1.41,5.91-2.15c0.92-0.35,1.84-0.7,2.76-1.06c0.65-0.25,1.05-0.53,1.6,0.11
				c0.44,0.52,0.45,1.01,0.12,1.59c-1.03,1.81-3.56,2.84-5.23,3.95c-1.24,0.83-2.82,1.85-3.14,3.42c-0.08,0.41,0.24,0.73,0.65,0.65
				c15.22-3.16,30.45-6.31,45.67-9.47c-0.14-0.32-0.27-0.64-0.41-0.96c-3.91,1.67-7.84,3.33-11.59,5.33
				c-2.78,1.48-5.69,3.16-7.7,5.64c-0.34,0.42-0.02,0.97,0.51,0.88c13.95-2.32,27.94-4.42,41.96-6.33
				c-0.09-0.34-0.19-0.68-0.28-1.02c-4.22,0.9-8.42,1.99-12.47,3.48c-1.59,0.58-3.17,1.23-4.7,1.97c-1.73,0.84-3.22,1.7-5.18,1.88
				c-4.47,0.42-9.16-0.35-13.62-0.67c-4.96-0.36-9.92-0.72-14.88-1.08c-4.88-0.35-9.75-0.71-14.63-1.06
				c-4.79-0.35-9.63-0.89-14.44-0.67c-4.16,0.19-8.18,1.12-12.25,1.92c-4.09,0.8-8.23,1.3-12.38,1.66
				c-10.33,0.9-20.73,0.97-31.09,1.05c-0.68,0.01-0.68,1.06,0,1.05c9.26-0.07,18.54-0.15,27.79-0.79c4.16-0.29,8.32-0.7,12.45-1.35
				c4.12-0.64,8.16-1.73,12.3-2.23c4.72-0.57,9.44-0.19,14.16,0.15c4.96,0.36,9.92,0.72,14.88,1.08c4.96,0.36,9.92,0.72,14.88,1.08
				c4.77,0.35,9.57,0.89,14.35,0.97c2.05,0.04,4.14-0.07,6.02-0.97c1.75-0.84,3.43-1.74,5.24-2.46c4.48-1.77,9.16-3,13.87-4.01
				c0.68-0.15,0.37-1.1-0.28-1.02c-14.02,1.91-28,4.01-41.96,6.33c0.17,0.29,0.34,0.59,0.51,0.88c2.04-2.52,5.03-4.19,7.86-5.67
				c3.65-1.91,7.44-3.51,11.22-5.13c0.57-0.25,0.14-1.08-0.41-0.96c-15.22,3.16-30.45,6.31-45.67,9.47
				c0.22,0.22,0.43,0.43,0.65,0.65c0.34-1.66,2.53-2.72,3.83-3.54c1.45-0.92,3.13-1.82,4.18-3.22c0.69-0.92,0.91-2.02,0.18-2.99
				c-0.3-0.4-1-1.08-1.53-1.09c-0.76-0.01-1.96,0.73-2.67,1.01c-8.25,3.16-16.66,5.91-25.15,8.37c-0.96,0.28-2.7,1.15-3.61,0.59
				c-1.06-0.65-0.7-1.82-0.57-2.82c0.38-2.76,0.76-5.53,1.14-8.29c0.06-0.44-0.34-0.83-0.77-0.59c-6.77,3.7-13.55,7.41-20.32,11.11
				c0.24,0.06,0.48,0.13,0.72,0.19c-2.12-3.45-5.36-6.04-8.72-8.21c-0.32-0.2-0.65,0.02-0.77,0.31c-1.35,3.25-2.69,6.51-4.04,9.76
				c0.22-0.12,0.43-0.25,0.65-0.37c-12.98-2.01-25.97-4.01-38.95-6.02c-0.66-0.1-0.95,0.89-0.28,1.02
				c9.89,1.79,19.91,4.12,29.08,8.32C706.07,465.39,706.6,464.48,705.99,464.2L705.99,464.2z"/>
		</g>
	</g>
	<g>
		<path class="st8" d="M971.18,444.58c-9.13-4.01-21.77-7.45-36.66-9.99c16.3,2.39,32.6,4.78,48.9,7.18
			c1.69-3.88,3.38-7.77,5.07-11.65c5.03,3.06,8.63,6.28,10.71,9.57c8.5-4.42,17.01-8.84,25.51-13.26
			c-0.54,3.68-1.07,7.37-1.61,11.05c-0.17,1.16-0.26,2.4,2.11,3.38c14.23-3.79,27.25-7.9,38.86-12.27c3.56,1.9,1.48,4.18-1.59,6.14
			c-3.06,1.96-7.12,3.88-7.41,6c19.11-3.77,38.22-7.53,57.33-11.3c-9.99,4.07-20.17,8.25-24.09,12.98
			c17.14-2.71,34.72-5.23,52.67-7.55c-9.64,1.94-17.61,4.45-23.17,7.29c-0.95,0.48-1.9,1-3.64,1.3c-2.56,0.44-5.92,0.25-8.87,0.04
			c-17.64-1.22-35.28-2.44-52.92-3.65c-3.89-0.27-7.92-0.54-11.9-0.37c-6,0.26-10.69,1.45-15.7,2.36
			c-15.5,2.81-35.46,3.04-54.25,3.17"/>
		<g>
			<path d="M971.5,444.03c-11.67-5.09-24.31-7.91-36.81-10.05c-0.11,0.41-0.23,0.83-0.34,1.24c16.3,2.39,32.6,4.78,48.9,7.18
				c0.26,0.04,0.61-0.02,0.73-0.3c1.69-3.88,3.38-7.77,5.07-11.65c-0.29,0.08-0.59,0.15-0.88,0.23c3.98,2.45,7.91,5.36,10.48,9.34
				c0.2,0.3,0.56,0.4,0.88,0.23c8.5-4.42,17.01-8.84,25.51-13.26c-0.32-0.24-0.63-0.49-0.95-0.73c-0.42,2.88-0.84,5.76-1.26,8.65
				c-0.23,1.55-0.93,3.63,0.06,5.06c0.43,0.63,1.26,1.26,2,1.45c1.01,0.26,2.57-0.49,3.56-0.76c2.77-0.76,5.53-1.54,8.29-2.34
				c5.32-1.55,10.61-3.2,15.86-4.97c2.45-0.82,4.9-1.67,7.34-2.55c1.12-0.4,2.23-0.81,3.35-1.23c0.71-0.27,1.07-0.22,1.6,0.37
				c0.45,0.5,0.51,1.02,0.21,1.61c-0.58,1.14-1.89,1.95-2.92,2.62c-1.13,0.73-2.3,1.38-3.44,2.09c-1.6,1-3.85,2.27-4.26,4.29
				c-0.1,0.5,0.29,0.89,0.79,0.79c19.11-3.77,38.22-7.53,57.33-11.3c-0.11-0.41-0.23-0.83-0.34-1.24
				c-4.87,1.98-9.77,3.95-14.48,6.31c-3.53,1.77-7.3,3.78-9.9,6.84c-0.43,0.51-0.01,1.18,0.63,1.08c17.46-2.76,34.97-5.26,52.5-7.53
				c-0.06-0.42-0.11-0.84-0.17-1.27c-5.31,1.08-10.59,2.38-15.71,4.17c-2,0.7-3.98,1.47-5.9,2.36c-2.2,1.01-4.09,2.03-6.57,2.22
				c-2.6,0.21-5.23,0-7.82-0.18c-3.13-0.22-6.27-0.43-9.4-0.65c-6.1-0.42-12.2-0.84-18.3-1.26c-6.18-0.43-12.37-0.85-18.55-1.28
				c-6-0.41-12.06-1.05-18.08-0.8c-5.24,0.22-10.33,1.36-15.47,2.3c-5.14,0.95-10.34,1.54-15.54,1.97
				c-12.95,1.07-25.96,1.15-38.94,1.25c-0.83,0.01-0.83,1.29,0,1.29c11.65-0.08,23.32-0.17,34.95-0.95
				c5.26-0.35,10.52-0.85,15.74-1.63c5.2-0.78,10.31-2.09,15.54-2.66c5.95-0.65,11.9-0.17,17.85,0.24
				c6.18,0.43,12.37,0.85,18.55,1.28c6.1,0.42,12.2,0.84,18.3,1.26c6.05,0.42,12.14,1.07,18.21,1.17c2.57,0.04,5.18-0.09,7.54-1.18
				c2.16-0.99,4.25-2.05,6.48-2.89c5.66-2.13,11.55-3.6,17.47-4.8c0.7-0.14,0.55-1.36-0.17-1.27c-17.65,2.28-35.27,4.8-52.84,7.57
				c0.21,0.36,0.42,0.72,0.63,1.08c2.53-2.98,6.2-4.92,9.64-6.64c4.61-2.31,9.4-4.23,14.17-6.18c0.76-0.31,0.49-1.41-0.34-1.24
				c-19.11,3.77-38.22,7.53-57.33,11.3c0.26,0.26,0.53,0.53,0.79,0.79c0.4-1.97,3.16-3.22,4.7-4.15c1.87-1.13,4.07-2.21,5.42-3.99
				c0.95-1.25,1.02-2.72-0.16-3.84c-0.65-0.62-1.27-1.1-2.15-0.81c-1.26,0.42-2.49,0.92-3.73,1.37
				c-10.33,3.73-20.85,6.97-31.44,9.86c-1.36,0.37-3.04,1.32-4.19,0.13c-0.75-0.78-0.43-1.84-0.29-2.79
				c0.49-3.36,0.98-6.73,1.47-10.09c0.08-0.55-0.41-1.01-0.95-0.73c-8.5,4.42-17.01,8.84-25.51,13.26c0.29,0.08,0.59,0.15,0.88,0.23
				c-2.69-4.17-6.76-7.24-10.94-9.8c-0.27-0.17-0.74-0.08-0.88,0.23c-1.69,3.88-3.38,7.77-5.07,11.65c0.24-0.1,0.49-0.2,0.73-0.3
				c-16.3-2.39-32.6-4.78-48.9-7.18c-0.8-0.12-1.17,1.1-0.34,1.24c12.38,2.12,24.95,4.88,36.5,9.92
				C971.61,445.47,972.26,444.36,971.5,444.03L971.5,444.03z"/>
		</g>
	</g>
	<g>
		<path class="st8" d="M992.12,218.96c-6.26-10.05-14.92-18.7-25.12-25.06c11.17,6,22.34,12,33.51,18
			c1.16-9.74,2.32-19.48,3.48-29.22c3.45,7.68,5.92,15.76,7.34,24.02c5.83-11.09,11.66-22.17,17.48-33.26
			c-0.37,9.24-0.73,18.48-1.1,27.72c-0.12,2.91-0.18,6.03,1.45,8.49c9.76-9.51,18.68-19.83,26.63-30.79
			c2.44,4.76,1.01,10.49-1.09,15.4s-4.88,9.74-5.08,15.04c13.1-9.45,26.2-18.89,39.29-28.34c-6.85,10.2-13.82,20.69-16.51,32.57
			c11.75-6.8,23.8-13.13,36.1-18.94c-6.6,4.86-12.07,11.16-15.88,18.29c-0.65,1.21-1.3,2.51-2.49,3.25
			c-1.76,1.09-4.06,0.62-6.08,0.11c-12.09-3.06-24.18-6.11-36.27-9.17c-2.67-0.67-5.43-1.35-8.15-0.93
			c-4.11,0.64-7.33,3.63-10.76,5.91c-10.62,7.04-24.3,7.62-37.18,7.96"/>
		<g>
			<path d="M992.85,218.53c-6.43-10.27-15.17-18.93-25.43-25.36c-0.28,0.49-0.57,0.97-0.85,1.46c11.17,6,22.34,12,33.51,18
				c0.61,0.33,1.2-0.1,1.27-0.73c1.16-9.74,2.32-19.48,3.48-29.22c-0.52,0.14-1.05,0.28-1.57,0.43c3.39,7.61,5.82,15.61,7.25,23.81
				c0.13,0.72,1.22,0.82,1.54,0.2c5.83-11.09,11.66-22.17,17.48-33.26c-0.52-0.14-1.05-0.28-1.57-0.43
				c-0.26,6.6-0.52,13.2-0.79,19.8c-0.12,3.11-0.3,6.21-0.36,9.32c-0.05,2.61,0.2,5.25,1.61,7.51c0.29,0.46,0.93,0.56,1.33,0.17
				c9.78-9.55,18.73-19.91,26.77-30.96c-0.49,0-0.97,0-1.46,0c2.42,4.94,0.64,10.63-1.44,15.36c-2.09,4.73-4.57,9.38-4.84,14.65
				c-0.03,0.6,0.76,1.1,1.27,0.73c13.1-9.45,26.2-18.89,39.29-28.34c-0.39-0.39-0.77-0.77-1.16-1.16
				c-6.83,10.18-13.8,20.67-16.6,32.77c-0.16,0.71,0.58,1.33,1.24,0.95c11.77-6.81,23.81-13.13,36.1-18.94
				c-0.28-0.49-0.57-0.97-0.85-1.46c-6.44,4.78-11.89,10.84-15.79,17.87c-0.98,1.77-1.8,3.86-4.05,4.17
				c-2.1,0.29-4.37-0.58-6.38-1.09c-4.76-1.2-9.51-2.4-14.27-3.61c-4.76-1.2-9.51-2.4-14.27-3.61c-4.22-1.07-8.83-2.83-13.24-2.37
				c-3.91,0.41-7.06,2.85-10.16,5.06c-3.33,2.37-6.93,4.2-10.82,5.47c-8.82,2.87-18.22,3.16-27.42,3.4c-1.09,0.03-1.09,1.72,0,1.69
				c8.2-0.22,16.52-0.49,24.52-2.5c3.82-0.96,7.56-2.34,11-4.29c3.52-2,6.54-5.05,10.36-6.49c4.53-1.71,9.42,0.17,13.87,1.3
				c4.76,1.2,9.51,2.4,14.27,3.61c4.76,1.2,9.51,2.4,14.27,3.61c3.38,0.86,8.34,2.98,11.37,0.2c1.52-1.4,2.3-3.55,3.35-5.29
				c1.2-2,2.53-3.93,3.99-5.75c2.98-3.73,6.44-7.07,10.27-9.91c0.87-0.64,0.14-1.93-0.85-1.46c-12.29,5.82-24.33,12.14-36.1,18.94
				c0.41,0.32,0.83,0.64,1.24,0.95c2.76-11.97,9.68-22.31,16.43-32.37c0.46-0.68-0.47-1.65-1.16-1.16
				c-13.1,9.45-26.2,18.89-39.29,28.34c0.42,0.24,0.85,0.49,1.27,0.73c0.54-10.47,11.31-20.1,6.05-30.87c-0.3-0.62-1.12-0.47-1.46,0
				c-7.95,10.94-16.83,21.17-26.5,30.62c0.44,0.06,0.88,0.11,1.33,0.17c-1.44-2.32-1.44-5.02-1.35-7.66
				c0.11-3.1,0.25-6.21,0.37-9.31c0.25-6.27,0.5-12.54,0.75-18.81c0.03-0.83-1.19-1.16-1.57-0.43
				c-5.83,11.09-11.66,22.17-17.48,33.26c0.51,0.07,1.03,0.13,1.54,0.2c-1.46-8.36-3.97-16.47-7.43-24.22
				c-0.38-0.86-1.49-0.29-1.57,0.43c-1.16,9.74-2.32,19.48-3.48,29.22c0.42-0.24,0.85-0.49,1.27-0.73c-11.17-6-22.34-12-33.51-18
				c-0.96-0.52-1.78,0.88-0.85,1.46c10.01,6.28,18.55,14.74,24.82,24.76C991.97,220.3,993.43,219.46,992.85,218.53L992.85,218.53z"
				/>
		</g>
	</g>
	<g>
		<path class="st8" d="M889.32,586.61c-7.67-3.79-18.29-7.05-30.8-9.45c13.7,2.26,27.39,4.53,41.09,6.79
			c1.42-3.67,2.84-7.35,4.26-11.02c4.22,2.9,7.25,5.94,9,9.06c7.14-4.18,14.29-8.36,21.43-12.54c-0.45,3.48-0.9,6.97-1.35,10.45
			c-0.14,1.1-0.22,2.27,1.77,3.2c11.96-3.59,22.9-7.48,32.65-11.61c2.99,1.79,1.24,3.96-1.33,5.81c-2.57,1.85-5.98,3.67-6.23,5.67
			c16.06-3.56,32.11-7.12,48.17-10.69c-8.39,3.85-16.95,7.8-20.24,12.28c14.4-2.57,29.17-4.95,44.25-7.14
			c-8.1,1.83-14.8,4.21-19.47,6.9c-0.79,0.46-1.6,0.95-3.06,1.23c-2.15,0.41-4.98,0.23-7.46,0.04c-14.82-1.15-29.64-2.31-44.47-3.46
			c-3.27-0.25-6.66-0.51-10-0.35c-5.04,0.24-8.98,1.37-13.19,2.23c-13.02,2.66-29.79,2.87-45.58,3"/>
		<g>
			<path d="M889.61,586.11c-9.7-4.76-20.37-7.47-30.94-9.51c-0.1,0.37-0.2,0.74-0.31,1.11c13.7,2.26,27.39,4.53,41.09,6.79
				c0.33,0.05,0.58-0.09,0.71-0.4c1.42-3.67,2.84-7.35,4.26-11.02c-0.28,0.11-0.56,0.23-0.84,0.34c3.43,2.38,6.69,5.19,8.79,8.85
				c0.15,0.27,0.52,0.36,0.79,0.21c7.14-4.18,14.29-8.36,21.43-12.54c-0.29-0.17-0.58-0.33-0.86-0.5c-0.31,2.38-0.61,4.75-0.92,7.13
				c-0.2,1.54-0.88,3.61-0.32,5.14c0.22,0.62,0.68,1.1,1.22,1.47c0.84,0.57,1.15,0.48,2.12,0.19c2.32-0.7,4.63-1.42,6.93-2.17
				c8.43-2.73,16.76-5.77,24.92-9.22c-0.19,0-0.39,0-0.58,0c1.62,1.05,1.48,2.25,0.2,3.53c-1.05,1.05-2.33,1.84-3.56,2.67
				c-1.65,1.12-4.06,2.49-4.47,4.63c-0.08,0.44,0.26,0.81,0.71,0.71c16.06-3.56,32.11-7.12,48.17-10.69
				c-0.15-0.35-0.3-0.7-0.44-1.05c-4.19,1.92-8.4,3.82-12.4,6.12c-2.96,1.69-5.96,3.62-8.04,6.38c-0.34,0.44,0.22,0.92,0.65,0.84
				c14.71-2.62,29.47-4.99,44.25-7.14c-0.1-0.37-0.2-0.74-0.31-1.11c-4.48,1.02-8.93,2.26-13.21,3.95
				c-1.65,0.65-3.27,1.36-4.84,2.17c-1.6,0.82-3.02,1.79-4.83,2.07c-2.28,0.36-4.65,0.13-6.94-0.04c-2.64-0.2-5.27-0.41-7.91-0.61
				c-5.19-0.4-10.38-0.81-15.56-1.21c-5.19-0.4-10.38-0.81-15.56-1.21c-5.04-0.39-10.13-1-15.19-0.78c-4.35,0.18-8.55,1.2-12.8,2.09
				c-4.42,0.94-8.91,1.53-13.41,1.96c-10.9,1.02-21.87,1.1-32.8,1.19c-0.74,0.01-0.74,1.15,0,1.15c9.91-0.08,19.83-0.17,29.71-0.93
				c4.38-0.34,8.76-0.81,13.09-1.55c4.29-0.73,8.49-1.94,12.81-2.48c5.04-0.63,10.1-0.16,15.14,0.23
				c5.27,0.41,10.54,0.82,15.81,1.23c5.19,0.4,10.38,0.81,15.56,1.21c5.04,0.39,10.13,1.04,15.18,1.07c2.07,0.01,4.15-0.17,6-1.14
				c1.75-0.92,3.45-1.87,5.27-2.66c4.75-2.04,9.77-3.45,14.8-4.6c0.74-0.17,0.41-1.21-0.31-1.11c-14.79,2.15-29.54,4.53-44.25,7.14
				c0.22,0.28,0.43,0.56,0.65,0.84c2.12-2.8,5.36-4.7,8.38-6.38c3.78-2.1,7.73-3.89,11.66-5.7c0.62-0.28,0.16-1.18-0.44-1.05
				c-16.06,3.56-32.11,7.12-48.17,10.69c0.24,0.24,0.47,0.47,0.71,0.71c0.36-1.92,2.8-3.18,4.28-4.18c1.48-1,3.16-2.01,4.2-3.51
				c0.78-1.13,0.92-2.44-0.03-3.52c-0.39-0.45-0.98-1.02-1.6-0.99c-0.41,0.02-1.13,0.48-1.55,0.65c-0.52,0.22-1.05,0.43-1.57,0.65
				c-8.9,3.63-18,6.78-27.18,9.6c-1.23,0.38-2.9,1.15-3.4-0.66c-0.26-0.96,0.13-2.22,0.25-3.18c0.37-2.85,0.74-5.7,1.1-8.55
				c0.06-0.45-0.53-0.69-0.86-0.5c-7.14,4.18-14.29,8.36-21.43,12.54c0.26,0.07,0.52,0.14,0.79,0.21c-2.2-3.83-5.61-6.77-9.2-9.26
				c-0.33-0.23-0.72,0.03-0.84,0.34c-1.42,3.67-2.84,7.35-4.26,11.02c0.24-0.13,0.47-0.27,0.71-0.4
				c-13.7-2.26-27.39-4.53-41.09-6.79c-0.72-0.12-1.04,0.97-0.31,1.11c10.46,2.02,21.06,4.68,30.66,9.39
				C889.69,587.43,890.27,586.44,889.61,586.11L889.61,586.11z"/>
		</g>
	</g>
	<g>
		<path class="st9" d="M909.1,367.88c-3.13-1.63-7.62-1.74-10.89-0.26c0.71,1.7,1.97,3.74,4.41,3.82c1.69,0.06,3.9-0.77,4.77,0.29
			c0.59,0.72-0.18,1.58-0.67,2.33c-1.3,1.98-0.49,4.56,1.85,5.94c2.51-1.29,2.74-4.87,5.81-4.82c1.1,0.02,2.02,0.58,2.96,0.99
			c2.7,1.17,6.31,1.14,8.97-0.09c0.78-0.36,1.63-0.83,2.52-0.66c1.2,0.23,2.06,1.56,3.16,1.14c0.33-0.12,0.52-0.38,0.69-0.62
			c1.98-2.8,3.65-6.75,0.21-8.66c0.71-0.27,1.41-0.54,2.12-0.82c-2.39-1.1-5.45-1.38-8.14-0.76c-3.37-0.87-7.13-0.89-10.51-0.07
			c0.97-1.06,1.94-2.12,2.91-3.18c-3.24-1.42-8.14,0.41-8.44,3.16"/>
		<g>
			<path d="M909.63,366.96c-3.72-1.85-8.16-1.89-11.96-0.26c-0.57,0.24-0.58,0.98-0.38,1.44c0.64,1.49,1.57,2.94,3.03,3.73
				c1.83,0.99,3.56,0.31,5.49,0.36c0.6,0.01,0.73,0.07,0.44,0.62c-0.23,0.43-0.56,0.8-0.77,1.25c-0.34,0.74-0.49,1.56-0.43,2.38
				c0.15,1.92,1.4,3.43,2.97,4.42c0.32,0.2,0.74,0.18,1.07,0c1.25-0.7,2.04-1.81,2.84-2.96c1.01-1.44,2.03-2.09,3.81-1.35
				c1.82,0.76,3.48,1.4,5.48,1.48c2.02,0.08,3.95-0.33,5.79-1.16c1.16-0.52,1.69-0.49,2.76,0.15c0.64,0.38,1.29,0.71,2.06,0.61
				c1.54-0.19,2.42-2.08,3.03-3.32c1.42-2.88,1.61-6.15-1.45-7.98c-0.08,0.64-0.17,1.29-0.25,1.93c0.71-0.27,1.41-0.54,2.12-0.82
				c0.74-0.28,1.17-1.53,0.25-1.93c-1.44-0.63-2.92-1.02-4.49-1.17c-1.57-0.15-3.24,0.39-4.75,0.1c-3.42-0.64-6.82-0.66-10.22,0.13
				c0.34,0.59,0.68,1.18,1.03,1.76c0.97-1.06,1.94-2.12,2.91-3.18c0.58-0.63,0.27-1.47-0.47-1.76c-3.19-1.29-9.09-0.14-9.74,3.89
				c-0.21,1.33,1.82,1.9,2.03,0.56c0.47-2.92,4.98-3.29,7.15-2.42c-0.16-0.59-0.31-1.18-0.47-1.76c-0.97,1.06-1.94,2.12-2.91,3.18
				c-0.72,0.78-0.01,2,1.03,1.76c3.05-0.7,6.25-0.76,9.32-0.08c1.34,0.3,2.66-0.15,4.04-0.13c1.53,0.02,3.07,0.32,4.48,0.94
				c0.08-0.64,0.17-1.29,0.25-1.93c-0.71,0.27-1.41,0.54-2.12,0.82c-0.82,0.32-1.08,1.43-0.25,1.93c1.3,0.78,1.68,1.94,1.33,3.4
				c-0.18,0.75-0.49,1.46-0.86,2.14c-0.24,0.45-0.62,1.42-1.05,1.68c-0.59,0.34-1.5-0.57-2.09-0.81c-0.61-0.25-1.23-0.32-1.88-0.2
				c-0.88,0.16-1.65,0.65-2.48,0.96c-0.85,0.31-1.75,0.5-2.66,0.58c-1.84,0.15-3.64-0.15-5.32-0.92c-1.36-0.62-2.73-1.16-4.24-0.73
				c-2.48,0.72-2.97,3.61-5.07,4.79c0.36,0,0.71,0,1.07,0c-1.59-1.01-2.5-2.75-1.47-4.49c0.48-0.82,1.13-1.53,0.99-2.55
				c-0.1-0.73-0.58-1.29-1.24-1.61c-1.57-0.76-3.33,0.12-4.97-0.07c-1.75-0.2-2.66-1.81-3.29-3.28c-0.13,0.48-0.25,0.96-0.38,1.44
				c3.05-1.31,6.85-1.22,9.83,0.26C909.78,369.39,910.85,367.57,909.63,366.96L909.63,366.96z"/>
		</g>
	</g>
	<g>
		<path class="st10" d="M297.08-0.92c1.46,16.22,10.16,32.82,16.02,47.91c7.13,18.36,14.24,36.73,21.36,55.09
			c2.92,7.54,5.87,15.18,6.75,23.22c0.82,7.53-0.21,15.12-1.23,22.62c-3.71,27.18-8.04,55.83-25.27,77.18
			c-3.22,3.99-6.97,7.89-8.15,12.88c-1.94,8.23,3.63,16.12,8.33,23.15c19.67,29.42,28.54,65,30.85,100.31s-1.57,70.71-5.49,105.88
			c-1.15,10.32-2.31,20.65-4.09,30.88c-5.72,32.92-17.77,64.35-29.74,95.54"/>
		<g>
			<path class="st11" d="M296.03-0.92c0.95,9.61,4.02,18.76,7.58,27.68c3.77,9.43,7.79,18.75,11.47,28.23
				c3.99,10.28,7.97,20.57,11.96,30.85c3.85,9.92,8.26,19.82,11.18,30.06c3.17,11.1,2.09,21.92,0.55,33.18
				c-1.24,9.04-2.55,18.08-4.41,27.02c-3.76,18.18-9.98,35.66-21.93,50.12c-5.42,6.56-9.11,13.2-6.11,21.81
				c3,8.58,9.42,15.84,13.85,23.71c9.57,16.98,15.93,35.6,19.86,54.65c8.71,42.18,5.19,85.58,0.59,128.03
				c-2.35,21.64-4.62,43.24-9.94,64.39c-5.13,20.4-12.21,40.25-19.64,59.91c-1.86,4.92-3.75,9.83-5.63,14.74
				c-0.49,1.27,1.55,1.82,2.03,0.56c7.61-19.81,15.22-39.65,21.26-60.01c5.98-20.19,9.66-40.63,12.03-61.53
				c4.87-42.89,9.99-86.47,4.23-129.54c-2.52-18.88-7.13-37.53-14.56-55.1c-3.69-8.71-8.06-17.13-13.18-25.09
				c-5.16-8.01-13.41-17.8-8.42-27.79c2.01-4.04,5.31-7.28,8.03-10.84c2.71-3.55,5.13-7.32,7.24-11.25
				c4.14-7.69,7.17-15.94,9.5-24.35c2.43-8.8,4.1-17.79,5.5-26.8c1.48-9.57,3.25-19.35,3.48-29.05c0.25-10.3-2.8-19.8-6.47-29.31
				c-3.95-10.25-7.94-20.5-11.91-30.74c-3.96-10.22-7.78-20.52-11.95-30.65c-3.8-9.23-7.99-18.33-10.93-27.89
				c-1.5-4.89-2.64-9.88-3.15-14.98C298.01-2.26,295.89-2.27,296.03-0.92L296.03-0.92z"/>
		</g>
	</g>
	<g>
		<path class="st9" d="M952.35,289.38c-3.13-1.63-7.62-1.74-10.89-0.26c0.71,1.7,1.97,3.74,4.41,3.82c1.69,0.06,3.9-0.77,4.77,0.29
			c0.59,0.72-0.18,1.58-0.67,2.33c-1.3,1.98-0.49,4.56,1.85,5.94c2.51-1.29,2.74-4.87,5.81-4.82c1.1,0.02,2.02,0.58,2.96,0.99
			c2.7,1.17,6.31,1.14,8.97-0.09c0.78-0.36,1.63-0.83,2.52-0.66c1.2,0.23,2.06,1.56,3.16,1.14c0.33-0.12,0.52-0.38,0.69-0.62
			c1.98-2.8,3.65-6.75,0.21-8.66c0.71-0.27,1.41-0.54,2.12-0.82c-2.39-1.1-5.45-1.38-8.14-0.76c-3.37-0.87-7.13-0.89-10.51-0.07
			c0.97-1.06,1.94-2.12,2.91-3.18c-3.24-1.42-8.14,0.41-8.44,3.16"/>
		<g>
			<path d="M952.88,288.47c-3.72-1.85-8.16-1.89-11.96-0.26c-0.57,0.24-0.58,0.98-0.38,1.44c0.64,1.49,1.57,2.94,3.03,3.73
				c1.83,0.99,3.56,0.31,5.49,0.36c0.6,0.01,0.73,0.07,0.44,0.62c-0.23,0.43-0.56,0.8-0.77,1.25c-0.34,0.74-0.49,1.56-0.43,2.38
				c0.15,1.92,1.4,3.43,2.97,4.42c0.32,0.2,0.74,0.18,1.07,0c1.25-0.7,2.04-1.81,2.84-2.96c1.01-1.44,2.03-2.09,3.81-1.35
				c1.82,0.76,3.48,1.4,5.48,1.48c2.02,0.08,3.95-0.33,5.79-1.16c1.16-0.52,1.69-0.49,2.76,0.15c0.64,0.38,1.29,0.71,2.06,0.61
				c1.54-0.19,2.42-2.08,3.03-3.32c1.42-2.88,1.61-6.15-1.45-7.98c-0.08,0.64-0.17,1.29-0.25,1.93c0.71-0.27,1.41-0.54,2.12-0.82
				c0.74-0.28,1.17-1.53,0.25-1.93c-1.44-0.63-2.92-1.02-4.49-1.17c-1.57-0.15-3.24,0.39-4.75,0.1c-3.42-0.64-6.82-0.66-10.22,0.13
				c0.34,0.59,0.68,1.18,1.03,1.76c0.97-1.06,1.94-2.12,2.91-3.18c0.58-0.63,0.27-1.47-0.47-1.76c-3.19-1.29-9.09-0.14-9.74,3.89
				c-0.21,1.33,1.82,1.9,2.03,0.56c0.47-2.92,4.98-3.29,7.15-2.42c-0.16-0.59-0.31-1.18-0.47-1.76c-0.97,1.06-1.94,2.12-2.91,3.18
				c-0.72,0.78-0.01,2,1.03,1.76c3.05-0.7,6.25-0.76,9.32-0.08c1.34,0.3,2.66-0.15,4.04-0.13c1.53,0.02,3.07,0.32,4.48,0.94
				c0.08-0.64,0.17-1.29,0.25-1.93c-0.71,0.27-1.41,0.54-2.12,0.82c-0.82,0.32-1.08,1.43-0.25,1.93c1.3,0.78,1.68,1.94,1.33,3.4
				c-0.18,0.75-0.5,1.46-0.86,2.14c-0.24,0.45-0.62,1.42-1.05,1.68c-0.59,0.34-1.5-0.57-2.09-0.81c-0.61-0.25-1.23-0.32-1.88-0.2
				c-0.88,0.16-1.65,0.65-2.48,0.96c-0.85,0.31-1.75,0.5-2.66,0.58c-1.84,0.15-3.64-0.15-5.32-0.92c-1.36-0.62-2.73-1.16-4.24-0.73
				c-2.48,0.72-2.97,3.61-5.07,4.79c0.36,0,0.71,0,1.07,0c-1.59-1.01-2.5-2.75-1.47-4.49c0.48-0.82,1.13-1.53,0.99-2.55
				c-0.1-0.73-0.58-1.29-1.24-1.61c-1.57-0.76-3.33,0.12-4.97-0.07c-1.75-0.2-2.66-1.81-3.29-3.28c-0.13,0.48-0.25,0.96-0.38,1.44
				c3.05-1.31,6.85-1.22,9.83,0.26C953.03,290.89,954.1,289.07,952.88,288.47L952.88,288.47z"/>
		</g>
	</g>
	<g>
		<path class="st9" d="M1290.36,237.58c-2.41-1.13-5.85-1.21-8.36-0.18c0.54,1.18,1.51,2.6,3.38,2.66c1.3,0.04,2.99-0.54,3.66,0.2
			c0.45,0.5-0.14,1.1-0.52,1.62c-1,1.37-0.38,3.17,1.42,4.13c1.93-0.9,2.1-3.39,4.46-3.35c0.85,0.01,1.55,0.4,2.27,0.69
			c2.08,0.82,4.85,0.79,6.89-0.06c0.6-0.25,1.25-0.58,1.93-0.46c0.92,0.16,1.58,1.08,2.43,0.79c0.25-0.09,0.4-0.26,0.53-0.43
			c1.52-1.95,2.8-4.69,0.16-6.02c0.54-0.19,1.08-0.38,1.63-0.57c-1.83-0.76-4.18-0.96-6.25-0.53c-2.58-0.6-5.47-0.62-8.07-0.05
			c0.74-0.74,1.49-1.47,2.23-2.21c-2.49-0.99-6.25,0.29-6.48,2.19"/>
		<g>
			<path d="M1290.75,236.91c-2.8-1.24-6.09-1.35-8.96-0.26c-0.49,0.19-0.69,0.65-0.46,1.13c0.57,1.19,1.41,2.28,2.68,2.76
				c0.66,0.25,1.35,0.3,2.05,0.25c0.51-0.04,2.32-0.5,2.1,0.28c-0.08,0.3-0.46,0.62-0.6,0.94c-0.12,0.27-0.2,0.55-0.24,0.84
				c-0.09,0.65,0.03,1.31,0.32,1.9c0.5,1.01,1.78,2.42,2.96,1.77c1.19-0.66,1.63-2.04,2.7-2.77c0.88-0.6,1.82-0.22,2.72,0.14
				c0.83,0.33,1.63,0.58,2.52,0.7c1.76,0.24,3.57,0.08,5.23-0.57c0.56-0.22,0.95-0.44,1.56-0.36c0.52,0.07,0.85,0.33,1.31,0.54
				c0.61,0.27,1.24,0.33,1.83-0.01c1.2-0.69,2.13-2.72,2.37-4.04c0.29-1.6-0.44-2.87-1.83-3.64c-0.06,0.47-0.12,0.94-0.18,1.41
				c0.54-0.19,1.08-0.38,1.63-0.57c0.75-0.26,0.71-1.21,0-1.49c-1.11-0.43-2.27-0.68-3.46-0.76c-1.23-0.08-2.45,0.23-3.66,0.05
				c-2.56-0.38-5.06-0.39-7.61,0.13c0.25,0.43,0.5,0.86,0.75,1.29c0.74-0.74,1.49-1.47,2.23-2.21c0.44-0.43,0.19-1.1-0.34-1.29
				c-2.34-0.83-6.85-0.26-7.43,2.73c-0.19,0.97,1.3,1.38,1.49,0.41c0.42-2.12,3.99-2.21,5.53-1.66c-0.11-0.43-0.23-0.86-0.34-1.29
				c-0.74,0.74-1.49,1.47-2.23,2.21c-0.57,0.57,0.02,1.44,0.75,1.29c2.55-0.52,4.89-0.34,7.44,0c0.98,0.13,1.98-0.17,2.98-0.15
				c1.2,0.03,2.36,0.29,3.48,0.72c0-0.5,0-0.99,0-1.49c-0.54,0.19-1.08,0.38-1.63,0.57c-0.6,0.21-0.79,1.07-0.18,1.41
				c1.18,0.66,1.34,1.63,0.86,2.83c-0.42,1.05-1.13,2.48-2.4,1.81c-1.03-0.54-1.88-0.49-2.96-0.09c-1.26,0.47-2.43,0.79-3.79,0.78
				c-1.32-0.01-2.47-0.35-3.68-0.83c-0.95-0.38-1.93-0.61-2.94-0.3c-1.72,0.53-2.23,2.5-3.76,3.3c0.26,0,0.52,0,0.78,0
				c-0.65-0.38-1.34-0.93-1.48-1.73c-0.14-0.81,0.35-1.26,0.74-1.89c0.53-0.85,0.5-1.83-0.46-2.35c-1.04-0.56-2.31-0.11-3.42-0.09
				c-1.55,0.02-2.42-0.97-3.05-2.27c-0.15,0.38-0.31,0.75-0.46,1.13c2.46-0.94,5.34-0.97,7.77,0.1
				C1290.87,238.64,1291.66,237.31,1290.75,236.91L1290.75,236.91z"/>
		</g>
	</g>
	<g>
		<g>
			<path d="M1165.42,73.65c8.59-1.42,17.01-3.78,25.06-7.07c3.89-1.59,7.64-3.44,11.41-5.29c3.77-1.84,7.63-3.6,11.78-4.36
				c8.26-1.53,16.03,2.31,23.05,6.19c7.48,4.14,14.99,8.05,22.97,11.17c9.03,3.54,18.38,6.2,27.91,7.97c1.89,0.35,2.7-2.54,0.8-2.89
				c-8.56-1.59-16.98-3.9-25.15-6.92c-8.16-3.02-15.9-6.83-23.49-11.07c-7.06-3.95-14.68-8.09-23.02-7.79
				c-8.59,0.31-16.03,5.19-23.63,8.62c-9.07,4.09-18.69,6.92-28.49,8.55C1162.73,71.07,1163.53,73.97,1165.42,73.65L1165.42,73.65z"
				/>
		</g>
	</g>
	<g>
		<g>
			<path d="M1195.99,37.81c11.09-6.33,22.35-12.36,33.77-18.09c2.78-1.4,5.56-2.93,8.52-3.92c3.05-1.02,6.21-1.14,9.37-0.66
				c3.1,0.47,6.13,1.33,9.16,2.12c3.1,0.81,6.21,1.62,9.31,2.43c7.16,1.87,14.32,3.74,21.48,5.6c1.87,0.49,2.67-2.41,0.8-2.89
				c-6.52-1.7-13.05-3.4-19.57-5.1c-6.43-1.68-12.89-3.73-19.43-4.89c-3.08-0.55-6.19-0.76-9.28-0.19c-2.97,0.55-5.74,1.87-8.42,3.2
				c-5.94,2.93-11.82,5.95-17.67,9.05c-6.57,3.48-13.08,7.07-19.54,10.75C1192.8,36.18,1194.31,38.77,1195.99,37.81L1195.99,37.81z"
				/>
		</g>
	</g>
	<g>
		<path class="st8" d="M1156.99,616.93c-3.98-5.17-9.49-9.62-15.98-12.89c7.1,3.09,14.21,6.17,21.31,9.26
			c0.74-5.01,1.47-10.02,2.21-15.03c2.19,3.95,3.76,8.11,4.67,12.35c3.71-5.7,7.41-11.4,11.12-17.1c-0.23,4.75-0.47,9.5-0.7,14.26
			c-0.07,1.5-0.11,3.1,0.92,4.37c6.2-4.89,11.88-10.2,16.94-15.84c1.55,2.45,0.64,5.4-0.69,7.92c-1.34,2.52-3.1,5.01-3.23,7.74
			c8.33-4.86,16.66-9.72,24.99-14.57c-4.36,5.25-8.79,10.64-10.5,16.75c7.47-3.5,15.13-6.75,22.96-9.74
			c-4.2,2.5-7.68,5.74-10.1,9.41c-0.41,0.62-0.83,1.29-1.59,1.67c-1.12,0.56-2.58,0.32-3.87,0.06c-7.69-1.57-15.38-3.14-23.07-4.72
			c-1.7-0.35-3.45-0.7-5.19-0.48c-2.62,0.33-4.66,1.87-6.84,3.04c-6.75,3.62-15.46,3.92-23.65,4.09"/>
		<g>
			<path d="M1157.33,616.59c-4.28-5.5-9.88-9.81-16.08-12.96c-0.16,0.28-0.33,0.56-0.49,0.83c7.1,3.09,14.21,6.17,21.31,9.26
				c0.25,0.11,0.66,0.05,0.71-0.29c0.74-5.01,1.47-10.02,2.21-15.03c-0.29,0.04-0.59,0.08-0.88,0.12c2.11,3.85,3.68,7.94,4.62,12.24
				c0.09,0.43,0.67,0.44,0.88,0.12c3.71-5.7,7.41-11.4,11.12-17.1c-0.3-0.08-0.6-0.16-0.9-0.24c-0.17,3.52-0.35,7.05-0.52,10.57
				c-0.13,2.64-0.88,6,0.8,8.3c0.2,0.27,0.5,0.3,0.76,0.1c6.07-4.81,11.76-10.08,16.94-15.84c-0.25-0.03-0.51-0.07-0.76-0.1
				c1.66,2.86,0.14,5.97-1.31,8.56c-1.22,2.17-2.48,4.32-2.67,6.85c-0.03,0.37,0.43,0.59,0.73,0.42
				c8.33-4.86,16.66-9.72,24.99-14.57c-0.2-0.25-0.39-0.51-0.59-0.76c-4.25,5.13-8.73,10.45-10.63,16.96
				c-0.13,0.44,0.35,0.72,0.71,0.55c7.5-3.5,15.12-6.73,22.84-9.69c-0.12-0.29-0.25-0.59-0.37-0.88c-4.07,2.46-7.61,5.63-10.27,9.58
				c-0.82,1.22-1.71,1.85-3.24,1.76c-1.52-0.09-3.06-0.54-4.55-0.84c-2.88-0.59-5.77-1.18-8.65-1.77c-2.88-0.59-5.77-1.18-8.65-1.77
				c-2.58-0.53-5.31-1.36-7.96-1.11c-2.26,0.21-4.2,1.34-6.13,2.45c-2.2,1.28-4.51,2.25-6.98,2.91c-5.73,1.54-11.73,1.67-17.62,1.79
				c-0.62,0.01-0.62,0.98,0,0.97c5.23-0.11,10.5-0.25,15.64-1.3c2.33-0.48,4.63-1.16,6.8-2.14c2.3-1.04,4.35-2.69,6.79-3.41
				c3-0.89,6.24,0.17,9.2,0.77c2.88,0.59,5.77,1.18,8.65,1.77c2.88,0.59,5.77,1.18,8.65,1.77c2.08,0.42,5.01,1.54,7.07,0.51
				c0.94-0.47,1.46-1.35,2.03-2.19c0.8-1.16,1.69-2.26,2.65-3.29c2.07-2.21,4.47-4.06,7.06-5.62c0.45-0.27,0.16-1.09-0.37-0.88
				c-7.8,2.99-15.5,6.25-23.07,9.79c0.24,0.18,0.47,0.36,0.71,0.55c1.84-6.35,6.23-11.54,10.38-16.54c0.33-0.4-0.08-1.05-0.59-0.76
				c-8.33,4.86-16.66,9.72-24.99,14.57c0.24,0.14,0.48,0.28,0.73,0.42c0.42-5.41,7.13-10.24,3.85-15.9
				c-0.15-0.26-0.55-0.33-0.76-0.1c-5.18,5.76-10.87,11.03-16.94,15.84c0.25,0.03,0.51,0.07,0.76,0.1
				c-0.91-1.24-0.92-2.65-0.85-4.12c0.07-1.56,0.15-3.11,0.23-4.67c0.16-3.2,0.31-6.39,0.47-9.59c0.02-0.5-0.65-0.62-0.9-0.24
				c-3.71,5.7-7.41,11.4-11.12,17.1c0.29,0.04,0.59,0.08,0.88,0.12c-0.96-4.37-2.56-8.54-4.72-12.47c-0.18-0.34-0.82-0.31-0.88,0.12
				c-0.74,5.01-1.47,10.02-2.21,15.03c0.24-0.1,0.47-0.19,0.71-0.29c-7.1-3.09-14.21-6.17-21.31-9.26
				c-0.56-0.24-1.05,0.55-0.49,0.83c6.13,3.12,11.65,7.37,15.88,12.81C1157.03,617.76,1157.71,617.07,1157.33,616.59L1157.33,616.59
				z"/>
		</g>
	</g>
	<g>
		<path class="st9" d="M1268.11,414.37c-2.41-1.13-5.85-1.21-8.36-0.18c0.54,1.18,1.51,2.6,3.38,2.66c1.3,0.04,2.99-0.54,3.66,0.2
			c0.45,0.5-0.14,1.1-0.52,1.62c-1,1.37-0.38,3.17,1.42,4.13c1.93-0.9,2.1-3.39,4.46-3.35c0.85,0.01,1.55,0.4,2.27,0.69
			c2.08,0.82,4.85,0.79,6.89-0.06c0.6-0.25,1.25-0.58,1.93-0.46c0.92,0.16,1.58,1.08,2.43,0.79c0.25-0.09,0.4-0.26,0.53-0.43
			c1.52-1.95,2.8-4.69,0.16-6.02c0.54-0.19,1.08-0.38,1.63-0.57c-1.83-0.76-4.18-0.96-6.25-0.53c-2.58-0.6-5.47-0.62-8.07-0.05
			c0.74-0.74,1.49-1.47,2.23-2.21c-2.49-0.99-6.25,0.29-6.48,2.19"/>
		<g>
			<path d="M1268.5,413.7c-2.8-1.24-6.09-1.35-8.96-0.26c-0.49,0.19-0.69,0.65-0.46,1.13c0.57,1.19,1.41,2.28,2.68,2.76
				c0.66,0.25,1.35,0.3,2.05,0.25c0.51-0.04,2.32-0.5,2.1,0.28c-0.08,0.3-0.46,0.62-0.6,0.94c-0.12,0.27-0.2,0.55-0.24,0.84
				c-0.09,0.65,0.03,1.31,0.32,1.9c0.5,1.01,1.78,2.42,2.96,1.77c1.19-0.66,1.63-2.04,2.7-2.77c0.88-0.6,1.82-0.22,2.72,0.14
				c0.83,0.33,1.63,0.58,2.52,0.7c1.76,0.24,3.57,0.08,5.23-0.57c0.56-0.22,0.95-0.44,1.56-0.36c0.52,0.07,0.85,0.33,1.31,0.54
				c0.61,0.27,1.24,0.33,1.83-0.01c1.2-0.69,2.13-2.72,2.37-4.04c0.29-1.6-0.44-2.87-1.83-3.64c-0.06,0.47-0.12,0.94-0.18,1.41
				c0.54-0.19,1.08-0.38,1.63-0.57c0.75-0.26,0.71-1.21,0-1.49c-1.11-0.43-2.27-0.68-3.46-0.76c-1.23-0.08-2.45,0.23-3.66,0.05
				c-2.56-0.38-5.06-0.39-7.61,0.13c0.25,0.43,0.5,0.86,0.75,1.29c0.74-0.74,1.49-1.47,2.23-2.21c0.44-0.43,0.19-1.1-0.34-1.29
				c-2.34-0.83-6.85-0.26-7.43,2.73c-0.19,0.97,1.3,1.38,1.49,0.41c0.42-2.12,3.99-2.21,5.53-1.66c-0.11-0.43-0.23-0.86-0.34-1.29
				c-0.74,0.74-1.49,1.47-2.23,2.21c-0.57,0.57,0.02,1.44,0.75,1.29c2.55-0.52,4.89-0.34,7.44,0c0.98,0.13,1.98-0.17,2.98-0.15
				c1.2,0.03,2.36,0.29,3.48,0.72c0-0.5,0-0.99,0-1.49c-0.54,0.19-1.08,0.38-1.63,0.57c-0.6,0.21-0.79,1.07-0.18,1.41
				c1.18,0.66,1.34,1.63,0.86,2.83c-0.42,1.05-1.13,2.48-2.4,1.81c-1.03-0.54-1.88-0.49-2.96-0.09c-1.26,0.47-2.43,0.79-3.79,0.78
				c-1.32-0.01-2.47-0.35-3.68-0.83c-0.95-0.38-1.93-0.61-2.94-0.3c-1.72,0.53-2.23,2.5-3.76,3.3c0.26,0,0.52,0,0.78,0
				c-0.65-0.38-1.34-0.93-1.48-1.73c-0.14-0.81,0.35-1.26,0.74-1.89c0.53-0.85,0.5-1.83-0.46-2.35c-1.04-0.56-2.31-0.11-3.42-0.09
				c-1.55,0.02-2.42-0.97-3.05-2.27c-0.15,0.38-0.31,0.75-0.46,1.13c2.46-0.94,5.34-0.97,7.77,0.1
				C1268.62,415.43,1269.4,414.1,1268.5,413.7L1268.5,413.7z"/>
		</g>
	</g>
	<g>
		<path class="st9" d="M1225.11,591.37c-2.41-1.13-5.85-1.21-8.36-0.18c0.54,1.18,1.51,2.6,3.38,2.66c1.3,0.04,2.99-0.54,3.66,0.2
			c0.45,0.5-0.14,1.1-0.52,1.62c-1,1.37-0.38,3.17,1.42,4.13c1.93-0.9,2.1-3.39,4.46-3.35c0.85,0.01,1.55,0.4,2.27,0.69
			c2.08,0.82,4.85,0.79,6.89-0.06c0.6-0.25,1.25-0.58,1.93-0.46c0.92,0.16,1.58,1.08,2.43,0.79c0.25-0.09,0.4-0.26,0.53-0.43
			c1.52-1.95,2.8-4.69,0.16-6.02c0.54-0.19,1.08-0.38,1.63-0.57c-1.83-0.76-4.18-0.96-6.25-0.53c-2.58-0.6-5.47-0.62-8.07-0.05
			c0.74-0.74,1.49-1.47,2.23-2.21c-2.49-0.99-6.25,0.29-6.48,2.19"/>
		<g>
			<path d="M1225.5,590.7c-2.8-1.24-6.09-1.35-8.96-0.26c-0.49,0.19-0.69,0.65-0.46,1.13c0.57,1.19,1.41,2.28,2.68,2.76
				c0.66,0.25,1.35,0.3,2.05,0.25c0.51-0.04,2.32-0.5,2.1,0.28c-0.08,0.3-0.46,0.62-0.6,0.94c-0.12,0.27-0.2,0.55-0.24,0.84
				c-0.09,0.65,0.03,1.31,0.32,1.9c0.5,1.01,1.78,2.42,2.96,1.77c1.19-0.66,1.63-2.04,2.7-2.77c0.88-0.6,1.82-0.22,2.72,0.14
				c0.83,0.33,1.63,0.58,2.52,0.7c1.76,0.24,3.57,0.08,5.23-0.57c0.56-0.22,0.95-0.44,1.56-0.36c0.52,0.07,0.85,0.33,1.31,0.54
				c0.61,0.27,1.24,0.33,1.83-0.01c1.2-0.69,2.13-2.72,2.37-4.04c0.29-1.6-0.44-2.87-1.83-3.64c-0.06,0.47-0.12,0.94-0.18,1.41
				c0.54-0.19,1.08-0.38,1.63-0.57c0.75-0.26,0.71-1.21,0-1.49c-1.11-0.43-2.27-0.68-3.46-0.76c-1.23-0.08-2.45,0.23-3.66,0.05
				c-2.56-0.38-5.06-0.39-7.61,0.13c0.25,0.43,0.5,0.86,0.75,1.29c0.74-0.74,1.49-1.47,2.23-2.21c0.44-0.43,0.19-1.1-0.34-1.29
				c-2.34-0.83-6.85-0.26-7.43,2.73c-0.19,0.97,1.3,1.38,1.49,0.41c0.42-2.12,3.99-2.21,5.53-1.66c-0.11-0.43-0.23-0.86-0.34-1.29
				c-0.74,0.74-1.49,1.47-2.23,2.21c-0.57,0.57,0.02,1.44,0.75,1.29c2.55-0.52,4.89-0.34,7.44,0c0.98,0.13,1.98-0.17,2.98-0.15
				c1.2,0.03,2.36,0.29,3.48,0.72c0-0.5,0-0.99,0-1.49c-0.54,0.19-1.08,0.38-1.63,0.57c-0.6,0.21-0.79,1.07-0.18,1.41
				c1.18,0.66,1.34,1.63,0.86,2.83c-0.42,1.05-1.13,2.48-2.4,1.81c-1.03-0.54-1.88-0.49-2.96-0.09c-1.26,0.47-2.43,0.79-3.79,0.78
				c-1.32-0.01-2.47-0.35-3.68-0.83c-0.95-0.38-1.93-0.61-2.94-0.3c-1.72,0.53-2.23,2.5-3.76,3.3c0.26,0,0.52,0,0.78,0
				c-0.65-0.38-1.34-0.93-1.48-1.73c-0.14-0.81,0.35-1.26,0.74-1.89c0.53-0.85,0.5-1.83-0.46-2.35c-1.04-0.56-2.31-0.11-3.42-0.09
				c-1.55,0.02-2.42-0.97-3.05-2.27c-0.15,0.38-0.31,0.75-0.46,1.13c2.46-0.94,5.34-0.97,7.77,0.1
				C1225.62,592.43,1226.4,591.1,1225.5,590.7L1225.5,590.7z"/>
		</g>
	</g>
	<g>
		<g>
			<path class="st11" d="M307,609.06c1.36,0,1.36-2.11,0-2.11C305.64,606.94,305.64,609.06,307,609.06L307,609.06z"/>
		</g>
	</g>
	<g>
		<g>
			<path class="st11" d="M310.98,603.34c-3.73,4.92-7.46,9.85-11.19,14.77c-3.41,4.51-7.13,8.93-9.88,13.9
				c-2.69,4.86-3.75,10.11-4.35,15.58c-0.64,5.85-1.33,11.65-2.43,17.43c-2.21,11.63-5.25,23.11-6.62,34.89
				c-1.25,10.77-0.85,21.68,1.12,32.34c2.22,12,6.48,23.59,12.54,34.18c0.67,1.18,2.5,0.12,1.82-1.07
				c-10.64-18.61-15.51-40.35-13.75-61.71c0.96-11.62,3.86-22.95,6.18-34.34c1.14-5.6,2.14-11.24,2.75-16.93
				c0.6-5.6,0.91-11.37,3.2-16.61c2.45-5.6,6.52-10.39,10.18-15.23c4.08-5.38,8.16-10.77,12.23-16.15
				C313.63,603.32,311.79,602.27,310.98,603.34L310.98,603.34z"/>
		</g>
	</g>
</g>
<g id="Babies">
	<g>
		<path class="st5" d="M643.8,161.73c-3.86-1.6-7.83-3.22-12.01-3.33s-8.67,1.61-10.68,5.28c4.16,3.05,8.55,6.21,13.65,6.94
			c5.11,0.73,11.09-1.86,12.32-6.87"/>
		<g>
			<path d="M644.2,160.28c-4.52-1.87-9.39-3.85-14.39-3.3c-4.03,0.44-7.91,2.33-10,5.94c-0.44,0.76-0.12,1.57,0.54,2.05
				c4.81,3.53,10.31,7.46,16.57,7.26c5.03-0.16,10.24-2.97,11.62-8.09c0.5-1.87-2.39-2.66-2.89-0.8c-1.12,4.16-5.73,6.07-9.72,5.88
				c-5.29-0.25-9.95-3.84-14.05-6.84c0.18,0.68,0.36,1.37,0.54,2.05c1.72-2.98,5.15-4.41,8.49-4.53c4.37-0.16,8.55,1.63,12.51,3.27
				C645.19,163.91,645.96,161.01,644.2,160.28L644.2,160.28z"/>
		</g>
	</g>
	<g>
		<path class="st4" d="M618.79,163.47c-2.74-1.36-6.33-2.63-8.57-0.55c-2.41,2.25-0.66,6.74,2.43,7.91c3.08,1.17,6.55,0,9.45-1.58"
			/>
		<g>
			<path d="M619.55,162.17c-2.01-1-4.29-1.96-6.58-1.85c-2.3,0.11-4.4,1.42-5.13,3.67c-0.6,1.84-0.07,4.02,1.02,5.58
				c1.37,1.96,3.35,2.98,5.72,3.2c2.89,0.27,5.78-0.88,8.28-2.22c1.7-0.91,0.19-3.5-1.51-2.59c-1.66,0.89-3.5,1.7-5.39,1.83
				c-0.99,0.07-1.88-0.03-2.81-0.37c-0.21-0.08-0.04-0.01,0,0.01c-0.09-0.04-0.17-0.08-0.26-0.13c-0.15-0.08-0.29-0.17-0.43-0.26
				c-0.03-0.02-0.27-0.19-0.14-0.09c0.12,0.09-0.07-0.06-0.07-0.06c-0.16-0.15-0.32-0.29-0.47-0.45c-0.04-0.05-0.34-0.39-0.19-0.2
				c-0.1-0.13-0.2-0.28-0.29-0.42c-0.09-0.14-0.18-0.29-0.25-0.44c-0.04-0.09-0.09-0.17-0.13-0.26c0.09,0.19-0.01-0.02-0.04-0.11
				c-0.29-0.81-0.31-0.97-0.26-1.78c0.02-0.23-0.05,0.23,0,0c0.02-0.06,0.03-0.13,0.04-0.19c0.02-0.07,0.19-0.54,0.07-0.27
				c0.06-0.14,0.14-0.28,0.22-0.41c0.03-0.06,0.07-0.11,0.11-0.17c-0.16,0.21,0.03-0.03,0.07-0.07c0.28-0.26,0.41-0.38,0.8-0.57
				c-0.14,0.07,0.25-0.09,0.32-0.11c0.1-0.03,0.21-0.06,0.31-0.08c0.04-0.01,0.37-0.05,0.16-0.03c1.82-0.18,3.66,0.6,5.32,1.42
				c0.73,0.36,1.62,0.19,2.05-0.54C620.47,163.56,620.27,162.53,619.55,162.17L619.55,162.17z"/>
		</g>
	</g>
	<g>
		<path class="st6" d="M624.12,160.96c-0.98-3.65,0.71-7.85,3.95-9.8c1.07,1.77,1.72,3.78,1.89,5.83"/>
		<g>
			<path d="M625.57,160.57c-0.06-0.22-0.1-0.45-0.15-0.67c-0.03-0.13-0.03-0.16-0.01-0.01c-0.02-0.11-0.03-0.23-0.04-0.34
				c-0.04-0.43-0.04-0.87-0.01-1.3c0.01-0.11,0.02-0.23,0.03-0.34c0.02-0.18-0.04,0.21,0.01-0.08c0.04-0.23,0.08-0.45,0.14-0.68
				c0.1-0.43,0.24-0.84,0.4-1.25c0.09-0.22-0.09,0.19,0.01-0.02c0.05-0.1,0.1-0.21,0.15-0.31c0.1-0.21,0.21-0.41,0.33-0.61
				c0.1-0.18,0.22-0.35,0.33-0.52c0.06-0.09,0.13-0.19,0.2-0.28c-0.12,0.17,0,0,0.06-0.08c0.28-0.34,0.58-0.65,0.9-0.94
				c0.09-0.08,0.17-0.15,0.26-0.22c0.19-0.16-0.28,0.19,0.08-0.06c0.19-0.13,0.38-0.26,0.58-0.38c-0.68-0.18-1.37-0.36-2.05-0.54
				c0.51,0.86,0.84,1.55,1.13,2.45c0.14,0.44,0.26,0.88,0.36,1.33c0.12,0.56,0.16,0.81,0.2,1.3c0.07,0.78,0.64,1.54,1.5,1.5
				c0.75-0.03,1.58-0.66,1.5-1.5c-0.21-2.34-0.89-4.57-2.1-6.59c-0.41-0.69-1.36-0.97-2.05-0.54c-3.82,2.35-5.77,7.15-4.64,11.49
				c0.2,0.78,1.07,1.26,1.85,1.05C625.32,162.19,625.77,161.35,625.57,160.57L625.57,160.57z"/>
		</g>
	</g>
</g>
<g id="Vegetation">
	<g>
		<path class="st8" d="M1016.98,357.41c-3.98-5.17-9.49-9.62-15.98-12.89c7.1,3.09,14.21,6.17,21.31,9.26
			c0.74-5.01,1.47-10.02,2.21-15.03c2.19,3.95,3.76,8.11,4.67,12.35c3.71-5.7,7.41-11.4,11.12-17.1c-0.23,4.75-0.47,9.5-0.7,14.26
			c-0.07,1.5-0.11,3.1,0.92,4.37c6.2-4.89,11.88-10.2,16.94-15.84c1.55,2.45,0.64,5.4-0.69,7.92c-1.34,2.52-3.1,5.01-3.23,7.74
			c8.33-4.86,16.66-9.72,24.99-14.57c-4.36,5.25-8.79,10.64-10.5,16.75c7.47-3.5,15.13-6.75,22.96-9.74
			c-4.2,2.5-7.68,5.74-10.1,9.41c-0.41,0.62-0.83,1.29-1.59,1.67c-1.12,0.56-2.58,0.32-3.87,0.06c-7.69-1.57-15.38-3.14-23.07-4.72
			c-1.7-0.35-3.45-0.7-5.19-0.48c-2.62,0.33-4.66,1.87-6.84,3.04c-6.75,3.62-15.46,3.92-23.65,4.09"/>
		<g>
			<path d="M1017.32,357.07c-4.28-5.5-9.88-9.81-16.08-12.96c-0.16,0.28-0.33,0.56-0.49,0.83c7.1,3.09,14.21,6.17,21.31,9.26
				c0.25,0.11,0.66,0.05,0.71-0.29c0.74-5.01,1.47-10.02,2.21-15.03c-0.29,0.04-0.59,0.08-0.88,0.12c2.11,3.85,3.68,7.94,4.62,12.24
				c0.09,0.43,0.67,0.44,0.88,0.12c3.71-5.7,7.41-11.4,11.12-17.1c-0.3-0.08-0.6-0.16-0.9-0.24c-0.17,3.52-0.35,7.05-0.52,10.57
				c-0.13,2.64-0.88,6,0.8,8.3c0.2,0.27,0.5,0.3,0.76,0.1c6.07-4.81,11.76-10.08,16.94-15.84c-0.25-0.03-0.51-0.07-0.76-0.1
				c1.66,2.86,0.14,5.97-1.31,8.56c-1.22,2.17-2.48,4.32-2.67,6.85c-0.03,0.37,0.43,0.59,0.73,0.42
				c8.33-4.86,16.66-9.72,24.99-14.57c-0.2-0.25-0.39-0.51-0.59-0.76c-4.25,5.13-8.73,10.45-10.63,16.96
				c-0.13,0.44,0.35,0.72,0.71,0.55c7.5-3.5,15.12-6.73,22.84-9.69c-0.12-0.29-0.25-0.59-0.37-0.88c-4.07,2.46-7.61,5.63-10.27,9.58
				c-0.82,1.22-1.71,1.85-3.24,1.76c-1.52-0.09-3.06-0.54-4.55-0.84c-2.88-0.59-5.77-1.18-8.65-1.77s-5.77-1.18-8.65-1.77
				c-2.58-0.53-5.31-1.36-7.96-1.11c-2.26,0.21-4.2,1.34-6.13,2.45c-2.2,1.28-4.51,2.25-6.98,2.91c-5.73,1.54-11.73,1.67-17.62,1.79
				c-0.62,0.01-0.62,0.98,0,0.97c5.23-0.11,10.5-0.25,15.64-1.3c2.33-0.48,4.63-1.16,6.8-2.14c2.3-1.04,4.35-2.69,6.79-3.41
				c3-0.89,6.24,0.17,9.2,0.77c2.88,0.59,5.77,1.18,8.65,1.77s5.77,1.18,8.65,1.77c2.08,0.42,5.01,1.54,7.07,0.51
				c0.94-0.47,1.46-1.35,2.03-2.19c0.8-1.16,1.69-2.26,2.65-3.29c2.07-2.21,4.47-4.06,7.06-5.62c0.45-0.27,0.16-1.09-0.37-0.88
				c-7.8,2.99-15.5,6.25-23.07,9.79c0.24,0.18,0.47,0.36,0.71,0.55c1.84-6.35,6.23-11.54,10.38-16.54c0.33-0.4-0.08-1.05-0.59-0.76
				c-8.33,4.86-16.66,9.72-24.99,14.57c0.24,0.14,0.48,0.28,0.73,0.42c0.42-5.41,7.13-10.24,3.85-15.9
				c-0.15-0.26-0.55-0.33-0.76-0.1c-5.18,5.76-10.87,11.03-16.94,15.84c0.25,0.03,0.51,0.07,0.76,0.1
				c-0.91-1.24-0.92-2.65-0.85-4.12c0.07-1.56,0.15-3.11,0.23-4.67c0.16-3.2,0.31-6.39,0.47-9.59c0.02-0.5-0.65-0.62-0.9-0.24
				c-3.71,5.7-7.41,11.4-11.12,17.1c0.29,0.04,0.59,0.08,0.88,0.12c-0.96-4.37-2.56-8.54-4.72-12.47c-0.18-0.34-0.82-0.31-0.88,0.12
				c-0.74,5.01-1.47,10.02-2.21,15.03c0.24-0.1,0.47-0.19,0.71-0.29c-7.1-3.09-14.21-6.17-21.31-9.26
				c-0.56-0.24-1.05,0.55-0.49,0.83c6.13,3.12,11.64,7.37,15.88,12.81C1017.02,358.24,1017.7,357.55,1017.32,357.07L1017.32,357.07z
				"/>
		</g>
	</g>
</g>
</svg>
