<?xml version="1.0" encoding="utf-8"?>
<!-- Generator: Adobe Illustrator 28.2.0, SVG Export Plug-In . SVG Version: 6.00 Build 0)  -->
<svg version="1.1" xmlns="http://www.w3.org/2000/svg" xmlns:xlink="http://www.w3.org/1999/xlink" x="0px" y="0px"
	 viewBox="0 0 1366 768" style="enable-background:new 0 0 1366 768;" xml:space="preserve">
<style type="text/css">
	.st0{fill:#E5FF5C;}
	.st1{fill:#73F1FF;}
	.st2{fill:#2E2B00;}
	.st3{fill:#5C4600;}
	.st4{fill:#725522;}
	.st5{fill:#2E1A00;}
	.st6{fill:#5C4E00;}
	.st7{fill:#134500;}
</style>
<g id="Background">
	<g>
		<rect x="307.5" y="0.5" class="st0" width="1058" height="767"/>
		<path d="M1365,1v766H308V1H1365 M1366,0H307v768h1059V0L1366,0z"/>
	</g>
	<g>
		<rect x="0.5" y="0.5" class="st1" width="306" height="767"/>
		<path d="M306,1v766H1V1H306 M307,0H0v768h307V0L307,0z"/>
	</g>
	<g>
		<g>
			<path d="M78.68,229.32c9.59,3.3,19.65,5.9,29.87,5.16c9.58-0.7,18.75-3.78,28.21-5.2c5.25-0.79,10.63-0.93,15.83,0.29
				c1.88,0.44,2.68-2.45,0.8-2.89c-9.39-2.21-18.89-0.24-28.11,1.83c-4.66,1.05-9.34,2.16-14.09,2.71
				c-5.01,0.59-10.05,0.47-15.02-0.34c-5.7-0.93-11.25-2.59-16.7-4.46C77.65,225.8,76.86,228.69,78.68,229.32L78.68,229.32z"/>
		</g>
	</g>
	<g>
		<g>
			<path d="M69.27,294.25c11.81,8.29,26.34,12.57,40.76,12.15c4.12-0.12,8.22-0.63,12.25-1.5c1.89-0.41,1.09-3.3-0.8-2.89
				c-13.51,2.92-27.97,1.3-40.53-4.48c-3.56-1.64-6.96-3.6-10.16-5.86C69.21,290.55,67.7,293.15,69.27,294.25L69.27,294.25z"/>
		</g>
	</g>
	<g>
		<g>
			<path d="M54.07,398.3c20.02,8.34,41.59,13.03,63.28,13.61c6.39,0.17,12.78-0.12,19.09-1.21c1.9-0.33,1.09-3.22-0.8-2.89
				c-10.76,1.86-21.94,1.3-32.75,0.09c-10.49-1.17-20.87-3.33-30.97-6.38c-5.78-1.75-11.47-3.79-17.05-6.12
				C53.08,394.67,52.31,397.57,54.07,398.3L54.07,398.3z"/>
		</g>
	</g>
	<g>
		<g>
			<path d="M69.54,587.65c10.98,2.58,21.99-0.6,32.71-2.9c5.69-1.22,11.43-2.1,17.23-2.57c2.75-0.22,5.59-0.5,8.35-0.3
				c2.61,0.2,4.85,1.49,7.28,2.33c5.7,1.98,11.87,1.69,17.79,1.37c1.92-0.1,1.93-3.1,0-3c-5.23,0.28-10.62,0.59-15.71-0.86
				c-2.43-0.69-4.66-2.01-7.14-2.54c-2.66-0.56-5.42-0.35-8.11-0.18c-5.68,0.35-11.35,1.06-16.94,2.13
				c-5.4,1.03-10.73,2.44-16.14,3.43c-6.11,1.12-12.4,1.63-18.51,0.2C68.46,584.32,67.66,587.21,69.54,587.65L69.54,587.65z"/>
		</g>
	</g>
	<g>
		<g>
			<path d="M75.4,655.21c15.37,4.01,30.73,8.02,46.1,12.03c14.96,3.91,29.96,8.35,45.39,10.01c8.51,0.92,17.09,0.82,25.51-0.82
				c1.89-0.37,1.09-3.26-0.8-2.89c-15.04,2.93-30.42,0.47-45.15-3c-15-3.54-29.88-7.68-44.79-11.58
				c-8.48-2.21-16.97-4.43-25.45-6.64C74.33,651.83,73.53,654.72,75.4,655.21L75.4,655.21z"/>
		</g>
	</g>
	<g>
		<g>
			<path d="M70,90.38c16.1,0.39,32.2,0.72,48.3,0.99c7.79,0.13,15.69,0.59,23.47-0.15c3.78-0.36,7.44-1.15,11.1-2.14
				c3.57-0.97,7.2-1.97,10.93-1.74c7.57,0.45,13.93,5.73,19.5,10.36c1.47,1.23,3.61-0.89,2.12-2.12
				c-5.24-4.36-10.84-8.94-17.6-10.62c-7.51-1.87-14.41,1.32-21.69,2.66c-7.83,1.45-15.94,0.95-23.85,0.82
				c-8.13-0.13-16.27-0.28-24.4-0.44c-9.3-0.19-18.59-0.39-27.89-0.61C68.07,87.33,68.07,90.34,70,90.38L70,90.38z"/>
		</g>
	</g>
	<g>
		<path class="st2" d="M624.12,167.02c-0.53,4.61-0.3,9.3,0.68,13.83c1.82-3.74,3.64-7.47,5.46-11.21"/>
		<g>
			<path d="M622.62,167.02c-0.53,4.75-0.26,9.55,0.73,14.23c0.26,1.22,2.18,1.5,2.74,0.36c1.82-3.74,3.64-7.47,5.46-11.21
				c0.35-0.73,0.2-1.62-0.54-2.05c-0.66-0.39-1.7-0.19-2.05,0.54c-1.82,3.74-3.64,7.47-5.46,11.21c0.91,0.12,1.83,0.24,2.74,0.36
				c-0.94-4.42-1.12-8.95-0.62-13.43c0.09-0.81-0.75-1.5-1.5-1.5C623.23,165.52,622.71,166.21,622.62,167.02L622.62,167.02z"/>
		</g>
	</g>
	<g>
		<g>
			<path d="M642.45,160.6c1.27-0.45,2.55-0.91,3.82-1.36c-0.39-0.05-0.77-0.1-1.16-0.15c0.02,0.01,0.04,0.03,0.05,0.04
				c-0.1-0.08-0.2-0.16-0.3-0.23c0.18,0.14,0.34,0.3,0.48,0.47c-0.08-0.1-0.16-0.2-0.23-0.3c0.15,0.2,0.28,0.41,0.38,0.64
				c-0.05-0.12-0.1-0.24-0.15-0.36c0.11,0.25,0.18,0.51,0.22,0.78c-0.02-0.13-0.04-0.27-0.05-0.4c0.03,0.25,0.03,0.49,0,0.74
				c0.02-0.13,0.04-0.27,0.05-0.4c-0.03,0.18-0.07,0.35-0.13,0.52c-0.25,0.74,0.29,1.67,1.05,1.85c0.83,0.19,1.57-0.25,1.85-1.05
				c0.52-1.51,0.04-3.36-1.13-4.44c-0.17-0.16-0.37-0.33-0.57-0.45c-0.51-0.29-1-0.21-1.51-0.02c-0.39,0.14-0.77,0.27-1.16,0.41
				c-0.77,0.27-1.54,0.55-2.31,0.82c-0.37,0.13-0.69,0.34-0.9,0.69c-0.19,0.32-0.27,0.8-0.15,1.16
				C640.84,160.28,641.66,160.88,642.45,160.6L642.45,160.6z"/>
		</g>
	</g>
	<g>
		<g>
			<path d="M641.75,170.34c0.72,2.96,4.23,4.93,7.12,3.88c0.58-0.21,1.16-0.76,1.1-1.45c-0.16-1.93-0.31-3.85-0.47-5.78
				c-0.06-0.78-0.64-1.54-1.5-1.5c-0.76,0.03-1.57,0.66-1.5,1.5c0.16,1.93,0.31,3.85,0.47,5.78c0.37-0.48,0.73-0.96,1.1-1.45
				c-0.13,0.05-0.26,0.09-0.39,0.12c-0.06,0.01-0.12,0.03-0.18,0.04c-0.24,0.06,0.33-0.03,0.14-0.02c-0.26,0.02-0.51,0.02-0.78,0.01
				c-0.25-0.01,0.32,0.06,0.14,0.02c-0.06-0.01-0.12-0.02-0.18-0.03c-0.13-0.03-0.27-0.06-0.4-0.1c-0.06-0.02-0.12-0.04-0.18-0.06
				c-0.06-0.02-0.28-0.11-0.03-0.01c0.25,0.11,0.03,0.01-0.03-0.01c-0.07-0.03-0.13-0.07-0.2-0.1c-0.11-0.06-0.22-0.12-0.32-0.19
				c-0.05-0.03-0.1-0.07-0.15-0.11c-0.21-0.14,0.03,0.05,0.09,0.08c-0.21-0.09-0.41-0.38-0.56-0.55c-0.17-0.18,0.02,0.05,0.07,0.1
				c-0.05-0.04-0.1-0.13-0.13-0.18c-0.07-0.1-0.13-0.21-0.19-0.32c-0.02-0.05-0.09-0.15-0.1-0.2c0,0.02,0.13,0.35,0.07,0.15
				c-0.05-0.14-0.09-0.28-0.13-0.43c-0.19-0.76-1.09-1.29-1.85-1.05C642,168.75,641.55,169.53,641.75,170.34L641.75,170.34z"/>
		</g>
	</g>
	<g>
		<path class="st3" d="M686.2,381.4c-2.74-1.36-6.33-2.63-8.57-0.55c-2.41,2.25-0.66,6.74,2.43,7.91c3.08,1.17,6.55,0,9.45-1.58"/>
		<g>
			<path d="M686.96,380.11c-2.01-1-4.29-1.96-6.58-1.85c-2.3,0.11-4.4,1.42-5.13,3.67c-0.6,1.84-0.07,4.02,1.02,5.58
				c1.37,1.96,3.35,2.98,5.72,3.2c2.89,0.27,5.78-0.88,8.28-2.22c1.7-0.91,0.19-3.5-1.51-2.59c-1.66,0.89-3.5,1.7-5.39,1.83
				c-0.99,0.07-1.88-0.03-2.81-0.37c-0.21-0.08-0.04-0.01,0,0.01c-0.09-0.04-0.17-0.08-0.26-0.13c-0.15-0.08-0.29-0.17-0.43-0.26
				c-0.03-0.02-0.27-0.19-0.14-0.09c0.12,0.09-0.07-0.06-0.07-0.06c-0.16-0.15-0.32-0.29-0.47-0.45c-0.04-0.05-0.34-0.39-0.19-0.2
				c-0.1-0.13-0.2-0.28-0.29-0.42c-0.09-0.14-0.18-0.29-0.25-0.44c-0.04-0.09-0.09-0.17-0.13-0.26c0.09,0.19-0.01-0.02-0.04-0.11
				c-0.29-0.81-0.31-0.97-0.26-1.78c0.02-0.23-0.05,0.23,0,0c0.02-0.06,0.03-0.13,0.04-0.19c0.02-0.07,0.19-0.54,0.07-0.27
				c0.06-0.14,0.14-0.28,0.22-0.41c0.03-0.06,0.07-0.11,0.11-0.17c-0.16,0.21,0.03-0.03,0.07-0.07c0.28-0.26,0.41-0.38,0.8-0.57
				c-0.14,0.07,0.25-0.09,0.32-0.11c0.1-0.03,0.21-0.06,0.31-0.08c0.04-0.01,0.37-0.05,0.16-0.03c1.82-0.18,3.66,0.6,5.32,1.42
				c0.73,0.36,1.62,0.19,2.05-0.54C687.88,381.5,687.69,380.47,686.96,380.11L686.96,380.11z"/>
		</g>
	</g>
	<g>
		<path class="st4" d="M711.7,381.66c-3.86-1.6-7.83-3.22-12.01-3.33c-4.18-0.11-8.67,1.61-10.68,5.28
			c4.16,3.05,8.55,6.21,13.65,6.94s11.09-1.86,12.32-6.87"/>
		<g>
			<path d="M712.1,380.22c-4.52-1.87-9.39-3.85-14.39-3.3c-4.03,0.44-7.91,2.33-10,5.94c-0.44,0.76-0.12,1.57,0.54,2.05
				c4.81,3.53,10.31,7.46,16.57,7.26c5.03-0.16,10.24-2.97,11.62-8.09c0.5-1.87-2.39-2.66-2.89-0.8c-1.12,4.16-5.73,6.07-9.72,5.88
				c-5.29-0.25-9.95-3.84-14.05-6.84c0.18,0.68,0.36,1.37,0.54,2.05c1.72-2.98,5.15-4.41,8.49-4.53c4.37-0.16,8.55,1.63,12.51,3.27
				C713.08,383.84,713.86,380.94,712.1,380.22L712.1,380.22z"/>
		</g>
	</g>
	<g>
		<path class="st2" d="M690.08,389.59c-0.53,4.61-0.3,9.3,0.68,13.83c1.82-3.74,3.64-7.47,5.46-11.21"/>
		<g>
			<path d="M688.58,389.59c-0.53,4.75-0.26,9.55,0.73,14.23c0.26,1.22,2.18,1.5,2.74,0.36c1.82-3.74,3.64-7.47,5.46-11.21
				c0.35-0.73,0.2-1.62-0.54-2.05c-0.66-0.39-1.7-0.19-2.05,0.54c-1.82,3.74-3.64,7.47-5.46,11.21c0.91,0.12,1.83,0.24,2.74,0.36
				c-0.94-4.42-1.12-8.95-0.62-13.43c0.09-0.81-0.75-1.5-1.5-1.5C689.19,388.09,688.67,388.78,688.58,389.59L688.58,389.59z"/>
		</g>
	</g>
	<g>
		<path class="st5" d="M690.21,379.4c-0.98-4.9,0.71-10.55,3.95-13.17c1.07,2.37,1.72,5.08,1.89,7.84"/>
		<g>
			<path d="M691.88,378.94c-0.18-0.93-0.25-2.12-0.19-3.25c0.06-1.13,0.23-2.09,0.59-3.27c0.59-1.96,1.52-3.65,3.11-4.96
				c-0.91-0.12-1.82-0.23-2.73-0.35c0.97,2.18,1.49,4.59,1.65,6.96c0.06,0.94,0.75,1.74,1.74,1.74c0.89,0,1.8-0.8,1.74-1.74
				c-0.21-3.03-0.9-5.94-2.13-8.72c-0.49-1.12-1.97-0.98-2.73-0.35c-4.17,3.44-5.38,9.77-4.4,14.86c0.18,0.92,1.28,1.45,2.14,1.21
				C691.63,380.81,692.06,379.86,691.88,378.94L691.88,378.94z"/>
		</g>
	</g>
	<g>
		<g>
			<path d="M680.23,387.65c0.25,0.1,0.54,0.12,0.81,0.15c0.44,0.05,0.87,0.08,1.31,0.1c1.09,0.06,2.19,0.07,3.28,0.03
				c0.41-0.01,0.59-0.48,0.32-0.78c-0.16-0.18-0.31-0.36-0.47-0.54c-0.39-0.45-1.04,0.21-0.65,0.65c0.16,0.18,0.31,0.36,0.47,0.54
				c0.11-0.26,0.22-0.52,0.32-0.78c-1.07,0.04-2.14,0.03-3.2-0.03c-0.43-0.02-0.85-0.05-1.28-0.09c-0.22-0.02-0.43-0.04-0.68-0.13
				c-0.23-0.09-0.5,0.1-0.56,0.32C679.84,387.35,680,387.56,680.23,387.65L680.23,387.65z"/>
		</g>
	</g>
	<g>
		<g>
			<path d="M713.32,379.28c0.64-0.53,1.27-1.05,1.91-1.58c-0.6-0.08-1.19-0.15-1.79-0.23c0.07,0.12,0.13,0.23,0.18,0.36
				c-0.04-0.09-0.08-0.18-0.11-0.27c0.17,0.42,0.27,0.86,0.33,1.3c-0.01-0.1-0.03-0.2-0.04-0.3c0.08,0.64,0.09,1.28,0.01,1.92
				c0.01-0.1,0.03-0.2,0.04-0.3c-0.01,0.04-0.01,0.08-0.02,0.12c-0.05,0.32-0.05,0.59,0.11,0.88c0.14,0.24,0.41,0.46,0.68,0.52
				c0.29,0.07,0.62,0.05,0.88-0.11c0.23-0.15,0.48-0.4,0.52-0.68c0.13-0.84,0.14-1.65,0.03-2.49c-0.1-0.72-0.27-1.45-0.64-2.08
				c-0.18-0.31-0.48-0.5-0.83-0.54c-0.38-0.05-0.67,0.07-0.96,0.31c-0.64,0.53-1.27,1.05-1.91,1.58c-0.21,0.18-0.33,0.54-0.33,0.81
				c0,0.28,0.12,0.61,0.33,0.81c0.22,0.2,0.5,0.35,0.81,0.33C712.83,379.6,713.07,379.48,713.32,379.28L713.32,379.28z"/>
		</g>
	</g>
	<g>
		<path class="st6" d="M708.01,390.99c2.23,3.02,4.95,5.67,8.04,7.82c0.76-4.3-0.13-8.86-2.43-12.56"/>
		<g>
			<path d="M706.72,391.75c2.41,3.24,5.27,6.04,8.58,8.35c0.74,0.52,2.05,0.02,2.2-0.9c0.8-4.73-0.06-9.61-2.58-13.72
				c-1.01-1.64-3.6-0.14-2.59,1.51c2.07,3.38,2.95,7.48,2.28,11.41c0.73-0.3,1.47-0.6,2.2-0.9c-2.86-2-5.42-4.47-7.5-7.28
				c-0.48-0.65-1.3-0.98-2.05-0.54C706.62,390.07,706.23,391.09,706.72,391.75L706.72,391.75z"/>
		</g>
	</g>
	<g>
		<path class="st7" d="M720.37,531.66c-10.92-18.16-26.05-33.78-43.85-45.27c19.5,10.84,39,21.68,58.49,32.52
			c2.02-17.59,4.05-35.19,6.07-52.78c6.01,13.87,10.33,28.47,12.81,43.38c10.17-20.02,20.34-40.05,30.52-60.07
			c-0.64,16.69-1.28,33.38-1.92,50.07c-0.2,5.26-0.31,10.9,2.52,15.34c17.03-17.19,32.6-35.81,46.49-55.62
			c4.25,8.59,1.77,18.95-1.9,27.81c-3.66,8.86-8.51,17.59-8.86,27.17c22.86-17.06,45.72-34.12,68.58-51.19
			c-11.95,18.43-24.13,37.38-28.82,58.84c20.51-12.29,41.53-23.71,63.01-34.22c-11.53,8.79-21.07,20.16-27.72,33.04
			c-1.13,2.19-2.28,4.54-4.35,5.87c-3.07,1.98-7.08,1.12-10.61,0.2c-21.1-5.52-42.21-11.04-63.31-16.56
			c-4.66-1.22-9.48-2.45-14.23-1.68c-7.18,1.16-12.79,6.56-18.78,10.67c-18.54,12.72-42.42,13.76-64.89,14.37"/>
		<g>
			<path d="M721.67,530.9c-8.65-14.34-19.85-27.14-32.95-37.58c-3.68-2.93-7.49-5.68-11.43-8.23c-0.5,0.86-1.01,1.73-1.51,2.59
				c15.21,8.45,30.41,16.91,45.62,25.36c4.29,2.39,8.59,4.77,12.88,7.16c1.08,0.6,2.13-0.18,2.26-1.3
				c2.02-17.59,4.05-35.19,6.07-52.78c-0.93,0.25-1.86,0.5-2.8,0.76c5.95,13.76,10.18,28.24,12.66,43.02
				c0.21,1.27,2.18,1.46,2.74,0.36c7.91-15.57,15.82-31.15,23.73-46.72c2.26-4.45,4.52-8.9,6.78-13.35c-0.93-0.25-1.86-0.5-2.8-0.76
				c-0.35,9.09-0.7,18.18-1.05,27.27c-0.34,8.84-0.97,17.73-0.96,26.59c0,4.27,0.54,8.61,2.82,12.31c0.5,0.82,1.66,1,2.36,0.3
				c13.32-13.46,25.74-27.78,37.19-42.86c3.26-4.3,6.44-8.65,9.54-13.07c-0.86,0-1.73,0-2.59,0c3.19,6.62,2.15,14.25,0.02,21.02
				c-2.25,7.15-5.94,13.75-8.43,20.82c-1.4,4-2.37,8.14-2.56,12.39c-0.05,1.06,1.34,1.98,2.26,1.3
				c17.81-13.29,35.62-26.58,53.43-39.88c5.05-3.77,10.1-7.54,15.15-11.31c-0.68-0.68-1.37-1.37-2.05-2.05
				c-9.37,14.45-18.79,29.07-24.83,45.28c-1.69,4.54-3.09,9.18-4.13,13.91c-0.27,1.24,1.03,2.39,2.2,1.69
				c15.97-9.56,32.24-18.61,48.81-27.1c4.71-2.42,9.45-4.79,14.2-7.12c-0.5-0.86-1.01-1.73-1.51-2.59
				c-11.34,8.68-20.83,19.68-27.58,32.28c-1.56,2.92-2.89,6.64-6.5,7.45c-3.52,0.79-7.48-0.78-10.84-1.66
				c-8.3-2.17-16.59-4.34-24.89-6.51c-8.22-2.15-16.43-4.3-24.65-6.45c-4.16-1.09-8.32-2.22-12.5-3.26c-3.92-0.98-8-1.77-12.05-1.26
				c-7.02,0.88-12.51,5.51-18.03,9.53c-5.7,4.16-11.95,7.34-18.64,9.56c-13.53,4.49-27.93,5.39-42.08,5.86
				c-1.8,0.06-3.6,0.11-5.4,0.16c-1.93,0.05-1.93,3.05,0,3c14.32-0.39,28.85-0.89,42.79-4.51c6.76-1.76,13.37-4.29,19.39-7.85
				c6.02-3.56,11.15-8.89,17.69-11.55c7.74-3.15,16.06,0.08,23.68,2.07c8.38,2.19,16.75,4.38,25.13,6.57
				c8.3,2.17,16.59,4.34,24.89,6.51c3.85,1.01,7.74,2.31,11.7,2.81c3.39,0.43,6.86-0.22,9.21-2.88c2.3-2.59,3.58-6.04,5.31-9
				c1.82-3.13,3.81-6.16,5.97-9.08c4.27-5.78,9.22-11.06,14.66-15.75c1.38-1.19,2.79-2.34,4.24-3.45c1.51-1.15,0.26-3.46-1.51-2.59
				c-16.72,8.19-33.16,16.91-49.31,26.18c-4.59,2.64-9.16,5.32-13.7,8.04c0.73,0.56,1.47,1.13,2.2,1.69
				c3.68-16.65,11.84-31.77,20.78-46.13c2.58-4.15,5.23-8.25,7.89-12.34c0.78-1.2-0.83-2.96-2.05-2.05
				c-17.81,13.29-35.62,26.58-53.43,39.88c-5.05,3.77-10.1,7.54-15.15,11.31c0.75,0.43,1.5,0.86,2.26,1.3
				c0.34-7.84,3.7-15.07,6.81-22.13c3.03-6.87,5.88-13.97,6.16-21.57c0.15-4.17-0.6-8.27-2.42-12.04c-0.53-1.1-2-0.84-2.59,0
				c-10.77,15.35-22.55,29.98-35.24,43.78c-3.6,3.91-7.27,7.76-11.01,11.54c0.79,0.1,1.57,0.2,2.36,0.3
				c-1.97-3.2-2.39-6.9-2.41-10.59c-0.02-4.22,0.26-8.45,0.42-12.67c0.34-8.76,0.67-17.52,1.01-26.27
				c0.19-5.04,0.39-10.08,0.58-15.12c0.06-1.46-2.12-2.08-2.8-0.76c-7.91,15.57-15.82,31.15-23.73,46.72
				c-2.26,4.45-4.52,8.9-6.78,13.35c0.91,0.12,1.83,0.24,2.74,0.36c-2.53-15.06-6.91-29.73-12.96-43.74
				c-0.66-1.53-2.65-0.52-2.8,0.76c-2.02,17.59-4.05,35.19-6.07,52.78c0.75-0.43,1.5-0.86,2.26-1.3
				c-15.21-8.45-30.41-16.91-45.62-25.36c-4.29-2.39-8.59-4.77-12.88-7.16c-1.7-0.94-3.13,1.54-1.51,2.59
				c13.67,8.85,25.79,20.14,35.55,33.18c2.78,3.72,5.37,7.57,7.76,11.55C720.07,534.07,722.67,532.56,721.67,530.9L721.67,530.9z"/>
		</g>
	</g>
	<g>
		<path class="st7" d="M978.37,471.96c-10.92-10.05-26.05-18.7-43.85-25.06c19.5,6,39,12,58.49,18c2.02-9.74,4.05-19.48,6.07-29.22
			c6.01,7.68,10.33,15.76,12.81,24.02c10.17-11.09,20.34-22.17,30.52-33.26c-0.64,9.24-1.28,18.48-1.92,27.72
			c-0.2,2.91-0.31,6.03,2.52,8.49c17.03-9.51,32.6-19.83,46.49-30.79c4.25,4.76,1.77,10.49-1.9,15.4c-3.66,4.9-8.51,9.74-8.86,15.04
			c22.86-9.45,45.72-18.89,68.58-28.34c-11.95,10.2-24.13,20.69-28.82,32.57c20.51-6.8,41.53-13.13,63.01-18.94
			c-11.53,4.86-21.07,11.16-27.72,18.29c-1.13,1.21-2.28,2.51-4.35,3.25c-3.07,1.09-7.08,0.62-10.61,0.11
			c-21.1-3.06-42.21-6.11-63.31-9.17c-4.66-0.67-9.48-1.35-14.23-0.93c-7.18,0.64-12.79,3.63-18.78,5.91
			c-18.54,7.04-42.42,7.62-64.89,7.96"/>
		<g>
			<path d="M979.16,471.17c-12.65-11.6-28.29-19.59-44.34-25.35c-0.2,0.72-0.4,1.43-0.59,2.15c19.5,6,39,12,58.49,18
				c0.55,0.17,1.25-0.2,1.37-0.78c2.02-9.74,4.05-19.48,6.07-29.22c-0.62,0.16-1.24,0.33-1.87,0.49
				c5.49,7.05,9.91,14.95,12.52,23.52c0.23,0.77,1.28,1.13,1.87,0.49c10.17-11.09,20.34-22.17,30.52-33.26
				c-0.64-0.26-1.27-0.53-1.91-0.79c-0.49,7.01-0.97,14.02-1.46,21.04c-0.21,3.05-0.64,6.17-0.54,9.23
				c0.08,2.62,0.97,4.94,2.93,6.73c0.37,0.34,0.9,0.43,1.35,0.17c16.32-9.13,32.02-19.38,46.71-30.97c-0.53,0-1.05,0-1.58,0
				c4.33,5.05,0.18,11.22-3.18,15.49c-3.31,4.21-7.43,8.57-7.9,14.16c-0.06,0.67,0.77,1.34,1.41,1.08
				c17.8-7.35,35.6-14.71,53.39-22.06c5.06-2.09,10.13-4.18,15.19-6.28c-0.36-0.62-0.72-1.24-1.09-1.87
				c-5.99,5.11-12.02,10.24-17.43,15.97c-4.76,5.04-9.08,10.62-11.68,17.09c-0.32,0.79,0.62,1.62,1.37,1.37
				c16.18-5.36,32.47-10.37,48.86-15.02c4.71-1.34,9.42-2.64,14.14-3.92c-0.29-0.68-0.57-1.36-0.86-2.04
				c-6.2,2.63-12.19,5.78-17.69,9.66c-2.39,1.69-4.7,3.51-6.87,5.48c-0.99,0.9-1.96,1.84-2.89,2.81c-0.98,1.03-1.9,2.15-3.14,2.9
				c-2.87,1.73-6.64,1.29-9.8,0.89c-3.78-0.48-7.55-1.08-11.32-1.63c-7.75-1.12-15.5-2.24-23.25-3.37c-7.58-1.1-15.17-2.2-22.75-3.3
				c-7.19-1.04-14.65-2.7-21.95-2.05c-6.58,0.59-12.43,3.37-18.51,5.73c-5.97,2.32-12.22,3.87-18.52,4.98
				c-15.37,2.71-31.09,2.92-46.65,3.15c-1.43,0.02-1.44,2.25,0,2.23c14.06-0.21,28.17-0.47,42.11-2.43
				c6.46-0.9,12.89-2.19,19.11-4.18c6.06-1.94,11.74-5.01,17.95-6.5c7.43-1.78,14.98-0.37,22.4,0.71c7.75,1.12,15.5,2.24,23.25,3.37
				c7.58,1.1,15.17,2.2,22.75,3.3c3.96,0.57,7.91,1.15,11.87,1.72c3.31,0.48,6.69,1.08,10.04,0.68c1.67-0.2,3.31-0.65,4.71-1.59
				c1.26-0.84,2.23-1.96,3.27-3.04c2.27-2.37,4.76-4.55,7.38-6.53c6.01-4.53,12.7-8.13,19.62-11.06c1.18-0.5,0.33-2.36-0.86-2.04
				c-16.55,4.49-33.02,9.32-49.36,14.51c-4.56,1.45-9.11,2.93-13.65,4.43c0.46,0.46,0.92,0.92,1.37,1.37
				c2.56-6.37,6.99-11.83,11.7-16.74c5.26-5.48,11.06-10.42,16.83-15.34c0.82-0.7-0.06-2.29-1.09-1.87
				c-17.8,7.35-35.6,14.71-53.39,22.06c-5.06,2.09-10.13,4.18-15.19,6.28c0.47,0.36,0.94,0.72,1.41,1.08
				c0.25-2.97,1.93-5.6,3.64-7.95c1.87-2.57,4.01-4.95,5.82-7.57c1.64-2.36,3.05-5.02,3.43-7.9c0.39-2.94-0.55-5.58-2.46-7.81
				c-0.42-0.49-1.14-0.35-1.58,0c-14.54,11.46-30.11,21.58-46.26,30.62c0.45,0.06,0.9,0.12,1.35,0.17c-1.99-1.82-2.38-4.1-2.26-6.68
				c0.14-3.06,0.42-6.12,0.63-9.18c0.45-6.52,0.9-13.03,1.36-19.55c0.07-0.96-1.27-1.48-1.91-0.79
				c-10.17,11.09-20.34,22.17-30.52,33.26c0.62,0.16,1.24,0.33,1.87,0.49c-2.73-8.96-7.36-17.14-13.1-24.51
				c-0.51-0.66-1.71-0.27-1.87,0.49c-2.02,9.74-4.05,19.48-6.07,29.22c0.46-0.26,0.92-0.52,1.37-0.78c-19.5-6-39-12-58.49-18
				c-1.39-0.43-1.93,1.67-0.59,2.15c15.68,5.63,31,13.45,43.36,24.77C978.64,473.71,980.22,472.14,979.16,471.17L979.16,471.17z"/>
		</g>
	</g>
	<g>
		<path class="st7" d="M932.08,255.66c-9.49-18.16-22.62-33.78-38.08-45.27c16.93,10.84,33.87,21.68,50.8,32.52
			c1.76-17.59,3.51-35.19,5.27-52.78c5.22,13.87,8.97,28.47,11.13,43.38c8.83-20.02,17.67-40.05,26.5-60.07
			c-0.56,16.69-1.11,33.38-1.67,50.07c-0.18,5.26-0.27,10.9,2.19,15.34c14.79-17.19,28.31-35.81,40.37-55.62
			c3.7,8.59,1.54,18.95-1.65,27.81s-7.39,17.59-7.7,27.17c19.86-17.06,39.71-34.12,59.57-51.19
			c-10.38,18.43-20.95,37.38-25.03,58.84c17.81-12.29,36.07-23.71,54.72-34.22c-10.01,8.79-18.3,20.16-24.07,33.04
			c-0.98,2.19-1.98,4.54-3.78,5.87c-2.66,1.98-6.15,1.12-9.22,0.2c-18.33-5.52-36.66-11.04-54.98-16.56
			c-4.04-1.22-8.23-2.45-12.36-1.68c-6.24,1.16-11.11,6.56-16.31,10.67c-16.1,12.72-36.84,13.76-56.36,14.37"/>
		<g>
			<path d="M933.29,254.95c-7.31-13.95-16.9-26.76-28.5-37.43c-3.21-2.95-6.58-5.73-10.08-8.34c-0.47,0.8-0.94,1.61-1.41,2.41
				c16.93,10.84,33.87,21.68,50.8,32.52c0.97,0.62,2-0.22,2.1-1.21c1.76-17.59,3.51-35.19,5.27-52.78
				c-0.92,0.12-1.83,0.25-2.75,0.37c5.26,14.01,8.97,28.57,11.13,43.38c0.17,1.15,2.09,1.39,2.55,0.33
				c6.86-15.55,13.72-31.1,20.58-46.65c1.97-4.47,3.95-8.95,5.92-13.42c-0.87-0.24-1.74-0.47-2.6-0.71
				c-0.3,9.01-0.6,18.01-0.9,27.02c-0.29,8.82-0.81,17.67-0.85,26.5c-0.02,4.32,0.39,8.72,2.46,12.59c0.4,0.75,1.62,0.96,2.2,0.28
				c11.69-13.6,22.5-27.95,32.37-42.92c2.82-4.28,5.56-8.61,8.23-12.98c-0.85-0.11-1.7-0.22-2.55-0.33
				c3.65,8.73,1.42,18.51-1.65,27.07c-3.23,9.01-7.38,17.82-7.75,27.55c-0.05,1.3,1.52,1.73,2.39,0.99
				c15.46-13.28,30.91-26.56,46.37-39.85c4.4-3.78,8.8-7.56,13.19-11.34c-0.73-0.56-1.46-1.13-2.2-1.69
				c-8.19,14.55-16.39,29.26-21.56,45.21c-1.48,4.58-2.7,9.23-3.61,13.96c-0.21,1.09,0.97,2.33,2.05,1.58
				c13.8-9.51,27.92-18.56,42.35-27.08c4.1-2.42,8.23-4.8,12.38-7.14c-0.56-0.73-1.13-1.46-1.69-2.2
				c-9.74,8.59-17.6,19.27-23.2,30.97c-1.23,2.56-2.21,6.29-4.69,7.94c-2.7,1.8-6.49,0.23-9.25-0.6
				c-7.33-2.21-14.66-4.42-21.99-6.63c-7.33-2.21-14.66-4.42-21.99-6.63c-3.79-1.14-7.57-2.32-11.37-3.42
				c-3.39-0.98-6.92-1.75-10.47-1.27c-6.1,0.83-10.79,5.28-15.28,9.11c-4.92,4.19-10.36,7.56-16.4,9.9
				c-13.17,5.09-27.5,5.68-41.46,6.12c-1.79,0.06-1.8,2.85,0,2.8c12.62-0.39,25.48-0.92,37.64-4.64c6.05-1.85,11.89-4.52,17.07-8.17
				c5.09-3.58,9.34-8.67,15.07-11.26c3.32-1.5,6.84-1.39,10.33-0.59c3.63,0.83,7.19,2.05,10.76,3.13
				c7.49,2.26,14.98,4.51,22.47,6.77c7.49,2.26,14.98,4.51,22.47,6.77c3.14,0.95,6.55,2.37,9.9,2.19c3.08-0.16,5.39-1.89,6.92-4.5
				c0.9-1.54,1.55-3.22,2.3-4.83c0.85-1.82,1.76-3.61,2.71-5.37c1.76-3.24,3.69-6.38,5.8-9.4c4.2-6.03,9.11-11.55,14.63-16.42
				c1.21-1.07-0.34-2.96-1.69-2.2c-14.56,8.21-28.83,16.94-42.78,26.15c-4.01,2.65-7.99,5.34-11.94,8.06
				c0.68,0.53,1.37,1.05,2.05,1.58c3.16-16.44,10.2-31.68,18.12-46.31c2.21-4.09,4.49-8.14,6.77-12.19c0.81-1.43-1.02-2.71-2.2-1.69
				c-15.46,13.28-30.91,26.56-46.37,39.85c-4.4,3.78-8.8,7.56-13.19,11.34c0.8,0.33,1.59,0.66,2.39,0.99
				c0.29-7.67,3.12-14.87,5.83-21.96c2.64-6.89,5.11-13.94,5.42-21.39c0.17-4.09-0.38-8.22-1.96-12.01
				c-0.45-1.07-1.88-1.45-2.56-0.33c-9.26,15.18-19.42,29.81-30.52,43.71c-3.14,3.93-6.36,7.81-9.64,11.63
				c0.73,0.09,1.46,0.19,2.2,0.28c-1.8-3.36-2.08-7.22-2.08-10.96c0-4.2,0.24-8.4,0.37-12.59c0.29-8.76,0.58-17.52,0.88-26.27
				c0.17-4.96,0.33-9.92,0.5-14.87c0.04-1.31-2.03-2-2.6-0.71c-6.86,15.55-13.72,31.1-20.58,46.65c-1.97,4.47-3.95,8.95-5.92,13.42
				c0.85,0.11,1.7,0.22,2.56,0.33c-2.16-14.81-5.87-29.37-11.13-43.38c-0.56-1.5-2.59-1.22-2.75,0.37
				c-1.76,17.59-3.51,35.19-5.27,52.78c0.7-0.4,1.4-0.8,2.1-1.21c-16.93-10.84-33.87-21.68-50.8-32.52
				c-1.55-0.99-2.82,1.37-1.41,2.41c12.18,9.09,22.58,20.5,30.85,33.23c2.43,3.74,4.67,7.59,6.74,11.54
				C931.71,257.96,934.13,256.55,933.29,254.95L933.29,254.95z"/>
		</g>
	</g>
	<g>
		<path class="st7" d="M902.37,651.66c-10.92-18.16-26.05-33.78-43.85-45.27c19.5,10.84,39,21.68,58.49,32.52
			c2.02-17.59,4.05-35.19,6.07-52.78c6.01,13.87,10.33,28.47,12.81,43.38c10.17-20.02,20.34-40.05,30.52-60.07
			c-0.64,16.69-1.28,33.38-1.92,50.07c-0.2,5.26-0.31,10.9,2.52,15.34c17.03-17.19,32.6-35.81,46.49-55.62
			c4.25,8.59,1.77,18.95-1.9,27.81c-3.66,8.86-8.51,17.59-8.86,27.17c22.86-17.06,45.72-34.12,68.58-51.19
			c-11.95,18.43-24.13,37.38-28.82,58.84c20.51-12.29,41.53-23.71,63.01-34.22c-11.53,8.79-21.07,20.16-27.72,33.04
			c-1.13,2.19-2.28,4.54-4.35,5.87c-3.07,1.98-7.08,1.12-10.61,0.2c-21.1-5.52-42.21-11.04-63.31-16.56
			c-4.66-1.22-9.48-2.45-14.23-1.68c-7.18,1.16-12.79,6.56-18.78,10.67c-18.54,12.72-42.42,13.76-64.89,14.37"/>
		<g>
			<path d="M903.67,650.9c-8.65-14.34-19.85-27.14-32.95-37.58c-3.68-2.93-7.49-5.68-11.43-8.23c-0.5,0.86-1.01,1.73-1.51,2.59
				c15.21,8.45,30.41,16.91,45.62,25.36c4.29,2.39,8.59,4.77,12.88,7.16c1.08,0.6,2.13-0.18,2.26-1.3
				c2.02-17.59,4.05-35.19,6.07-52.78c-0.93,0.25-1.86,0.5-2.8,0.76c5.95,13.76,10.18,28.24,12.66,43.02
				c0.21,1.27,2.18,1.46,2.74,0.36c7.91-15.57,15.82-31.15,23.73-46.72c2.26-4.45,4.52-8.9,6.78-13.35c-0.93-0.25-1.86-0.5-2.8-0.76
				c-0.35,9.09-0.7,18.18-1.05,27.27c-0.34,8.84-0.97,17.73-0.96,26.59c0,4.27,0.54,8.61,2.82,12.31c0.5,0.82,1.66,1,2.36,0.3
				c13.32-13.46,25.74-27.78,37.19-42.86c3.26-4.3,6.44-8.65,9.54-13.07c-0.86,0-1.73,0-2.59,0c3.19,6.62,2.15,14.25,0.02,21.02
				c-2.25,7.15-5.94,13.75-8.43,20.82c-1.4,4-2.37,8.14-2.56,12.39c-0.05,1.06,1.34,1.98,2.26,1.3
				c17.81-13.29,35.62-26.58,53.43-39.88c5.05-3.77,10.1-7.54,15.15-11.31c-0.68-0.68-1.37-1.37-2.05-2.05
				c-9.37,14.45-18.79,29.07-24.83,45.28c-1.69,4.54-3.09,9.18-4.13,13.91c-0.27,1.24,1.03,2.39,2.2,1.69
				c15.97-9.56,32.24-18.61,48.81-27.1c4.71-2.42,9.45-4.79,14.2-7.12c-0.5-0.86-1.01-1.73-1.51-2.59
				c-11.34,8.68-20.83,19.68-27.58,32.28c-1.56,2.92-2.89,6.64-6.5,7.45c-3.52,0.79-7.48-0.78-10.84-1.66
				c-8.3-2.17-16.59-4.34-24.89-6.51c-8.22-2.15-16.43-4.3-24.65-6.45c-4.16-1.09-8.32-2.22-12.5-3.26c-3.92-0.98-8-1.77-12.05-1.26
				c-7.02,0.88-12.51,5.51-18.03,9.53c-5.7,4.16-11.95,7.34-18.64,9.56c-13.53,4.49-27.93,5.39-42.08,5.86
				c-1.8,0.06-3.6,0.11-5.4,0.16c-1.93,0.05-1.93,3.05,0,3c14.32-0.39,28.85-0.89,42.79-4.51c6.76-1.76,13.37-4.29,19.39-7.85
				c6.02-3.56,11.15-8.89,17.69-11.55c7.74-3.15,16.06,0.08,23.68,2.07c8.38,2.19,16.75,4.38,25.13,6.57
				c8.3,2.17,16.59,4.34,24.89,6.51c3.85,1.01,7.74,2.31,11.7,2.81c3.39,0.43,6.86-0.22,9.21-2.88c2.3-2.59,3.58-6.04,5.31-9
				c1.82-3.13,3.81-6.16,5.97-9.08c4.27-5.78,9.22-11.06,14.66-15.75c1.38-1.19,2.79-2.34,4.24-3.45c1.51-1.15,0.26-3.46-1.51-2.59
				c-16.72,8.19-33.16,16.91-49.31,26.18c-4.59,2.64-9.16,5.32-13.7,8.04c0.73,0.56,1.47,1.13,2.2,1.69
				c3.68-16.65,11.84-31.77,20.78-46.13c2.58-4.15,5.23-8.25,7.89-12.34c0.78-1.2-0.83-2.96-2.05-2.05
				c-17.81,13.29-35.62,26.58-53.43,39.88c-5.05,3.77-10.1,7.54-15.15,11.31c0.75,0.43,1.5,0.86,2.26,1.3
				c0.34-7.84,3.7-15.07,6.81-22.13c3.03-6.87,5.88-13.97,6.16-21.57c0.15-4.17-0.6-8.27-2.42-12.04c-0.53-1.1-2-0.84-2.59,0
				c-10.77,15.35-22.55,29.98-35.24,43.78c-3.6,3.91-7.27,7.76-11.01,11.54c0.79,0.1,1.57,0.2,2.36,0.3
				c-1.97-3.2-2.39-6.9-2.41-10.59c-0.02-4.22,0.26-8.45,0.42-12.67c0.34-8.76,0.67-17.52,1.01-26.27
				c0.19-5.04,0.39-10.08,0.58-15.12c0.06-1.46-2.12-2.08-2.8-0.76c-7.91,15.57-15.82,31.15-23.73,46.72
				c-2.26,4.45-4.52,8.9-6.78,13.35c0.91,0.12,1.83,0.24,2.74,0.36c-2.53-15.06-6.91-29.73-12.96-43.74
				c-0.66-1.53-2.65-0.52-2.8,0.76c-2.02,17.59-4.05,35.19-6.07,52.78c0.75-0.43,1.5-0.86,2.26-1.3
				c-15.21-8.45-30.41-16.91-45.62-25.36c-4.29-2.39-8.59-4.77-12.88-7.16c-1.7-0.94-3.13,1.54-1.51,2.59
				c13.67,8.85,25.79,20.14,35.55,33.18c2.78,3.72,5.37,7.57,7.76,11.55C902.07,654.07,904.67,652.56,903.67,650.9L903.67,650.9z"/>
		</g>
	</g>
</g>
<g id="Babies">
	<g>
		<path class="st4" d="M643.8,161.73c-3.86-1.6-7.83-3.22-12.01-3.33s-8.67,1.61-10.68,5.28c4.16,3.05,8.55,6.21,13.65,6.94
			c5.11,0.73,11.09-1.86,12.32-6.87"/>
		<g>
			<path d="M644.2,160.28c-4.52-1.87-9.39-3.85-14.39-3.3c-4.03,0.44-7.91,2.33-10,5.94c-0.44,0.76-0.12,1.57,0.54,2.05
				c4.81,3.53,10.31,7.46,16.57,7.26c5.03-0.16,10.24-2.97,11.62-8.09c0.5-1.87-2.39-2.66-2.89-0.8c-1.12,4.16-5.73,6.07-9.72,5.88
				c-5.29-0.25-9.95-3.84-14.05-6.84c0.18,0.68,0.36,1.37,0.54,2.05c1.72-2.98,5.15-4.41,8.49-4.53c4.37-0.16,8.55,1.63,12.51,3.27
				C645.19,163.91,645.96,161.01,644.2,160.28L644.2,160.28z"/>
		</g>
	</g>
	<g>
		<path class="st3" d="M618.79,163.47c-2.74-1.36-6.33-2.63-8.57-0.55c-2.41,2.25-0.66,6.74,2.43,7.91c3.08,1.17,6.55,0,9.45-1.58"
			/>
		<g>
			<path d="M619.55,162.17c-2.01-1-4.29-1.96-6.58-1.85c-2.3,0.11-4.4,1.42-5.13,3.67c-0.6,1.84-0.07,4.02,1.02,5.58
				c1.37,1.96,3.35,2.98,5.72,3.2c2.89,0.27,5.78-0.88,8.28-2.22c1.7-0.91,0.19-3.5-1.51-2.59c-1.66,0.89-3.5,1.7-5.39,1.83
				c-0.99,0.07-1.88-0.03-2.81-0.37c-0.21-0.08-0.04-0.01,0,0.01c-0.09-0.04-0.17-0.08-0.26-0.13c-0.15-0.08-0.29-0.17-0.43-0.26
				c-0.03-0.02-0.27-0.19-0.14-0.09c0.12,0.09-0.07-0.06-0.07-0.06c-0.16-0.15-0.32-0.29-0.47-0.45c-0.04-0.05-0.34-0.39-0.19-0.2
				c-0.1-0.13-0.2-0.28-0.29-0.42c-0.09-0.14-0.18-0.29-0.25-0.44c-0.04-0.09-0.09-0.17-0.13-0.26c0.09,0.19-0.01-0.02-0.04-0.11
				c-0.29-0.81-0.31-0.97-0.26-1.78c0.02-0.23-0.05,0.23,0,0c0.02-0.06,0.03-0.13,0.04-0.19c0.02-0.07,0.19-0.54,0.07-0.27
				c0.06-0.14,0.14-0.28,0.22-0.41c0.03-0.06,0.07-0.11,0.11-0.17c-0.16,0.21,0.03-0.03,0.07-0.07c0.28-0.26,0.41-0.38,0.8-0.57
				c-0.14,0.07,0.25-0.09,0.32-0.11c0.1-0.03,0.21-0.06,0.31-0.08c0.04-0.01,0.37-0.05,0.16-0.03c1.82-0.18,3.66,0.6,5.32,1.42
				c0.73,0.36,1.62,0.19,2.05-0.54C620.47,163.56,620.27,162.53,619.55,162.17L619.55,162.17z"/>
		</g>
	</g>
	<g>
		<path class="st5" d="M624.12,160.96c-0.98-3.65,0.71-7.85,3.95-9.8c1.07,1.77,1.72,3.78,1.89,5.83"/>
		<g>
			<path d="M625.57,160.57c-0.06-0.22-0.1-0.45-0.15-0.67c-0.03-0.13-0.03-0.16-0.01-0.01c-0.02-0.11-0.03-0.23-0.04-0.34
				c-0.04-0.43-0.04-0.87-0.01-1.3c0.01-0.11,0.02-0.23,0.03-0.34c0.02-0.18-0.04,0.21,0.01-0.08c0.04-0.23,0.08-0.45,0.14-0.68
				c0.1-0.43,0.24-0.84,0.4-1.25c0.09-0.22-0.09,0.19,0.01-0.02c0.05-0.1,0.1-0.21,0.15-0.31c0.1-0.21,0.21-0.41,0.33-0.61
				c0.1-0.18,0.22-0.35,0.33-0.52c0.06-0.09,0.13-0.19,0.2-0.28c-0.12,0.17,0,0,0.06-0.08c0.28-0.34,0.58-0.65,0.9-0.94
				c0.09-0.08,0.17-0.15,0.26-0.22c0.19-0.16-0.28,0.19,0.08-0.06c0.19-0.13,0.38-0.26,0.58-0.38c-0.68-0.18-1.37-0.36-2.05-0.54
				c0.51,0.86,0.84,1.55,1.13,2.45c0.14,0.44,0.26,0.88,0.36,1.33c0.12,0.56,0.16,0.81,0.2,1.3c0.07,0.78,0.64,1.54,1.5,1.5
				c0.75-0.03,1.58-0.66,1.5-1.5c-0.21-2.34-0.89-4.57-2.1-6.59c-0.41-0.69-1.36-0.97-2.05-0.54c-3.82,2.35-5.77,7.15-4.64,11.49
				c0.2,0.78,1.07,1.26,1.85,1.05C625.32,162.19,625.77,161.35,625.57,160.57L625.57,160.57z"/>
		</g>
	</g>
</g>
<g id="Vegetation">
	<g>
		<path class="st7" d="M1039.89,356.06c-9.69-18.16-23.1-33.78-38.89-45.27c17.29,10.84,34.58,21.68,51.87,32.52
			c1.79-17.59,3.59-35.19,5.38-52.78c5.33,13.87,9.16,28.47,11.36,43.38c9.02-20.02,18.04-40.05,27.06-60.07
			c-0.57,16.69-1.14,33.38-1.7,50.07c-0.18,5.26-0.27,10.9,2.24,15.34c15.1-17.19,28.91-35.81,41.23-55.62
			c3.77,8.59,1.57,18.95-1.68,27.81c-3.25,8.86-7.55,17.59-7.86,27.17c20.27-17.06,40.55-34.12,60.82-51.19
			c-10.6,18.43-21.4,37.38-25.56,58.84c18.19-12.29,36.83-23.71,55.88-34.22c-10.22,8.79-18.68,20.16-24.58,33.04
			c-1,2.19-2.02,4.54-3.86,5.87c-2.72,1.98-6.28,1.12-9.41,0.2c-18.71-5.52-37.43-11.04-56.14-16.56
			c-4.13-1.22-8.41-2.45-12.62-1.68c-6.37,1.16-11.34,6.56-16.66,10.67c-16.44,12.72-37.62,13.76-57.55,14.37"/>
		<g>
			<path d="M1041.11,355.35c-7.51-14.02-17.33-26.85-29.17-37.5c-3.26-2.93-6.68-5.69-10.23-8.28c-0.48,0.81-0.95,1.63-1.43,2.44
				c17.29,10.84,34.58,21.68,51.87,32.52c0.99,0.62,2.02-0.21,2.13-1.22c1.79-17.59,3.59-35.19,5.38-52.78
				c-0.92,0.13-1.85,0.25-2.77,0.38c5.36,14,9.15,28.56,11.36,43.38c0.17,1.17,2.1,1.4,2.58,0.34c7-15.55,14.01-31.1,21.01-46.65
				c2.02-4.47,4.03-8.95,6.05-13.42c-0.88-0.24-1.75-0.48-2.63-0.71c-0.31,9.09-0.62,18.18-0.93,27.27
				c-0.3,8.85-0.86,17.73-0.86,26.59c0,4.22,0.46,8.51,2.51,12.27c0.42,0.76,1.62,0.96,2.22,0.29
				c11.89-13.55,22.91-27.86,32.97-42.82c2.9-4.31,5.73-8.68,8.47-13.09c-0.81,0-1.63,0-2.44,0c2.84,6.65,1.91,14.23,0.03,21
				c-1.99,7.16-5.3,13.85-7.51,20.94c-1.25,4.01-2.1,8.13-2.26,12.33c-0.05,1.32,1.53,1.74,2.41,1
				c15.81-13.31,31.62-26.61,47.43-39.92c4.46-3.76,8.93-7.51,13.39-11.27c-0.74-0.57-1.48-1.14-2.22-1.71
				c-8.34,14.5-16.68,29.16-21.98,45.1c-1.53,4.61-2.79,9.31-3.72,14.07c-0.22,1.11,0.97,2.34,2.08,1.6
				c14.13-9.54,28.58-18.6,43.33-27.13c4.16-2.4,8.34-4.76,12.54-7.09c-0.57-0.74-1.14-1.48-1.71-2.22
				c-10.02,8.65-18.13,19.47-23.89,31.38c-1.24,2.56-2.25,6.3-4.93,7.73c-2.88,1.53-6.7-0.09-9.56-0.93
				c-7.45-2.2-14.91-4.4-22.36-6.6c-7.45-2.2-14.91-4.4-22.36-6.6c-3.79-1.12-7.56-2.27-11.36-3.34c-3.53-0.99-7.2-1.78-10.87-1.25
				c-6.27,0.9-11.09,5.5-15.76,9.38c-4.94,4.1-10.44,7.35-16.45,9.62c-13.46,5.08-28.06,5.66-42.28,6.09
				c-1.81,0.06-1.82,2.88,0,2.83c12.89-0.39,26.03-0.92,38.47-4.65c6.17-1.85,12.13-4.52,17.45-8.19
				c5.15-3.55,9.47-8.59,15.24-11.18c3.26-1.47,6.75-1.47,10.2-0.74c3.82,0.81,7.55,2.08,11.29,3.18
				c7.61,2.25,15.23,4.49,22.84,6.74c7.61,2.25,15.23,4.49,22.84,6.74c3.24,0.96,6.67,2.34,10.1,2.32c3.19-0.03,5.68-1.67,7.33-4.34
				c0.97-1.58,1.65-3.32,2.45-4.98c0.8-1.67,1.64-3.32,2.53-4.94c1.83-3.34,3.85-6.58,6.05-9.69c4.32-6.11,9.39-11.68,15.05-16.57
				c1.25-1.08-0.35-2.97-1.71-2.22c-14.89,8.22-29.49,16.97-43.77,26.21c-4.06,2.63-8.09,5.3-12.1,8.01
				c0.69,0.53,1.38,1.06,2.08,1.6c3.22-16.43,10.4-31.63,18.44-46.2c2.28-4.13,4.62-8.21,6.97-12.3c0.84-1.45-1.03-2.71-2.22-1.71
				c-15.81,13.31-31.62,26.61-47.43,39.92c-4.46,3.76-8.93,7.51-13.39,11.27c0.8,0.33,1.61,0.67,2.41,1
				c0.3-7.79,3.26-15.07,6.07-22.24c2.7-6.91,5.2-14.01,5.44-21.5c0.13-4.12-0.54-8.16-2.16-11.96c-0.44-1.03-1.94-0.81-2.44,0
				c-9.48,15.23-19.89,29.88-31.23,43.79c-3.19,3.91-6.45,7.76-9.78,11.55c0.74,0.1,1.48,0.19,2.22,0.29
				c-1.78-3.25-2.11-6.99-2.12-10.63c-0.02-4.22,0.23-8.45,0.37-12.67c0.3-8.76,0.6-17.52,0.89-26.27
				c0.17-5.04,0.34-10.08,0.51-15.12c0.05-1.33-2.05-2.01-2.63-0.71c-7,15.55-14.01,31.1-21.01,46.65
				c-2.02,4.47-4.03,8.95-6.05,13.42c0.86,0.11,1.72,0.22,2.58,0.34c-2.21-14.82-6-29.38-11.36-43.38
				c-0.58-1.51-2.61-1.24-2.77,0.38c-1.79,17.59-3.59,35.19-5.38,52.78c0.71-0.41,1.42-0.81,2.13-1.22
				c-17.29-10.84-34.58-21.68-51.87-32.52c-1.57-0.98-2.86,1.39-1.43,2.44c12.42,9.07,23.08,20.49,31.56,33.3
				c2.46,3.71,4.73,7.54,6.83,11.46C1039.53,358.38,1041.97,356.95,1041.11,355.35L1041.11,355.35z"/>
		</g>
	</g>
</g>
</svg>
