<?xml version="1.0" encoding="utf-8"?>
<!-- Generator: Adobe Illustrator 28.2.0, SVG Export Plug-In . SVG Version: 6.00 Build 0)  -->
<svg version="1.1" id="Layer_1" xmlns="http://www.w3.org/2000/svg" xmlns:xlink="http://www.w3.org/1999/xlink" x="0px" y="0px"
	 viewBox="0 0 1366 768" style="enable-background:new 0 0 1366 768;" xml:space="preserve">
<style type="text/css">
	.st0{fill:#0071BC;}
</style>
<g>
	<path class="st0" d="M-2.7,41.43C55.82,22.22,116.36,2.76,177.71,8.32c36,3.26,70.86,15.09,106.91,17.78
		c62.92,4.68,124.73-18.67,187.81-20.19c45.38-1.09,90.2,9.13,135.4,13.28c48.48,4.45,97.56,1.87,145.39-7.15
		c26.37-4.97,52.63-11.92,79.46-12.01c26.95-0.09,53.36,6.74,79.84,11.76c70.99,13.46,144.41,13.95,215.57,1.46
		c34.04-5.98,68.12-14.94,102.6-12.65c46.13,3.06,91.69,26.14,136.78,15.93c18.56,129.39,19.74,261.26,3.52,390.97
		c-3.43,27.44-7.65,55.15-4.54,82.63c3.03,26.82,12.95,52.47,16.25,79.26c8.85,71.88-30.45,144.91-14.05,215.44
		c-6.76-7.9-18.49-8.71-28.89-8.93c-450.09-9.34-900.22-18.67-1350.41-18.28C-6.98,660.72-3.3,563.81,0.38,466.9
		c1.55-40.91,3.11-81.88,1.1-122.77C-0.75,298.5-7.4,253.1-7.45,207.42C-7.5,157.19,0.43,107.33,4.42,57.26
		c0.89-11.22-7.19-27.83-16.13-21"/>
	<g>
		<path d="M-2.3,42.88C41,28.67,84.94,14.29,130.56,10.07c23.57-2.18,46.99-1.13,70.31,2.9c22.17,3.83,43.99,9.48,66.27,12.68
			c42.81,6.15,84.96-1.13,127.1-8.59c22.89-4.05,45.87-7.99,69.11-9.28c22.58-1.25,45.14,0.44,67.55,3.14
			c45.54,5.48,90.28,12.87,136.34,11.75c22.22-0.54,44.39-2.5,66.37-5.8c23.09-3.46,45.74-9.28,68.82-12.76
			c24.5-3.7,48.25-2.59,72.6,1.81c22.51,4.07,44.77,9.17,67.45,12.27c44.77,6.11,90.2,7.23,135.21,3.21
			c21.9-1.95,43.6-5.23,65.19-9.37c22.91-4.39,45.88-9.28,69.27-10.15c43.27-1.61,83.4,17.13,126.26,18.66
			c9.92,0.36,19.75-0.48,29.45-2.55c-0.61-0.35-1.23-0.7-1.85-1.05c14.9,104.58,18.59,210.69,10.85,316.05
			c-1.93,26.23-4.58,52.41-7.89,78.5c-3.19,25.16-6.76,50.59-4.31,75.99c2.36,24.51,10.66,47.86,15,72
			c4.45,24.69,3,49.73-0.65,74.42c-7.4,50.02-23.16,100.65-11.82,151.34c0.84-0.49,1.67-0.97,2.51-1.46
			c-11.43-12.08-31.64-9.4-46.65-9.71c-23.2-0.48-46.4-0.96-69.6-1.44c-45.47-0.94-90.95-1.87-136.42-2.79
			c-90.95-1.83-181.9-3.6-272.85-5.22c-181.9-3.24-363.81-5.9-545.74-7.34c-103.03-0.81-206.06-1.23-309.09-1.14
			c0.5,0.5,1,1,1.5,1.5c3.89-102.37,7.93-204.73,11.65-307.11c1.83-50.24,1.67-100.04-2.65-150.15c-2.2-25.48-4.69-50.96-5.51-76.53
			c-0.81-25.11,0.42-50.19,2.61-75.2c2.46-28.22,5.98-56.34,8.42-84.56c0.77-8.91,0.96-17.84-4.45-25.51
			c-3.36-4.76-8.18-6.96-13.37-3.61c-1.62,1.04-0.11,3.64,1.51,2.59C-0.94,31.1,3.18,50.88,2.92,57.26
			C2.45,69.08,0.81,80.97-0.41,92.74c-2.5,24.08-5.26,48.14-6.95,72.29c-3.33,47.7,0.81,94.67,4.78,142.18
			c4,47.8,3.81,95.42,2.07,143.32c-1.74,47.92-3.63,95.83-5.45,143.74c-2.07,54.46-4.14,108.91-6.2,163.37
			c-0.03,0.81,0.71,1.5,1.5,1.5c181-0.15,362,1.26,542.98,3.61c180.06,2.34,360.11,5.62,540.15,9.2c50.11,1,100.23,2.02,150.34,3.05
			c25.06,0.52,50.11,1.03,75.17,1.55c12.99,0.27,25.98,0.53,38.98,0.81c10.75,0.23,22.67,0.15,30.61,8.55
			c1.08,1.14,2.82-0.06,2.51-1.46c-10.66-47.66,3.08-95.52,10.69-142.52c3.56-21.96,5.97-44.29,4.03-66.53
			c-2.12-24.36-10.18-47.56-14.73-71.47c-5.01-26.33-3.05-52.71,0.21-79.12c3.16-25.6,6.25-51.17,8.41-76.88
			c4.39-52.46,5.97-105.17,4.71-157.8c-1.39-58.23-6.28-116.32-14.5-173.98c-0.12-0.83-1.14-1.2-1.85-1.05
			c-42.87,9.14-84.44-9.92-126.51-15.05c-44.84-5.46-88.7,8.72-132.7,14.89c-45.8,6.42-92.34,7.54-138.4,3.33
			c-23.93-2.19-47.58-6.02-71.11-10.81c-21.64-4.4-43.48-9-65.67-8.93c-22.1,0.07-43.82,4.77-65.36,9.18
			c-23.27,4.76-46.67,8.48-70.36,10.39c-47.3,3.82-93.61-0.32-140.46-6.82C534.77,8.29,513,5.38,491.08,4.56
			c-21.53-0.8-42.94,0.98-64.23,4.08c-44.63,6.5-89.05,18.21-134.48,16.4c-45-1.79-87.87-18.56-133.04-19.16
			C115.08,5.29,71.66,16.37,29.71,29.42C18.73,32.83,7.81,36.41-3.1,39.99C-4.93,40.59-4.15,43.48-2.3,42.88L-2.3,42.88z"/>
	</g>
</g>
</svg>
