<?xml version="1.0" encoding="utf-8"?>
<!-- Generator: Adobe Illustrator 28.2.0, SVG Export Plug-In . SVG Version: 6.00 Build 0)  -->
<svg version="1.1" id="Layer_1" xmlns="http://www.w3.org/2000/svg" xmlns:xlink="http://www.w3.org/1999/xlink" x="0px" y="0px"
	 viewBox="0 0 1366 768" style="enable-background:new 0 0 1366 768;" xml:space="preserve">
<style type="text/css">
	.st0{fill:#002194;}
	.st1{fill:#8C6239;}
</style>
<g>
	<path class="st0" d="M2.52,29.04c47.25-38.31,117.74-5.44,177.8-15.12c19.05-3.07,37.65-10.63,56.91-9.45
		c20.02,1.22,38.34,11.78,58.17,14.79C330,24.5,363.74,6.45,398.62,3.67c44.33-3.54,87.03,17.67,131.43,20.03
		C587.7,26.76,644.61-2.03,701.64,6.96c23.99,3.79,46.49,14.11,70.26,19.06c49.23,10.23,99.91-3.14,148.66-15.49
		c16.14-4.09,32.58-8.11,49.22-7.4c16.25,0.69,31.92,5.84,47.76,9.52c30.95,7.17,63.23,8.71,94.69,4.24
		c28.93-4.11,57.26-13.25,86.48-13.63c28.95-0.37,57.25,7.88,85.97,11.53s60.17,1.96,83.18-15.62c13.45,23.5,2.78,52.63-3.06,79.07
		c-11.09,50.24-3.17,102.4,0.62,153.71c4.13,55.78,3.31,111.79,2.5,167.71c-1.33,90.87-2.65,181.75-3.98,272.62
		c-131.91,11.7-263.54-24.41-395.97-24.27c-71.28,0.07-142.16,10.65-213.4,12.81c-67.9,2.06-135.77-3.55-203.53-8.36
		c-141.48-10.06-283.19-16.72-424.99-19.98c-42.73-0.98-86.3-1.54-127.15,11.03c1.04-73.48,6.18-147.02,3.13-220.45
		C-2.5,314.5,5.12,200.88-11.93,91.43c-3.58-22.97-6.73-49.97,9.92-66.19"/>
	<g>
		<path d="M3.59,30.1C36,4.51,79.56,11.44,117.68,15.09c19.48,1.87,39.24,3.43,58.73,0.9c23.45-3.05,45.92-13.38,69.91-8.84
			c21.64,4.09,41.01,14.84,63.51,14.55c22.23-0.29,43.52-7.81,65-12.65c23.92-5.39,46.93-4.89,70.92-0.14
			c22.72,4.5,44.96,11.37,67.92,14.63c44.49,6.31,86.97-7.44,130.53-13.99c24.04-3.62,48.04-4.09,71.75,1.94
			c22.53,5.73,44.06,14.83,67.23,17.96c47.97,6.49,95.48-6.93,141.6-18.44c12.18-3.04,24.53-5.88,37.12-6.38
			c12.84-0.51,25.35,2.01,37.75,5.1c23.27,5.79,46.25,10.5,70.32,11.09c23.92,0.59,47.22-2.78,70.58-7.59
			c24.01-4.94,47.91-9.82,72.57-7.99c43.28,3.2,87.1,21.09,130.39,7.85c9.05-2.77,17.47-6.99,25.08-12.62
			c-0.68-0.18-1.37-0.36-2.05-0.54c10.48,19.42,5.56,41.49,0.64,61.79c-4.8,19.81-8.42,39.38-9.28,59.8
			c-1.86,44.11,5.06,88.06,7.36,132.03c4.66,88.88,0.67,178.34-0.63,267.27c-0.74,50.49-1.47,100.97-2.21,151.46
			c0.5-0.5,1-1,1.5-1.5c-88.28,7.62-176.22-5.7-263.77-15.44c-43.9-4.88-87.99-8.88-132.2-8.83c-44.23,0.04-88.31,4.14-132.35,7.74
			c-45.09,3.69-90.1,6.19-135.36,5.23c-45.29-0.95-90.49-4.31-135.66-7.56c-90.31-6.51-180.71-11.73-271.18-15.52
			c-51.2-2.15-102.41-3.85-153.64-5.11c-47.25-1.16-95.49-3.03-141.27,10.76c0.63,0.48,1.27,0.96,1.9,1.45
			c0.63-42.66,2.59-85.29,3.55-127.94c0.93-41.38-0.47-82.55-1.42-123.9c-1.91-82.46,1.02-165.15-6.51-247.4
			c-1.99-21.76-5.56-43.24-8.14-64.91c-2.18-18.3-2.58-38.91,11.18-53.04c1.35-1.38-0.77-3.51-2.12-2.12
			c-23.43,24.06-10.23,64.61-6.72,93.6c5.03,41.51,6.95,83.33,7.79,125.11c0.85,42.56,0.52,85.14,1.14,127.71
			c0.6,42,2.76,83.89,2.17,125.91c-0.69,49.01-3.18,97.98-3.91,146.99c-0.01,0.96,0.97,1.73,1.9,1.45
			c42.01-12.65,86.08-11.92,129.5-10.91c45.74,1.07,91.47,2.49,137.19,4.26c90.52,3.51,180.99,8.41,271.36,14.7
			c89.65,6.23,178.72,13.03,268.57,6.57c44.1-3.17,88.1-7.83,132.3-9.46c44.41-1.64,88.71,0.82,132.9,5.18
			c97.32,9.6,194.73,26.97,292.82,18.51c0.82-0.07,1.49-0.63,1.5-1.5c1.34-91.78,2.68-183.55,4.02-275.33
			c0.66-45.09,1.26-90.23-0.78-135.3c-2.02-44.5-8.96-88.92-7.97-133.52c0.55-24.99,5.54-48.39,11.05-72.62
			c4.34-19.07,7.07-39.17-2.6-57.1c-0.36-0.66-1.41-1.01-2.05-0.54c-38.56,28.53-88.46,13.94-131.41,7.11
			c-22.89-3.64-45.16-3.95-68.04-0.11c-24.22,4.07-47.94,10.54-72.52,12.34c-25.4,1.85-51.05-0.11-75.89-5.72
			c-22.84-5.17-44.24-12.01-67.95-8.92c-24.1,3.14-47.56,11.03-71.24,16.33c-24.36,5.45-49.22,9.62-74.26,9.24
			c-25.23-0.38-48.28-7.21-72.12-14.65c-21.66-6.76-42.97-10.72-65.74-9.46c-45.6,2.52-89.45,20.07-135.42,18.29
			c-45.7-1.77-88.89-24.17-135.08-20.03c-22.25,1.99-43.38,9.77-65.23,13.93c-12.39,2.36-25.04,3.42-37.56,1.41
			c-11.14-1.79-21.72-5.97-32.42-9.36c-10.16-3.21-20.5-5.67-31.22-5.37c-11.05,0.32-21.83,3.02-32.52,5.61
			c-21.22,5.14-41.77,6.54-63.53,5.05c-36.6-2.5-76.86-11.96-112.26,2.05c-7.7,3.05-14.71,7.25-21.2,12.38
			C-0.05,29.17,2.09,31.28,3.59,30.1L3.59,30.1z"/>
	</g>
</g>
<g>
	<g>
		<path d="M-56,516.5c1.93,0,1.93-3,0-3C-57.93,513.5-57.93,516.5-56,516.5L-56,516.5z"/>
	</g>
</g>
<g>
	<path class="st1" d="M4.5,642.5c81.87-20.69,161.2-16.8,239-11c40.66,3.03,76.31,6.51,117,9c68.94,4.21,134.6-0.56,203.62,2.27
		c45.38,1.86,90.33,9.73,135.68,12.21c56.07,3.07,112.22-2.12,168.33-4.35c93.09-3.7,186.42,0.75,278.99,11.26
		c71.8,8.15,144.32,19.95,215.92,10.15c4.46,22.46,2.77,44.72,4.16,67.07c0.73,11.74,0.4,25.74-9.4,32.25
		c-5.61,3.73-12.81,3.77-19.55,3.69c-89.38-1.14-178.76-2.28-268.15-3.42c-80.13-1.02-160.25-2.05-240.38-3.07
		c-72.72-0.93-145.44-1.86-218.16-2.78c-58.85-0.75-116.22,10.47-175.07,9.72c-145.04-1.85-299.96-6.15-445-8
		c12.63-44.32,10.68-83.84,7.78-120.45"/>
	<g>
		<path d="M4.9,643.95c87.88-21.93,178.33-15.95,267.67-8.66c44.99,3.67,89.96,7.76,135.12,8.4c45.81,0.65,91.63-1.07,137.44-0.01
			c46.08,1.06,91.48,7.91,137.35,11.62c46.48,3.77,93.01,1.6,139.49-0.89c93.72-5.02,187.1-4.16,280.61,4.42
			c46.06,4.23,91.84,10.94,137.89,15.15c22.62,2.07,45.34,3.43,68.06,3.27c11.55-0.08,23.09-0.55,34.6-1.51
			c4.89-0.41,11.1-2.25,15.93-1.66c4.35,0.53,3.7,4.79,4.18,8.75c0.38,3.12,0.67,6.26,0.89,9.4c0.84,11.6,0.75,23.23,1.06,34.84
			c0.25,9.49,1.75,19.41-0.02,28.83c-2.49,13.28-12.04,17.63-24.67,17.69c-11.69,0.06-23.4-0.29-35.09-0.44
			c-46.97-0.6-93.94-1.2-140.91-1.8c-93.84-1.2-187.67-2.4-281.51-3.59c-46.84-0.6-93.69-1.2-140.53-1.79
			c-46.72-0.6-93.52-2.05-140.24-1.69c-45.63,0.35-90.86,7.23-136.4,9.23c-44.87,1.97-90.13-0.35-135.02-1.17
			c-91.45-1.69-182.89-3.82-274.34-5.35C34.8,766.6,13.15,766.28-8.5,766c0.48,0.63,0.96,1.27,1.45,1.9
			c11.08-39.71,11.03-80.08,7.83-120.85c-0.15-1.91-3.15-1.93-3,0c3.18,40.51,3.29,80.59-7.73,120.05c-0.27,0.95,0.48,1.89,1.45,1.9
			c96.34,1.24,192.67,3.44,288.99,5.35c47.7,0.95,95.4,1.83,143.11,2.48c48.78,0.67,96.79-5.29,145.39-8.33
			c49.01-3.06,98.5-0.51,147.57,0.12c50.01,0.64,100.03,1.28,150.04,1.91c99.76,1.27,199.51,2.55,299.27,3.82
			c49.71,0.63,99.42,1.27,149.12,1.9c11.08,0.14,22.85,1.46,33.85-0.19c7.53-1.13,13.7-5.05,16.97-12.05
			c3.17-6.79,3.34-14.74,3.03-22.09c-0.5-12.11-0.73-24.21-1.07-36.32c-0.32-11.41-1.17-22.74-3.28-33.97
			c-0.11-0.57-0.84-1.18-1.45-1.1c-89.02,11.85-178.69-7.51-267.22-15.33c-90.34-7.98-180.61-8.8-271.14-3.95
			c-45.14,2.42-90.38,4.79-135.55,1.54c-44.48-3.19-88.56-10.37-133.18-11.83c-44.52-1.46-89.06,0.04-133.58-0.15
			c-44.09-0.19-87.93-3.43-131.85-7.05c-95.49-7.89-192.36-16.18-286.43,7.29C2.23,641.52,3.02,644.41,4.9,643.95L4.9,643.95z"/>
	</g>
</g>
</svg>
