<?xml version="1.0" encoding="utf-8"?>
<!-- Generator: Adobe Illustrator 28.2.0, SVG Export Plug-In . SVG Version: 6.00 Build 0)  -->
<svg version="1.1" id="Layer_1" xmlns="http://www.w3.org/2000/svg" xmlns:xlink="http://www.w3.org/1999/xlink" x="0px" y="0px"
	 viewBox="0 0 1920 1080" style="enable-background:new 0 0 1920 1080;" xml:space="preserve">
<style type="text/css">
	.st0{fill:#E9FF73;}
	.st1{fill:#FF8C2E;}
	.st2{fill:#FFC245;}
	.st3{fill:#FFCE73;}
	.st4{fill:#FFA32E;}
	.st5{fill:#FFC55C;}
	.st6{fill:#FFB845;}
	.st7{fill:#09A200;}
	.st8{fill:#8BDFFF;stroke:#000000;stroke-width:0.5706;stroke-miterlimit:10;}
</style>
<g>
	<rect x="0.5" y="0.5" class="st0" width="1919" height="1079"/>
	<path d="M1919,1v1078H1V1H1919 M1920,0H0v1080h1920V0L1920,0z"/>
</g>
<g>
	<path class="st1" d="M845.91,285.79c-31.26,17.71-64.33,37.3-79.99,69.64c-2.54,5.24-4.57,11.36-2.43,16.78
		c1.9,4.83,6.64,7.85,11.2,10.33c24.39,13.24,51.7,19.98,78.75,26.17c37.91,8.67,76.69,16.55,115.42,13.08
		c38.73-3.47,77.99-19.86,100.77-51.37c6.54-9.05,11.74-20.62,8.05-31.15c-2.52-7.2-8.7-12.42-14.75-17.08
		c-30.86-23.8-65.8-43.18-103.83-51.72c-38.03-8.55-79.39-5.61-113.75,12.8"/>
	<g>
		<path d="M845.16,284.49c-19.79,11.21-39.79,22.78-56.48,38.42c-8.09,7.57-15.31,16.15-20.87,25.76
			c-2.96,5.12-5.96,10.72-6.6,16.69c-0.65,6.03,2.07,11.07,6.76,14.69c4.84,3.74,10.69,6.36,16.22,8.9
			c6.01,2.77,12.17,5.22,18.41,7.42c12.57,4.44,25.46,7.86,38.41,10.96c27.42,6.57,55.13,12.83,83.24,15.51
			c25.45,2.43,51.4,1.64,76.13-5.3c21.5-6.04,42.07-16.52,58.2-32.13c8.15-7.89,16.02-17.32,19.86-28.14
			c1.97-5.55,2.71-11.71,1.01-17.44c-1.65-5.55-5.4-10.12-9.63-13.94c-4.5-4.07-9.5-7.65-14.41-11.22
			c-5.07-3.69-10.24-7.24-15.5-10.65c-10.6-6.84-21.6-13.07-33-18.46c-22.78-10.77-47.18-18.22-72.33-20.47
			c-24.75-2.22-50.2,0.5-73.49,9.36c-5.65,2.15-11.15,4.65-16.48,7.49c-1.7,0.91-0.19,3.5,1.51,2.59
			c21.51-11.46,45.8-16.87,70.09-17.16c24.39-0.29,48.54,4.6,71.31,13.19c22.89,8.63,44.31,20.89,64.17,35.1
			c4.92,3.53,9.87,7.1,14.49,11.02c4.24,3.6,8.33,7.83,10.14,13.2c3.9,11.59-3.15,23.67-10.07,32.53
			c-13.41,17.19-32.12,29.63-52.33,37.46c-22.06,8.54-45.65,11.65-69.21,11.17c-27.66-0.57-54.95-5.78-81.87-11.78
			c-25.4-5.66-51.18-11.36-75.05-21.98c-5.52-2.46-11.18-5.04-16.25-8.37c-2.19-1.44-4.3-3.17-5.7-5.41
			c-1.65-2.65-2.04-5.78-1.54-8.84c0.96-5.77,4.08-11.21,7.07-16.16c2.79-4.61,5.96-8.97,9.45-13.08
			c14.27-16.8,32.95-29.16,51.77-40.28c4.66-2.75,9.36-5.43,14.06-8.1C848.35,286.13,846.84,283.54,845.16,284.49L845.16,284.49z"/>
	</g>
</g>
<g>
	<path class="st2" d="M780.38,385.66c-7.23,11.39-14.45,22.79-21.68,34.18c17.98-2.61,35.22-10.11,49.39-21.47"/>
	<g>
		<path d="M779.08,384.9c-7.23,11.39-14.45,22.79-21.68,34.18c-0.78,1.22,0.5,2.38,1.69,2.2c14.17-2.09,27.89-7.15,40.03-14.73
			c3.48-2.17,6.81-4.57,10.02-7.13c1.51-1.2-0.63-3.31-2.12-2.12c-14.03,11.2-30.99,18.47-48.73,21.09c0.56,0.73,1.13,1.47,1.69,2.2
			c7.23-11.39,14.45-22.79,21.68-34.18C782.71,384.78,780.11,383.27,779.08,384.9L779.08,384.9z"/>
	</g>
</g>
<g>
	<path class="st3" d="M777.12,332.72c-4.7-2.84-9.12-6.16-13.16-9.89c8.03-3.83,17.56-4.4,25.99-1.56"/>
	<g>
		<path d="M777.87,331.42c-4.6-2.8-8.89-6.02-12.86-9.65c-0.1,0.79-0.2,1.57-0.3,2.36c7.75-3.64,16.72-4.09,24.84-1.41
			c1.84,0.61,2.63-2.29,0.8-2.89c-8.91-2.94-18.67-2.27-27.15,1.71c-0.86,0.4-0.97,1.74-0.3,2.36c4.15,3.8,8.66,7.2,13.46,10.12
			C778.01,335.02,779.52,332.43,777.87,331.42L777.87,331.42z"/>
	</g>
</g>
<g>
	<path class="st4" d="M1031.83,302.52c7.33-16.09,9.64-34.42,6.53-51.82c6.51,11.85,16.19,21.65,23.43,33.08
		c7.23,11.43,11.95,25.82,7.09,38.44"/>
	<g>
		<path d="M1033.13,303.28c7.49-16.55,9.83-35.08,6.68-52.98c-0.91,0.39-1.83,0.77-2.74,1.16c10.07,18.18,28.18,32.35,31.8,53.74
			c0.94,5.58,0.57,11.3-1.43,16.62c-0.68,1.81,2.22,2.59,2.89,0.8c3.74-9.92,1.83-20.76-2.27-30.25
			c-4.35-10.05-11.42-18.5-18.03-27.12c-3.75-4.89-7.38-9.89-10.37-15.3c-0.87-1.57-3.02-0.44-2.74,1.16
			c3,17.03,0.75,34.91-6.38,50.67C1029.75,303.51,1032.33,305.03,1033.13,303.28L1033.13,303.28z"/>
	</g>
</g>
<g>
	<path class="st5" d="M1068.58,374.69c10.91-0.3,20.69,8,25,18.02s4.09,21.41,2.65,32.22c-1.81,13.58-6.24,28.09-17.6,35.75
		c-13.46-20.06-19.57-45.64-38.16-61.08"/>
	<g>
		<path d="M1068.58,376.19c6.34-0.12,12.22,2.75,16.72,7.1c4.96,4.81,7.93,11.06,9.32,17.77c1.55,7.47,1.2,15.24,0.26,22.77
			c-0.8,6.43-2.15,12.86-4.52,18.9c-2.57,6.54-6.6,12.64-12.47,16.65c0.68,0.18,1.37,0.36,2.05,0.54
			c-10.58-15.84-16.31-34.47-27.67-49.83c-3.14-4.24-6.67-8.17-10.72-11.56c-1.47-1.23-3.6,0.88-2.12,2.12
			c14.55,12.17,21.41,30.42,29.86,46.83c2.46,4.78,5.08,9.47,8.07,13.94c0.43,0.64,1.35,1.02,2.05,0.54
			c11.64-7.95,16.22-22.21,18.13-35.54c2.15-15,2.06-32.09-8.81-43.93c-5.16-5.62-12.38-9.46-20.13-9.31
			C1066.65,373.23,1066.65,376.23,1068.58,376.19L1068.58,376.19z"/>
	</g>
</g>
<g>
	<g>
		<path d="M1075.97,335.79c0.42-0.42,0.84-0.84,1.27-1.27c0.15-0.14,0.25-0.3,0.31-0.48c0.09-0.18,0.14-0.37,0.13-0.58
			c0.01-0.21-0.04-0.4-0.13-0.58c-0.06-0.19-0.16-0.35-0.31-0.48c-0.1-0.08-0.2-0.16-0.3-0.23c-0.23-0.14-0.49-0.2-0.76-0.2
			c-0.13,0.02-0.27,0.04-0.4,0.05c-0.25,0.07-0.47,0.2-0.66,0.39c-0.42,0.42-0.84,0.84-1.27,1.27c-0.15,0.14-0.25,0.3-0.31,0.48
			c-0.09,0.18-0.14,0.37-0.13,0.58c-0.01,0.21,0.04,0.4,0.13,0.58c0.06,0.19,0.16,0.35,0.31,0.48c0.1,0.08,0.2,0.16,0.3,0.23
			c0.23,0.14,0.49,0.2,0.76,0.2c0.13-0.02,0.27-0.04,0.4-0.05C1075.56,336.11,1075.78,335.98,1075.97,335.79L1075.97,335.79z"/>
	</g>
</g>
<g>
	<path class="st6" d="M1071.05,326.33c7.69-1.08,15.38-2.17,23.06-3.25c5.01-0.71,10.08-1.41,15.11-0.92
		c10.09,1,19.8,7.5,23.29,17.02c3.49,9.52-0.4,21.57-9.44,26.17c-3.79,1.93-8.11,2.51-12.34,3.01c-13.16,1.56-26.38,2.56-39.62,3.01
		"/>
	<g>
		<path d="M1071.45,327.78c5.56-0.78,11.12-1.57,16.68-2.35c5.53-0.78,11.11-1.81,16.7-1.92c8.64-0.17,17.17,3.12,22.71,9.93
			c4.94,6.08,6.12,14.43,2.98,21.63c-1.47,3.39-3.87,6.41-7.04,8.35c-4.24,2.59-9.39,3.08-14.22,3.63
			c-12.67,1.46-25.39,2.4-38.14,2.84c-1.93,0.07-1.93,3.07,0,3c12.08-0.42,24.15-1.28,36.16-2.62c5.45-0.6,11.14-1.01,16.15-3.42
			c3.69-1.77,6.7-4.8,8.71-8.34c4.15-7.33,4.17-16.54-0.1-23.81c-4.49-7.64-12.84-12.69-21.54-13.88
			c-6.5-0.89-13.06,0.29-19.49,1.19c-6.79,0.96-13.58,1.91-20.37,2.87C1068.75,325.15,1069.56,328.05,1071.45,327.78L1071.45,327.78
			z"/>
	</g>
</g>
<g>
	<g>
		<path d="M1124.28,359.04c-9.03-0.07-17.69-4.11-23.6-10.93c-1.27-1.46-3.38,0.67-2.12,2.12c6.41,7.39,15.95,11.73,25.72,11.81
			C1126.21,362.06,1126.21,359.06,1124.28,359.04L1124.28,359.04z"/>
	</g>
</g>
<g>
	<g>
		<path d="M1116.41,333.72c-2.35-2.64-5.91-4.15-9.44-4.02c-1.01,0.04-1.66,0.93-1.45,1.9c0.26,1.21,0.63,2.45,1.53,3.35
			c0.87,0.87,2.17,1.22,3.36,0.87c1.31-0.38,2.29-1.64,1.99-3.04c-0.24-1.11-1.37-1.75-2.43-1.8c-0.63-0.03-1.27,0.18-1.73,0.61
			c-0.58,0.53-0.69,1.27-0.55,2.01c0.14,0.77,1.12,1.28,1.85,1.05c0.83-0.27,1.2-1.02,1.05-1.85c0.02,0.28,0.04,0.35,0.04,0.23
			c0-0.08,0-0.04-0.02,0.11c-0.04,0.24-0.12,0.44-0.3,0.62c0.16-0.16-0.33,0.23-0.13,0.11c-0.01,0-0.38,0.15-0.19,0.09
			c0.21-0.06-0.38-0.01-0.15,0.02c0.05,0.01,0.12,0.01,0.17,0.01c0.17-0.01-0.43-0.02-0.16-0.01c0.06,0,0.28,0.1,0.01-0.01
			c-0.25-0.11-0.06-0.02,0,0.01c-0.04-0.03-0.3-0.26-0.13-0.09c-0.1-0.1-0.25-0.39-0.25-0.61c0,0.14,0.1-0.36,0.01-0.12
			c0.1-0.21,0.12-0.26,0.07-0.16c-0.06,0.1-0.02,0.06,0.11-0.13c-0.01,0-0.12,0.11-0.12,0.12c0.18-0.13,0.23-0.17,0.13-0.11
			c-0.04,0.02-0.08,0.05-0.11,0.07c0.01-0.07,0.36-0.1,0.06-0.04c-0.04,0.01-0.21,0.03-0.23,0.05c0.07-0.07,0.35-0.02,0.07-0.03
			c-0.31-0.01,0.04-0.03,0.07,0.03c-0.02-0.03-0.2-0.05-0.23-0.05c-0.32-0.08,0.06-0.01,0.05,0.03c0,0.01-0.29-0.19-0.1-0.05
			c0.18,0.14-0.08-0.09-0.11-0.12c-0.26-0.24,0.12,0.22-0.07-0.08c-0.04-0.07-0.09-0.14-0.13-0.21c-0.06-0.11-0.12-0.22-0.17-0.34
			c0.09,0.2,0.04,0.07-0.01-0.06c-0.15-0.42-0.24-0.86-0.34-1.3c-0.48,0.63-0.96,1.27-1.45,1.9c0.38-0.01,0.75-0.01,1.13,0.02
			c0.18,0.01,0.35,0.03,0.53,0.05c0.24,0.03-0.35-0.06,0.06,0.01c0.09,0.02,0.17,0.03,0.26,0.05c0.37,0.07,0.73,0.16,1.09,0.27
			c0.17,0.05,0.34,0.11,0.5,0.17c0.08,0.03,0.17,0.06,0.25,0.09c0.06,0.02,0.34,0.14,0.07,0.02c0.67,0.3,1.31,0.65,1.91,1.07
			c0.09,0.06,0.18,0.13,0.27,0.19c-0.12-0.09-0.09-0.07,0.01,0.01c0.14,0.11,0.27,0.23,0.4,0.34c0.3,0.27,0.57,0.55,0.84,0.85
			c0.52,0.59,1.6,0.57,2.12,0C1116.99,335.21,1116.97,334.34,1116.41,333.72L1116.41,333.72z"/>
	</g>
</g>
<g>
	<path class="st7" d="M1677.96,377.34c-8.16-9.84-15.42-20.43-21.67-31.58c13.96,1.68,20.05,20.22,33.5,24.33
		c-3.83-10.28-8.4-20.28-13.68-29.89c13.85,9.06,26.41,20.08,37.2,32.63c4.56-11.13,9.12-22.26,13.68-33.4
		c1.47-3.59,4.29-7.91,8.04-6.9c-2.92,10.51-4.46,21.4-4.57,32.3c-0.04,3.62,0.67,8.1,4.1,9.26c9.92-19.55,24.14-36.91,41.36-50.49
		c-3.44,12.88-6.88,25.77-10.32,38.65c-0.78,2.93-0.54,7.37,2.49,7.45c9.68-15.68,21.46-30.06,34.91-42.65
		c-3.22,16.88-10.81,32.56-18.32,48.02"/>
	<g>
		<path d="M1679.02,376.28c-8.07-9.76-15.23-20.24-21.43-31.28c-0.43,0.75-0.86,1.5-1.3,2.26c5.27,0.68,9.5,4.23,13.11,7.89
			c3.91,3.97,7.4,8.4,11.79,11.87c2.48,1.96,5.18,3.56,8.21,4.52c1.03,0.32,2.25-0.77,1.85-1.85c-3.88-10.4-8.5-20.51-13.83-30.25
			c-0.68,0.68-1.37,1.37-2.05,2.05c13.74,9.02,26.16,19.94,36.89,32.39c0.82,0.95,2.12,0.28,2.51-0.66
			c3.19-7.78,6.37-15.55,9.56-23.33c1.49-3.64,2.82-7.41,4.53-10.96c1.01-2.09,2.95-5.61,5.79-4.97c-0.35-0.62-0.7-1.23-1.05-1.85
			c-2.3,8.32-3.76,16.87-4.34,25.49c-0.25,3.7-0.61,7.58,0.04,11.25c0.52,2.95,1.98,5.58,4.88,6.67c0.58,0.22,1.41-0.14,1.69-0.69
			c7.71-15.15,17.94-28.95,30.22-40.71c3.48-3.33,7.12-6.49,10.9-9.48c-0.84-0.49-1.67-0.97-2.51-1.46
			c-2.57,9.62-5.14,19.25-7.71,28.87c-0.64,2.39-1.27,4.77-1.91,7.16c-0.48,1.81-1.05,3.6-1.12,5.49c-0.12,2.97,0.97,6.24,4.36,6.48
			c0.53,0.04,1.03-0.32,1.3-0.74c9.64-15.58,21.31-29.82,34.68-42.34c-0.84-0.49-1.67-0.97-2.51-1.46
			c-3.25,16.83-10.73,32.35-18.17,47.66c-0.84,1.73,1.75,3.25,2.59,1.51c7.55-15.53,15.17-31.3,18.47-48.38
			c0.28-1.45-1.37-2.53-2.51-1.46c-13.54,12.69-25.38,27.17-35.15,42.95c0.43-0.25,0.86-0.5,1.3-0.74
			c-2.22-0.16-1.25-4.79-0.92-6.03c1.11-4.22,2.25-8.43,3.38-12.65c2.27-8.51,4.54-17.02,6.81-25.53c0.42-1.56-1.4-2.34-2.51-1.46
			c-13.47,10.65-25.11,23.57-34.33,38.06c-2.63,4.12-5.04,8.38-7.26,12.73c0.56-0.23,1.13-0.46,1.69-0.69
			c-2.34-0.88-2.83-4-2.96-6.17c-0.22-3.56,0.09-7.22,0.39-10.77c0.64-7.7,2.04-15.32,4.09-22.77c0.21-0.76-0.26-1.66-1.05-1.85
			c-3.46-0.79-6.15,1.45-7.96,4.18c-2.2,3.33-3.42,7.41-4.92,11.09c-3.56,8.69-7.12,17.38-10.68,26.08
			c0.84-0.22,1.67-0.44,2.51-0.66c-10.89-12.64-23.55-23.71-37.5-32.86c-1.31-0.86-2.74,0.8-2.05,2.05
			c5.21,9.51,9.73,19.37,13.52,29.53c0.61-0.62,1.23-1.23,1.85-1.85c-5.33-1.67-9.41-5.71-13.13-9.7
			c-3.82-4.08-7.47-8.49-12.21-11.54c-2.61-1.68-5.48-2.74-8.56-3.14c-1.19-0.15-1.79,1.37-1.3,2.26
			c6.33,11.27,13.67,21.93,21.9,31.88C1678.13,379.89,1680.24,377.76,1679.02,376.28L1679.02,376.28z"/>
	</g>
</g>
<g>
	<g>
		<path d="M1676.2,377.82c6.61,0.29,13.24,0.59,19.86,0.2c6.67-0.38,13.07-1.9,19.63-3.01c6.58-1.12,13.26-1.08,19.91-0.85
			c6.73,0.23,13.45,0.52,20.18,0.79c7.65,0.3,15.3,0.6,22.95,0.91c1.93,0.08,1.93-2.92,0-3c-13.56-0.53-27.13-1.08-40.69-1.6
			c-6.62-0.26-13.29-0.46-19.88,0.38c-6.52,0.83-12.87,2.62-19.44,3.19c-7.49,0.65-15.01,0.32-22.51-0.01
			C1674.27,374.74,1674.27,377.74,1676.2,377.82L1676.2,377.82z"/>
	</g>
</g>
<g>
	<g>
		<path d="M302.76-20.73c1.93,0,1.93-3,0-3C300.83-23.73,300.83-20.73,302.76-20.73L302.76-20.73z"/>
	</g>
</g>
<g>
	<path class="st7" d="M902.85,563c-6.21-4.21-11.73-8.74-16.49-13.51c10.63,0.72,15.26,8.65,25.49,10.41
		c-2.91-4.4-6.39-8.68-10.41-12.79c10.54,3.88,20.1,8.59,28.3,13.96c3.47-4.76,6.94-9.53,10.41-14.29c1.12-1.54,3.26-3.38,6.12-2.95
		c-2.22,4.5-3.39,9.16-3.48,13.82c-0.03,1.55,0.51,3.47,3.12,3.96c7.55-8.37,18.37-15.8,31.47-21.61
		c-2.62,5.51-5.23,11.03-7.85,16.54c-0.6,1.26-0.41,3.15,1.9,3.19c7.37-6.71,16.33-12.86,26.57-18.25
		c-2.45,7.22-8.22,13.93-13.94,20.55"/>
	<g>
		<path d="M903.28,562.26c-5.83-3.97-11.33-8.39-16.31-13.38c-0.2,0.49-0.4,0.97-0.61,1.46c9.49,0.73,16.04,8.72,25.26,10.38
			c0.67,0.12,1.42-0.58,0.97-1.26c-3.1-4.65-6.65-8.96-10.54-12.96c-0.28,0.48-0.56,0.95-0.83,1.43c9.82,3.63,19.32,8.15,28.1,13.87
			c0.42,0.27,0.91,0.05,1.17-0.31c2.55-3.51,5.11-7.01,7.66-10.52c2.05-2.82,4.04-6.77,8.12-6.3c-0.25-0.43-0.49-0.86-0.74-1.29
			c-1.88,3.87-3.14,7.99-3.49,12.29c-0.26,3.09,0.17,5.97,3.65,6.76c0.29,0.07,0.62,0.01,0.83-0.22
			c8.59-9.46,19.71-16.31,31.3-21.47c-0.39-0.39-0.78-0.78-1.17-1.17c-1.91,4.02-3.82,8.05-5.73,12.07
			c-0.79,1.67-1.94,3.44-2.41,5.23c-0.26,1-0.1,2.16,0.66,2.9c0.41,0.4,0.95,0.62,1.5,0.73c0.87,0.17,1.19-0.02,1.81-0.58
			c1.38-1.24,2.79-2.44,4.22-3.6c3.06-2.48,6.26-4.79,9.55-6.95c3.94-2.59,8.01-4.96,12.17-7.16c-0.42-0.32-0.84-0.64-1.26-0.97
			c-2.69,7.74-8.45,14.07-13.72,20.17c-0.72,0.83,0.49,2.05,1.21,1.21c5.47-6.34,11.36-12.89,14.16-20.93
			c0.26-0.75-0.64-1.29-1.26-0.97c-9.59,5.06-18.7,11.09-26.74,18.38c0.2-0.08,0.4-0.17,0.61-0.25c-1.87-0.12-1.29-1.63-0.73-2.79
			c0.81-1.71,1.63-3.43,2.44-5.14c1.66-3.5,3.32-7,4.99-10.51c0.38-0.8-0.38-1.52-1.17-1.17c-11.71,5.22-22.97,12.18-31.64,21.74
			c0.28-0.07,0.56-0.15,0.83-0.22c-3.19-0.72-2.58-3.98-2.24-6.52c0.47-3.49,1.57-6.85,3.11-10.01c0.3-0.62-0.08-1.21-0.74-1.29
			c-4.09-0.47-6.31,2.63-8.44,5.56c-2.94,4.04-5.88,8.07-8.82,12.11c0.39-0.1,0.78-0.2,1.17-0.31c-8.9-5.8-18.55-10.37-28.51-14.05
			c-0.84-0.31-1.39,0.85-0.83,1.43c3.79,3.9,7.26,8.09,10.27,12.62c0.32-0.42,0.64-0.84,0.97-1.26c-4.77-0.86-8.74-3.3-12.82-5.77
			c-4.02-2.43-8.15-4.31-12.9-4.68c-0.76-0.06-1.1,0.96-0.61,1.46c5.09,5.09,10.72,9.6,16.66,13.65
			C903.33,564.36,904.19,562.88,903.28,562.26L903.28,562.26z"/>
	</g>
</g>
<g>
	<path class="st7" d="M1198.37,605.9c-6.21-4.21-11.73-8.74-16.49-13.51c10.63,0.72,15.26,8.65,25.49,10.41
		c-2.91-4.4-6.39-8.68-10.41-12.79c10.54,3.88,20.1,8.59,28.3,13.96c3.47-4.76,6.94-9.53,10.41-14.29c1.12-1.54,3.26-3.38,6.12-2.95
		c-2.22,4.5-3.39,9.16-3.48,13.82c-0.03,1.55,0.51,3.47,3.12,3.96c7.55-8.37,18.37-15.8,31.47-21.61
		c-2.62,5.51-5.23,11.03-7.85,16.54c-0.6,1.26-0.41,3.15,1.9,3.19c7.37-6.71,16.33-12.86,26.57-18.25
		c-2.45,7.22-8.22,13.93-13.94,20.55"/>
	<g>
		<path d="M1198.8,605.16c-5.83-3.97-11.33-8.39-16.31-13.38c-0.2,0.49-0.4,0.97-0.61,1.46c9.49,0.73,16.04,8.72,25.26,10.38
			c0.67,0.12,1.42-0.58,0.97-1.26c-3.1-4.65-6.65-8.96-10.54-12.96c-0.28,0.48-0.56,0.95-0.83,1.43c9.82,3.63,19.32,8.15,28.1,13.87
			c0.42,0.27,0.91,0.05,1.17-0.31c2.55-3.51,5.11-7.01,7.66-10.52c2.05-2.82,4.04-6.77,8.12-6.3c-0.25-0.43-0.49-0.86-0.74-1.29
			c-1.88,3.87-3.14,7.99-3.49,12.29c-0.26,3.09,0.17,5.97,3.65,6.76c0.29,0.07,0.62,0.01,0.83-0.22
			c8.59-9.46,19.71-16.31,31.3-21.47c-0.39-0.39-0.78-0.78-1.17-1.17c-1.91,4.02-3.82,8.05-5.73,12.07
			c-0.79,1.67-1.94,3.44-2.41,5.23c-0.26,1-0.1,2.16,0.66,2.9c0.41,0.4,0.95,0.62,1.5,0.73c0.87,0.17,1.19-0.02,1.81-0.58
			c1.38-1.24,2.79-2.44,4.22-3.6c3.06-2.48,6.26-4.79,9.55-6.95c3.94-2.59,8.01-4.96,12.17-7.16c-0.42-0.32-0.84-0.64-1.26-0.97
			c-2.69,7.74-8.45,14.07-13.72,20.17c-0.72,0.83,0.49,2.05,1.21,1.21c5.47-6.34,11.36-12.89,14.16-20.93
			c0.26-0.75-0.64-1.29-1.26-0.97c-9.59,5.06-18.7,11.09-26.74,18.38c0.2-0.08,0.4-0.17,0.61-0.25c-1.87-0.12-1.29-1.63-0.73-2.79
			c0.81-1.71,1.63-3.43,2.44-5.14c1.66-3.5,3.32-7,4.99-10.51c0.38-0.8-0.38-1.52-1.17-1.17c-11.71,5.22-22.97,12.18-31.64,21.74
			c0.28-0.07,0.56-0.15,0.83-0.22c-3.19-0.72-2.58-3.98-2.24-6.52c0.47-3.49,1.57-6.85,3.11-10.01c0.3-0.62-0.08-1.21-0.74-1.29
			c-4.1-0.47-6.31,2.63-8.44,5.56c-2.94,4.04-5.88,8.07-8.82,12.11c0.39-0.1,0.78-0.2,1.17-0.31c-8.9-5.8-18.55-10.37-28.51-14.05
			c-0.84-0.31-1.39,0.85-0.83,1.43c3.79,3.9,7.26,8.09,10.27,12.62c0.32-0.42,0.64-0.84,0.97-1.26c-4.77-0.86-8.74-3.3-12.82-5.77
			c-4.02-2.43-8.15-4.31-12.9-4.68c-0.76-0.06-1.1,0.96-0.61,1.46c5.09,5.09,10.72,9.6,16.66,13.65
			C1198.85,607.26,1199.71,605.78,1198.8,605.16L1198.8,605.16z"/>
	</g>
</g>
<g>
	<path class="st7" d="M1180.37,813.9c-6.21-4.21-11.73-8.74-16.49-13.51c10.63,0.72,15.26,8.65,25.49,10.41
		c-2.91-4.4-6.39-8.68-10.41-12.79c10.54,3.88,20.1,8.59,28.3,13.96c3.47-4.76,6.94-9.53,10.41-14.29c1.12-1.54,3.26-3.38,6.12-2.95
		c-2.22,4.5-3.39,9.16-3.48,13.82c-0.03,1.55,0.51,3.47,3.12,3.96c7.55-8.37,18.37-15.8,31.47-21.61
		c-2.62,5.51-5.23,11.03-7.85,16.54c-0.6,1.26-0.41,3.15,1.9,3.19c7.37-6.71,16.33-12.86,26.57-18.25
		c-2.45,7.22-8.22,13.93-13.94,20.55"/>
	<g>
		<path d="M1180.8,813.16c-5.83-3.97-11.33-8.39-16.31-13.38c-0.2,0.49-0.4,0.97-0.61,1.46c9.49,0.73,16.04,8.72,25.26,10.38
			c0.67,0.12,1.42-0.58,0.97-1.26c-3.1-4.65-6.65-8.96-10.54-12.96c-0.28,0.48-0.56,0.95-0.83,1.43c9.82,3.63,19.32,8.15,28.1,13.87
			c0.42,0.27,0.91,0.05,1.17-0.31c2.55-3.51,5.11-7.01,7.66-10.52c2.05-2.82,4.04-6.77,8.12-6.3c-0.25-0.43-0.49-0.86-0.74-1.29
			c-1.88,3.87-3.14,7.99-3.49,12.29c-0.26,3.09,0.17,5.97,3.65,6.76c0.29,0.07,0.62,0.01,0.83-0.22
			c8.59-9.46,19.71-16.31,31.3-21.47c-0.39-0.39-0.78-0.78-1.17-1.17c-1.91,4.02-3.82,8.05-5.73,12.07
			c-0.79,1.67-1.94,3.44-2.41,5.23c-0.26,1-0.1,2.16,0.66,2.9c0.41,0.4,0.95,0.62,1.5,0.73c0.87,0.17,1.19-0.02,1.81-0.58
			c1.38-1.24,2.79-2.44,4.22-3.6c3.06-2.48,6.26-4.79,9.55-6.95c3.94-2.59,8.01-4.96,12.17-7.16c-0.42-0.32-0.84-0.64-1.26-0.97
			c-2.69,7.74-8.45,14.07-13.72,20.17c-0.72,0.83,0.49,2.05,1.21,1.21c5.47-6.34,11.36-12.89,14.16-20.93
			c0.26-0.75-0.64-1.29-1.26-0.97c-9.59,5.06-18.7,11.09-26.74,18.38c0.2-0.08,0.4-0.17,0.61-0.25c-1.87-0.12-1.29-1.63-0.73-2.79
			c0.81-1.71,1.63-3.43,2.44-5.14c1.66-3.5,3.32-7,4.99-10.51c0.38-0.8-0.38-1.52-1.17-1.17c-11.71,5.22-22.97,12.18-31.64,21.74
			c0.28-0.07,0.56-0.15,0.83-0.22c-3.19-0.72-2.58-3.98-2.24-6.52c0.47-3.49,1.57-6.85,3.11-10.01c0.3-0.62-0.08-1.21-0.74-1.29
			c-4.1-0.47-6.31,2.63-8.44,5.56c-2.94,4.04-5.88,8.07-8.82,12.11c0.39-0.1,0.78-0.2,1.17-0.31c-8.9-5.8-18.55-10.37-28.51-14.05
			c-0.84-0.31-1.39,0.85-0.83,1.43c3.79,3.9,7.26,8.09,10.27,12.62c0.32-0.42,0.64-0.84,0.97-1.26c-4.77-0.86-8.74-3.3-12.82-5.77
			c-4.02-2.43-8.15-4.31-12.9-4.68c-0.76-0.06-1.1,0.96-0.61,1.46c5.09,5.09,10.72,9.6,16.66,13.65
			C1180.85,815.26,1181.71,813.78,1180.8,813.16L1180.8,813.16z"/>
	</g>
</g>
<g>
	<path class="st7" d="M926.37,771.9c-6.21-4.21-11.73-8.74-16.49-13.51c10.63,0.72,15.26,8.65,25.49,10.41
		c-2.91-4.4-6.39-8.68-10.41-12.79c10.54,3.88,20.1,8.59,28.3,13.96c3.47-4.76,6.94-9.53,10.41-14.29c1.12-1.54,3.26-3.38,6.12-2.95
		c-2.22,4.5-3.39,9.16-3.48,13.82c-0.03,1.55,0.51,3.47,3.12,3.96c7.55-8.37,18.37-15.8,31.47-21.61
		c-2.62,5.51-5.23,11.03-7.85,16.54c-0.6,1.26-0.41,3.15,1.9,3.19c7.37-6.71,16.33-12.86,26.57-18.25
		c-2.45,7.22-8.22,13.93-13.94,20.55"/>
	<g>
		<path d="M926.8,771.16c-5.83-3.97-11.33-8.39-16.31-13.38c-0.2,0.49-0.4,0.97-0.61,1.46c9.49,0.73,16.04,8.72,25.26,10.38
			c0.67,0.12,1.42-0.58,0.97-1.26c-3.1-4.65-6.65-8.96-10.54-12.96c-0.28,0.48-0.56,0.95-0.83,1.43c9.82,3.63,19.32,8.15,28.1,13.87
			c0.42,0.27,0.91,0.05,1.17-0.31c2.55-3.51,5.11-7.01,7.66-10.52c2.05-2.82,4.04-6.77,8.12-6.3c-0.25-0.43-0.49-0.86-0.74-1.29
			c-1.88,3.87-3.14,7.99-3.49,12.29c-0.26,3.09,0.17,5.97,3.65,6.76c0.29,0.07,0.62,0.01,0.83-0.22
			c8.59-9.46,19.71-16.31,31.3-21.47c-0.39-0.39-0.78-0.78-1.17-1.17c-1.91,4.02-3.82,8.05-5.73,12.07
			c-0.79,1.67-1.94,3.44-2.41,5.23c-0.26,1-0.1,2.16,0.66,2.9c0.41,0.4,0.95,0.62,1.5,0.73c0.87,0.17,1.19-0.02,1.81-0.58
			c1.38-1.24,2.79-2.44,4.22-3.6c3.06-2.48,6.26-4.79,9.55-6.95c3.94-2.59,8.01-4.96,12.17-7.16c-0.42-0.32-0.84-0.64-1.26-0.97
			c-2.69,7.74-8.45,14.07-13.72,20.17c-0.72,0.83,0.49,2.05,1.21,1.21c5.47-6.34,11.36-12.89,14.16-20.93
			c0.26-0.75-0.64-1.29-1.26-0.97c-9.59,5.06-18.7,11.09-26.74,18.38c0.2-0.08,0.4-0.17,0.61-0.25c-1.87-0.12-1.29-1.63-0.73-2.79
			c0.81-1.71,1.63-3.43,2.44-5.14c1.66-3.5,3.32-7,4.99-10.51c0.38-0.8-0.38-1.52-1.17-1.17c-11.71,5.22-22.97,12.18-31.64,21.74
			c0.28-0.07,0.56-0.15,0.83-0.22c-3.19-0.72-2.58-3.98-2.24-6.52c0.47-3.49,1.57-6.85,3.11-10.01c0.3-0.62-0.08-1.21-0.74-1.29
			c-4.1-0.47-6.31,2.63-8.44,5.56c-2.94,4.04-5.88,8.07-8.82,12.11c0.39-0.1,0.78-0.2,1.17-0.31c-8.9-5.8-18.55-10.37-28.51-14.05
			c-0.84-0.31-1.39,0.85-0.83,1.43c3.79,3.9,7.26,8.09,10.27,12.62c0.32-0.42,0.64-0.84,0.97-1.26c-4.77-0.86-8.74-3.3-12.82-5.77
			c-4.02-2.43-8.15-4.31-12.9-4.68c-0.76-0.06-1.1,0.96-0.61,1.46c5.09,5.09,10.72,9.6,16.66,13.65
			C926.85,773.26,927.71,771.78,926.8,771.16L926.8,771.16z"/>
	</g>
</g>
<g>
	<path class="st7" d="M1131.37,146.9c-6.21-4.21-11.73-8.74-16.49-13.51c10.63,0.72,15.26,8.65,25.49,10.41
		c-2.91-4.4-6.39-8.68-10.41-12.79c10.54,3.88,20.1,8.59,28.3,13.96c3.47-4.76,6.94-9.53,10.41-14.29c1.12-1.54,3.26-3.38,6.12-2.95
		c-2.22,4.5-3.39,9.16-3.48,13.82c-0.03,1.55,0.51,3.47,3.12,3.96c7.55-8.37,18.37-15.8,31.47-21.61
		c-2.62,5.51-5.23,11.03-7.85,16.54c-0.6,1.26-0.41,3.15,1.9,3.19c7.37-6.71,16.33-12.86,26.57-18.25
		c-2.45,7.22-8.22,13.93-13.94,20.55"/>
	<g>
		<path d="M1131.8,146.16c-5.83-3.97-11.33-8.39-16.31-13.38c-0.2,0.49-0.4,0.97-0.61,1.46c9.49,0.73,16.04,8.72,25.26,10.38
			c0.67,0.12,1.42-0.58,0.97-1.26c-3.1-4.65-6.65-8.96-10.54-12.96c-0.28,0.48-0.56,0.95-0.83,1.43c9.82,3.63,19.32,8.15,28.1,13.87
			c0.42,0.27,0.91,0.05,1.17-0.31c2.55-3.51,5.11-7.01,7.66-10.52c2.05-2.82,4.04-6.77,8.12-6.3c-0.25-0.43-0.49-0.86-0.74-1.29
			c-1.88,3.87-3.14,7.99-3.49,12.29c-0.26,3.09,0.17,5.97,3.65,6.76c0.29,0.07,0.62,0.01,0.83-0.22
			c8.59-9.46,19.71-16.31,31.3-21.47c-0.39-0.39-0.78-0.78-1.17-1.17c-1.91,4.02-3.82,8.05-5.73,12.07
			c-0.79,1.67-1.94,3.44-2.41,5.23c-0.26,1-0.1,2.16,0.66,2.9c0.41,0.4,0.95,0.62,1.5,0.73c0.87,0.17,1.19-0.02,1.81-0.58
			c1.38-1.24,2.79-2.44,4.22-3.6c3.06-2.48,6.26-4.79,9.55-6.95c3.94-2.59,8.01-4.96,12.17-7.16c-0.42-0.32-0.84-0.64-1.26-0.97
			c-2.69,7.74-8.45,14.07-13.72,20.17c-0.72,0.83,0.49,2.05,1.21,1.21c5.47-6.34,11.36-12.89,14.16-20.93
			c0.26-0.75-0.64-1.29-1.26-0.97c-9.59,5.06-18.7,11.09-26.74,18.38c0.2-0.08,0.4-0.17,0.61-0.25c-1.87-0.12-1.29-1.63-0.73-2.79
			c0.81-1.71,1.63-3.43,2.44-5.14c1.66-3.5,3.32-7,4.99-10.51c0.38-0.8-0.38-1.52-1.17-1.17c-11.71,5.22-22.97,12.18-31.64,21.74
			c0.28-0.07,0.56-0.15,0.83-0.22c-3.19-0.72-2.58-3.98-2.24-6.52c0.47-3.49,1.57-6.85,3.11-10.01c0.3-0.62-0.08-1.21-0.74-1.29
			c-4.1-0.47-6.31,2.63-8.44,5.56c-2.94,4.04-5.88,8.07-8.82,12.11c0.39-0.1,0.78-0.2,1.17-0.31c-8.9-5.8-18.55-10.37-28.51-14.05
			c-0.84-0.31-1.39,0.85-0.83,1.43c3.79,3.9,7.26,8.09,10.27,12.62c0.32-0.42,0.64-0.84,0.97-1.26c-4.77-0.86-8.74-3.3-12.82-5.77
			c-4.02-2.43-8.15-4.31-12.9-4.68c-0.76-0.06-1.1,0.96-0.61,1.46c5.09,5.09,10.72,9.6,16.66,13.65
			C1131.85,148.26,1132.71,146.78,1131.8,146.16L1131.8,146.16z"/>
	</g>
</g>
<rect x="-0.5" y="0.5" class="st8" width="163" height="1079"/>
</svg>
